<?xml version="1.0" encoding="utf-8"?>
<!-- Generator: Adobe Illustrator 27.3.1, SVG Export Plug-In . SVG Version: 6.00 Build 0)  -->
<svg version="1.1"
	 id="svg23" xmlns:svg="http://www.w3.org/2000/svg" xmlns:sodipodi="http://sodipodi.sourceforge.net/DTD/sodipodi-0.dtd" xmlns:inkscape="http://www.inkscape.org/namespaces/inkscape"
	 xmlns="http://www.w3.org/2000/svg" xmlns:xlink="http://www.w3.org/1999/xlink" x="0px" y="0px" viewBox="0 0 320.7 304.9"
	 style="enable-background:new 0 0 320.7 304.9;" xml:space="preserve">
<style type="text/css">
	.st0{fill:#FFFFFF;}
	.st1{fill:#00273D;}
	.st2{fill:#00283E;}
	.st3{fill:#022A3D;}
	.st4{fill:#002940;}
	.st5{fill:#042D3D;}
	.st6{fill:#002941;}
	.st7{fill:#06303E;}
	.st8{fill:#002A43;}
	.st9{fill:#08333E;}
	.st10{fill:#002B44;}
	.st11{fill:#0A363E;}
	.st12{fill:#002C46;}
	.st13{fill:#0C383E;}
	.st14{fill:#002D47;}
	.st15{fill:#0D3B3E;}
	.st16{fill:#002E49;}
	.st17{fill:#0F3E3E;}
	.st18{fill:#002E4A;}
	.st19{fill:#11413F;}
	.st20{fill:#002F4C;}
	.st21{fill:#13443F;}
	.st22{fill:#00304D;}
	.st23{fill:#15473F;}
	.st24{fill:#00314F;}
	.st25{fill:#174A3F;}
	.st26{fill:#003250;}
	.st27{fill:#194D3F;}
	.st28{fill:#003352;}
	.st29{fill:#1B503F;}
	.st30{fill:#003353;}
	.st31{fill:#1D5340;}
	.st32{fill:#003455;}
	.st33{fill:#1F5540;}
	.st34{fill:#003556;}
	.st35{fill:#215840;}
	.st36{fill:#003657;}
	.st37{fill:#235B40;}
	.st38{fill:#003759;}
	.st39{fill:#255E40;}
	.st40{fill:#00375A;}
	.st41{fill:#266141;}
	.st42{fill:#00385C;}
	.st43{fill:#286441;}
	.st44{fill:#00395D;}
	.st45{fill:#2A6741;}
	.st46{fill:#003A5F;}
	.st47{fill:#2C6A41;}
	.st48{fill:#003B60;}
	.st49{fill:#2E6D41;}
	.st50{fill:#003C62;}
	.st51{fill:#307041;}
	.st52{fill:#003C63;}
	.st53{fill:#327242;}
	.st54{fill:#003D65;}
	.st55{fill:#347542;}
	.st56{fill:#003E66;}
	.st57{fill:#367842;}
	.st58{fill:#003F68;}
	.st59{fill:#387B42;}
	.st60{fill:#004069;}
	.st61{fill:#3A7E42;}
	.st62{fill:#00416B;}
	.st63{fill:#3C8142;}
	.st64{fill:#00416C;}
	.st65{fill:#3D8443;}
	.st66{fill:#00426E;}
	.st67{fill:#3F8743;}
	.st68{fill:#00436F;}
	.st69{fill:#418A43;}
	.st70{fill:#004470;}
	.st71{fill:#438D43;}
	.st72{fill:#004572;}
	.st73{fill:#458F43;}
	.st74{fill:#004573;}
	.st75{fill:#479244;}
	.st76{fill:#004675;}
	.st77{fill:#499544;}
	.st78{fill:#004776;}
	.st79{fill:#4B9844;}
	.st80{fill:#004878;}
	.st81{fill:#4D9B44;}
	.st82{fill:#004979;}
	.st83{fill:#4F9E44;}
	.st84{fill:#004A7B;}
	.st85{fill:#51A144;}
	.st86{fill:#004A7C;}
	.st87{fill:#53A445;}
	.st88{fill:#004B7E;}
	.st89{fill:#55A745;}
	.st90{fill:#004C7F;}
	.st91{fill:#56AA45;}
	.st92{fill:#004D81;}
	.st93{fill:#58AC45;}
	.st94{fill:#004E82;}
	.st95{fill:#5AAF45;}
	.st96{fill:#004F84;}
	.st97{fill:#5CB245;}
	.st98{fill:#004F85;}
	.st99{fill:#5EB546;}
	.st100{fill:#005087;}
	.st101{fill:#60B846;}
	.st102{fill:#005188;}
	.st103{fill:#62BB46;}
</style>
<g id="SvgjsG2686" transform="matrix(2.284354285447385,0,0,2.284354285447385,27.980055421585643,-5.609520280720151)">
	<path id="path20" class="st0" d="M51.4,43.3l-0.9,12.3c-0.2,5.2,7.6,5.7,7.9,0.6l0.7-12.5C59.4,38.6,51.6,38.1,51.4,43.3z
		 M24.8,27.3L24.8,27.3c0.1,0,59.7-0.9,59.9-0.6c3.7,3.3,2.8,81,0.3,83.2c-1.2,0.9-13.5,1.6-26.8,1.7c-2.4-11.2-0.6-24.2-0.6-24.2
		c0.7-5.2-7.1-6.2-7.7-1.2c0,0.1-1.9,13.2,0.5,25.5c-13.3-0.1-25.3-0.7-26-1.9C22.1,105.8,24.5,27.6,24.8,27.3z"/>
</g>
<g>
	<g>
		<g>
			<g>
				<path class="st1" d="M208.6,88.6l-17,17c-12.7-12.1-29.8-19.6-48.8-19.7h-0.6c-8.2,0-16,1.4-23.4,3.9c-9,3.2-17.1,8-24.1,14.1
					c-0.7,0.6-1.3,1.2-1.9,1.7c-0.7,0.8-1.5,1.6-2.3,2.3c-12.2,12.9-19.7,30.2-19.7,49.5v63.3c-10.6-12-18.2-26.5-21.7-42.6
					c-1.5-6.7-2.3-13.6-2.3-20.7c0-24.3,9.1-46.4,24-63.2c1-1,1.9-2.1,2.9-3.1c0.8-0.8,1.5-1.6,2.3-2.3c5.6-5.5,12-10.2,18.9-14.1
					c7.4-4.4,15.5-7.7,24.1-9.8c7.5-1.9,15.3-2.9,23.4-2.9h0.6C168.4,62,191.6,72.1,208.6,88.6z"/>
				<polygon class="st1" points="119.2,178 118.8,178.4 118.8,178 				"/>
				<polygon class="st1" points="119.2,178 118.8,178.4 118.8,178 				"/>
				<polygon class="st1" points="119.2,178 118.8,178.4 118.8,178 				"/>
				<path class="st1" d="M118.8,157.3h46.8V178h-46.8v71.9c-8.6-2.1-16.7-5.4-24.1-9.8v-82.8c0-12.6,4.9-23.9,12.9-32.3
					c0.6-0.8,1.4-1.6,2.3-2.3c2.7-2.7,5.6-4.9,8.9-6.6c6.8-4,14.9-6.1,23.4-6.1h0.6c12.2,0.2,23.4,4.9,31.7,12.8l-17.1,17.1
					c-4-3.6-9-5.6-14.6-5.8h-0.6c-5.8,0-11.2,2.2-15.2,5.8c-0.9,0.6-1.6,1.4-2.3,2.3C121,146.1,118.8,151.5,118.8,157.3z"/>
				<polygon class="st1" points="119.2,178 118.8,178.4 118.8,178 				"/>
				<path class="st1" d="M235.4,178c-3.8,17.5-12.5,33.2-24.5,45.6c-0.7,0.8-1.5,1.6-2.3,2.3c-17,16.6-40.2,26.8-65.7,26.9v-24.1
					c19-0.2,36.1-7.7,48.8-19.7c0.7-0.8,1.5-1.5,2.3-2.3c7.6-8,13.4-17.8,16.8-28.7h-28v-20.8h54.9"/>
			</g>
		</g>
		<rect x="182.8" y="157.3" class="st1" width="81.6" height="20.7"/>
	</g>
	<g>
		<g>
			<path class="st2" d="M209,88.1l-17.1,17.1c-12.8-12.2-30-19.7-49.1-19.9h-0.6c-8.3,0-16.1,1.4-23.6,3.9
				c-9.1,3.2-17.3,8-24.3,14.2c-0.7,0.6-1.3,1.2-1.9,1.7c-0.7,0.8-1.5,1.6-2.3,2.3c-12.3,13-19.9,30.5-19.9,49.8V221
				c-10.6-12-18.3-26.7-21.9-42.9c-1.5-6.7-2.3-13.7-2.3-20.9c0-24.5,9.2-46.8,24.2-63.7c1-1,1.9-2.1,2.9-3.1
				c0.8-0.8,1.5-1.6,2.3-2.3c5.7-5.5,12.1-10.3,19-14.2c7.5-4.4,15.6-7.8,24.3-9.9c7.6-1.9,15.4-3,23.6-3h0.6
				C168.5,61.3,191.8,71.5,209,88.1z"/>
			<polygon class="st2" points="118.9,178.1 118.6,178.6 118.6,178.1 			"/>
			<polygon class="st2" points="118.9,178.1 118.6,178.6 118.6,178.1 			"/>
			<polygon class="st2" points="118.9,178.1 118.6,178.6 118.6,178.1 			"/>
			<path class="st2" d="M118.6,157.3h47.1v20.9h-47.1v72.4c-8.6-2.1-16.8-5.4-24.3-9.9v-83.4c0-12.7,4.9-24.1,13-32.5
				c0.6-0.8,1.4-1.6,2.3-2.3c2.7-2.7,5.7-4.9,9-6.6c6.9-4,15-6.2,23.6-6.2h0.6c12.3,0.2,23.6,5,31.9,12.9l-17.2,17.2
				c-4-3.6-9.1-5.7-14.7-5.8h-0.6c-5.8,0-11.3,2.2-15.4,5.8c-0.9,0.6-1.7,1.4-2.3,2.3C120.7,146,118.6,151.4,118.6,157.3z"/>
			<polygon class="st2" points="118.9,178.1 118.6,178.6 118.6,178.1 			"/>
			<path class="st3" d="M236,178.1c-3.8,17.6-12.6,33.4-24.7,46c-0.7,0.8-1.5,1.6-2.3,2.3c-17.1,16.8-40.5,27-66.2,27.1v-24.3
				c19.1-0.2,36.4-7.8,49.1-19.9c0.7-0.8,1.5-1.5,2.3-2.3c7.7-8,13.5-17.9,16.9-28.9h-28.2v-20.9h55.3"/>
		</g>
		<rect x="183" y="157.3" class="st3" width="82.2" height="20.9"/>
	</g>
	<g>
		<g>
			<path class="st4" d="M209.3,87.6l-17.2,17.2c-12.9-12.3-30.2-19.9-49.5-20H142c-8.3,0-16.3,1.4-23.7,4
				c-9.1,3.3-17.4,8.1-24.4,14.3c-0.7,0.6-1.3,1.2-1.9,1.8c-0.7,0.8-1.5,1.6-2.3,2.3c-12.4,13.1-20,30.7-20,50.2v64.2
				c-10.7-12.1-18.5-26.9-22.1-43.2c-1.5-6.8-2.3-13.8-2.3-21c0-24.7,9.2-47.1,24.3-64.2c1-1.1,1.9-2.1,2.9-3.2
				c0.8-0.8,1.5-1.6,2.3-2.3C80.5,82.2,87,77.3,94,73.4c7.6-4.5,15.7-7.8,24.4-9.9c7.6-1.9,15.6-3,23.7-3h0.6
				C168.6,60.6,192.1,70.9,209.3,87.6z"/>
			<polygon class="st4" points="118.6,178.3 118.3,178.7 118.3,178.3 			"/>
			<polygon class="st4" points="118.6,178.3 118.3,178.7 118.3,178.3 			"/>
			<polygon class="st4" points="118.6,178.3 118.3,178.7 118.3,178.3 			"/>
			<path class="st4" d="M118.3,157.3h47.5v21h-47.5v72.9c-8.7-2.1-17-5.4-24.4-9.9v-84c0-12.7,4.9-24.3,13.1-32.8
				c0.6-0.8,1.4-1.6,2.3-2.3c2.7-2.7,5.7-4.9,9.1-6.7c6.9-4,15.1-6.2,23.7-6.2h0.6c12.4,0.2,23.7,5,32.2,13l-17.3,17.3
				c-4-3.6-9.1-5.7-14.9-5.9H142c-5.9,0-11.3,2.2-15.5,5.9c-0.9,0.6-1.7,1.4-2.3,2.3C120.5,145.9,118.3,151.4,118.3,157.3z"/>
			<polygon class="st4" points="118.6,178.3 118.3,178.7 118.3,178.3 			"/>
			<path class="st5" d="M236.6,178.3c-3.9,17.8-12.7,33.7-24.9,46.3c-0.7,0.8-1.5,1.6-2.3,2.3c-17.2,16.9-40.8,27.2-66.7,27.3v-24.4
				c19.2-0.2,36.6-7.8,49.5-20c0.7-0.8,1.5-1.5,2.3-2.3c7.7-8.1,13.6-18,17-29.1h-28.4v-21.1h55.7"/>
		</g>
		<rect x="183.1" y="157.3" class="st5" width="82.8" height="21"/>
	</g>
	<g>
		<g>
			<path class="st6" d="M209.7,87.1l-17.3,17.3c-13-12.4-30.5-20-49.8-20.2H142c-8.4,0-16.4,1.4-23.9,4c-9.2,3.3-17.5,8.1-24.6,14.4
				c-0.7,0.6-1.3,1.2-1.9,1.8c-0.7,0.8-1.5,1.6-2.3,2.3C76.7,119.9,69,137.6,69,157.3V222c-10.8-12.2-18.6-27.1-22.2-43.6
				c-1.5-6.8-2.3-13.9-2.3-21.2c0-24.9,9.3-47.4,24.5-64.6c1-1.1,1.9-2.1,2.9-3.2c0.8-0.8,1.5-1.6,2.3-2.3
				c5.8-5.6,12.3-10.4,19.3-14.4c7.6-4.5,15.8-7.9,24.6-10c7.7-1.9,15.7-3,23.9-3h0.6C168.7,59.9,192.4,70.3,209.7,87.1z"/>
			<polygon class="st6" points="118.4,178.4 118,178.9 118,178.4 			"/>
			<polygon class="st6" points="118.4,178.4 118,178.9 118,178.4 			"/>
			<polygon class="st6" points="118.4,178.4 118,178.9 118,178.4 			"/>
			<path class="st6" d="M118,157.3h47.8v21.2H118V252c-8.8-2.1-17.1-5.5-24.6-10v-84.6c0-12.8,5-24.4,13.2-33
				c0.6-0.8,1.4-1.6,2.3-2.3c2.7-2.7,5.8-5,9.1-6.7c7-4.1,15.2-6.3,23.9-6.3h0.6c12.5,0.2,23.9,5,32.4,13.1l-17.4,17.4
				c-4.1-3.6-9.2-5.8-15-5.9h-0.6c-5.9,0-11.4,2.2-15.6,5.9c-0.9,0.6-1.7,1.4-2.3,2.3C120.2,145.9,118,151.4,118,157.3z"/>
			<polygon class="st6" points="118.4,178.4 118,178.9 118,178.4 			"/>
			<path class="st7" d="M237.2,178.4c-3.9,17.9-12.7,33.9-25.1,46.7c-0.7,0.8-1.5,1.6-2.3,2.3c-17.3,17-41.1,27.4-67.2,27.5v-24.6
				c19.4-0.2,36.9-7.9,49.8-20.2c0.7-0.8,1.5-1.5,2.3-2.3c7.8-8.1,13.7-18.1,17.2-29.3h-28.6v-21.2h56.1"/>
		</g>
		<rect x="183.3" y="157.3" class="st7" width="83.4" height="21.2"/>
	</g>
	<g>
		<g>
			<path class="st8" d="M210.1,86.6l-17.5,17.5c-13.1-12.5-30.7-20.1-50.2-20.3h-0.6c-8.5,0-16.5,1.4-24.1,4
				c-9.3,3.3-17.7,8.2-24.8,14.5c-0.7,0.6-1.3,1.2-2,1.8c-0.7,0.8-1.5,1.6-2.3,2.3c-12.6,13.3-20.3,31.1-20.3,50.9v65.2
				c-10.9-12.3-18.7-27.3-22.4-43.9c-1.5-6.9-2.3-14-2.3-21.3c0-25.1,9.4-47.8,24.7-65.1c1-1.1,2-2.1,2.9-3.2
				c0.8-0.8,1.5-1.6,2.3-2.3c5.8-5.6,12.4-10.5,19.4-14.5c7.7-4.5,16-7.9,24.8-10.1c7.8-2,15.8-3,24.1-3h0.6
				C168.7,59.2,192.6,69.6,210.1,86.6z"/>
			<polygon class="st8" points="118.1,178.6 117.8,179 117.8,178.6 			"/>
			<polygon class="st8" points="118.1,178.6 117.8,179 117.8,178.6 			"/>
			<polygon class="st8" points="118.1,178.6 117.8,179 117.8,178.6 			"/>
			<path class="st8" d="M117.8,157.3h48.1v21.3h-48.1v74c-8.8-2.1-17.2-5.5-24.8-10.1v-85.2c0-12.9,5-24.6,13.3-33.3
				c0.6-0.8,1.4-1.6,2.3-2.3c2.8-2.8,5.8-5,9.2-6.8c7-4.1,15.3-6.3,24.1-6.3h0.6c12.6,0.2,24.1,5.1,32.6,13.2l-17.6,17.6
				c-4.1-3.7-9.3-5.8-15.1-6h-0.6c-6,0-11.5,2.2-15.7,6c-0.9,0.6-1.7,1.4-2.3,2.3C120,145.8,117.8,151.3,117.8,157.3z"/>
			<polygon class="st8" points="118.1,178.6 117.8,179 117.8,178.6 			"/>
			<path class="st9" d="M237.8,178.6c-3.9,18-12.8,34.1-25.2,47c-0.7,0.8-1.5,1.6-2.3,2.3c-17.5,17.1-41.4,27.5-67.7,27.7v-24.8
				c19.5-0.2,37.2-7.9,50.2-20.3c0.7-0.8,1.5-1.5,2.3-2.3c7.8-8.2,13.8-18.3,17.3-29.5h-28.8v-21.4h56.5"/>
		</g>
		<rect x="183.5" y="157.3" class="st9" width="84" height="21.3"/>
	</g>
	<g>
		<g>
			<path class="st10" d="M210.5,86.1l-17.6,17.6c-13.2-12.6-30.9-20.3-50.6-20.5h-0.6c-8.5,0-16.6,1.4-24.2,4
				c-9.3,3.3-17.8,8.3-25,14.6c-0.7,0.6-1.3,1.3-2,1.8c-0.7,0.8-1.5,1.6-2.3,2.3c-12.7,13.4-20.5,31.3-20.5,51.3v65.6
				c-11-12.4-18.9-27.5-22.5-44.2c-1.5-6.9-2.3-14.1-2.3-21.5c0-25.2,9.4-48.1,24.9-65.5c1-1.1,2-2.2,3-3.2c0.8-0.8,1.5-1.6,2.3-2.3
				c5.8-5.7,12.5-10.6,19.6-14.6c7.7-4.6,16.1-8,25-10.1c7.8-2,15.9-3.1,24.2-3.1h0.6C168.8,58.5,192.9,69,210.5,86.1z"/>
			<polygon class="st10" points="117.8,178.7 117.5,179.2 117.5,178.7 			"/>
			<polygon class="st10" points="117.8,178.7 117.5,179.2 117.5,178.7 			"/>
			<polygon class="st10" points="117.8,178.7 117.5,179.2 117.5,178.7 			"/>
			<path class="st10" d="M117.5,157.3H166v21.5h-48.5v74.5c-8.9-2.2-17.3-5.6-25-10.1v-85.8c0-13,5-24.8,13.4-33.5
				c0.6-0.8,1.4-1.6,2.3-2.3c2.8-2.8,5.8-5,9.2-6.8c7.1-4.1,15.4-6.4,24.2-6.4h0.6c12.7,0.2,24.2,5.1,32.9,13.3l-17.7,17.7
				c-4.1-3.7-9.3-5.8-15.2-6h-0.6c-6,0-11.6,2.2-15.8,6c-0.9,0.6-1.7,1.4-2.3,2.3C119.7,145.7,117.5,151.3,117.5,157.3z"/>
			<polygon class="st10" points="117.8,178.7 117.5,179.2 117.5,178.7 			"/>
			<path class="st11" d="M238.3,178.7c-4,18.1-12.9,34.4-25.4,47.3c-0.7,0.8-1.5,1.6-2.3,2.3c-17.6,17.2-41.7,27.7-68.2,27.9v-25
				c19.7-0.2,37.4-8,50.6-20.5c0.7-0.8,1.5-1.5,2.3-2.3c7.9-8.3,13.9-18.4,17.4-29.7h-29v-21.5h56.9"/>
		</g>
		<rect x="183.7" y="157.3" class="st11" width="84.6" height="21.5"/>
	</g>
	<g>
		<g>
			<path class="st12" d="M210.9,85.6l-17.7,17.7c-13.3-12.7-31.1-20.4-50.9-20.6h-0.6c-8.6,0-16.7,1.4-24.4,4.1
				c-9.4,3.3-17.9,8.3-25.1,14.7c-0.7,0.6-1.4,1.3-2,1.8c-0.7,0.8-1.5,1.6-2.4,2.4c-12.7,13.5-20.6,31.6-20.6,51.6v66.1
				c-11-12.5-19-27.7-22.7-44.5c-1.5-7-2.4-14.2-2.4-21.6c0-25.4,9.5-48.5,25-66c1-1.1,2-2.2,3-3.3c0.8-0.8,1.5-1.6,2.4-2.4
				C78.3,80,85,75,92.2,70.9c7.8-4.6,16.2-8,25.1-10.2c7.9-2,16-3.1,24.4-3.1h0.6C168.9,57.8,193.2,68.4,210.9,85.6z"/>
			<polygon class="st12" points="117.6,178.9 117.2,179.3 117.2,178.9 			"/>
			<polygon class="st12" points="117.6,178.9 117.2,179.3 117.2,178.9 			"/>
			<polygon class="st12" points="117.6,178.9 117.2,179.3 117.2,178.9 			"/>
			<path class="st12" d="M117.2,157.3H166v21.6h-48.8V254c-9-2.2-17.5-5.6-25.1-10.2v-86.4c0-13.1,5.1-25,13.5-33.7
				c0.6-0.8,1.4-1.6,2.4-2.4c2.8-2.8,5.9-5.1,9.3-6.9c7.1-4.2,15.6-6.4,24.4-6.4h0.6c12.7,0.2,24.4,5.2,33.1,13.4l-17.8,17.8
				c-4.2-3.7-9.4-5.9-15.3-6.1h-0.6c-6.1,0-11.7,2.3-15.9,6.1c-0.9,0.6-1.7,1.4-2.4,2.4C119.5,145.6,117.2,151.2,117.2,157.3z"/>
			<polygon class="st12" points="117.6,178.9 117.2,179.3 117.2,178.9 			"/>
			<path class="st13" d="M238.9,178.9c-4,18.3-13,34.6-25.6,47.7c-0.7,0.8-1.5,1.6-2.4,2.4c-17.7,17.4-42,27.9-68.6,28.1V232
				c19.8-0.2,37.7-8,50.9-20.6c0.7-0.8,1.5-1.5,2.4-2.4c8-8.3,14-18.5,17.5-29.9h-29.2v-21.7h57.3"/>
		</g>
		<rect x="183.9" y="157.3" class="st13" width="85.2" height="21.6"/>
	</g>
	<g>
		<g>
			<path class="st14" d="M211.3,85.1l-17.8,17.8c-13.4-12.7-31.3-20.6-51.3-20.8h-0.6c-8.7,0-16.8,1.5-24.6,4.1
				c-9.5,3.4-18,8.4-25.3,14.8c-0.7,0.6-1.4,1.3-2,1.8c-0.7,0.8-1.5,1.6-2.4,2.4c-12.8,13.6-20.8,31.8-20.8,52v66.6
				C55.4,211.3,47.4,196,43.6,179c-1.5-7-2.4-14.3-2.4-21.8c0-25.6,9.6-48.8,25.2-66.5c1-1.1,2-2.2,3-3.3c0.8-0.8,1.5-1.6,2.4-2.4
				c5.9-5.7,12.7-10.7,19.9-14.8c7.9-4.5,16.3-8,25.3-10.2c7.9-2,16.1-3.1,24.6-3.1h0.6C169,57.1,193.4,67.8,211.3,85.1z"/>
			<polygon class="st14" points="117.3,179 116.9,179.5 116.9,179 			"/>
			<polygon class="st14" points="117.3,179 116.9,179.5 116.9,179 			"/>
			<polygon class="st14" points="117.3,179 116.9,179.5 116.9,179 			"/>
			<path class="st14" d="M116.9,157.3h49.2V179h-49.2v75.6c-9-2.2-17.6-5.6-25.3-10.3v-87.1c0-13.2,5.1-25.1,13.6-34
				c0.6-0.8,1.5-1.6,2.4-2.4c2.8-2.8,5.9-5.1,9.4-6.9c7.2-4.2,15.7-6.5,24.6-6.5h0.6c12.8,0.2,24.6,5.2,33.3,13.5L157.6,139
				c-4.2-3.7-9.5-5.9-15.4-6.1h-0.6c-6.1,0-11.7,2.3-16,6.1c-0.9,0.6-1.7,1.5-2.4,2.4C119.2,145.5,116.9,151.2,116.9,157.3z"/>
			<polygon class="st14" points="117.3,179 116.9,179.5 116.9,179 			"/>
			<path class="st15" d="M239.5,179c-4,18.4-13.1,34.9-25.8,48c-0.7,0.8-1.5,1.6-2.4,2.4c-17.8,17.5-42.3,28.1-69.1,28.3v-25.3
				c19.9-0.2,38-8.1,51.3-20.8c0.7-0.8,1.5-1.5,2.4-2.4c8-8.4,14.1-18.7,17.7-30.1h-29.4v-21.9h57.7"/>
		</g>
		<rect x="184.1" y="157.3" class="st15" width="85.8" height="21.8"/>
	</g>
	<g>
		<g>
			<path class="st16" d="M211.7,84.6l-18,18c-13.5-12.8-31.5-20.7-51.6-20.9h-0.6c-8.7,0-17,1.5-24.8,4.1
				c-9.5,3.4-18.2,8.4-25.5,14.9c-0.7,0.6-1.4,1.3-2,1.8c-0.7,0.8-1.6,1.7-2.4,2.4c-12.9,13.7-20.9,32-20.9,52.4v67
				c-11.2-12.7-19.3-28.1-23-45.1c-1.6-7.1-2.4-14.4-2.4-21.9c0-25.8,9.6-49.1,25.4-66.9c1-1.1,2-2.2,3-3.3c0.8-0.8,1.6-1.7,2.4-2.4
				c6-5.8,12.7-10.8,20-14.9c7.9-4.7,16.4-8.2,25.5-10.4c8-2,16.2-3.1,24.8-3.1h0.6C169.1,56.4,193.7,67.1,211.7,84.6z"/>
			<polygon class="st16" points="117,179.2 116.7,179.7 116.7,179.2 			"/>
			<polygon class="st16" points="117,179.2 116.7,179.7 116.7,179.2 			"/>
			<polygon class="st16" points="117,179.2 116.7,179.7 116.7,179.2 			"/>
			<path class="st16" d="M116.7,157.3h49.5v21.9h-49.5v76.1c-9.1-2.2-17.7-5.7-25.5-10.4v-87.7c0-13.3,5.1-25.3,13.7-34.2
				c0.6-0.8,1.5-1.7,2.4-2.4c2.8-2.8,6-5.1,9.4-7c7.2-4.2,15.8-6.5,24.8-6.5h0.6c12.9,0.2,24.8,5.2,33.6,13.6l-18.1,18.1
				c-4.2-3.8-9.5-6-15.5-6.1h-0.6c-6.1,0-11.8,2.3-16.1,6.1c-0.9,0.6-1.7,1.5-2.4,2.4C119,145.5,116.7,151.1,116.7,157.3z"/>
			<polygon class="st16" points="117,179.2 116.7,179.7 116.7,179.2 			"/>
			<path class="st17" d="M240.1,179.2c-4,18.5-13.2,35.1-25.9,48.3c-0.7,0.8-1.6,1.7-2.4,2.4c-18,17.6-42.5,28.3-69.6,28.5v-25.5
				c20.1-0.2,38.2-8.2,51.6-20.9c0.7-0.8,1.6-1.6,2.4-2.4c8.1-8.4,14.2-18.8,17.8-30.4h-29.6v-22h58.1"/>
		</g>
		<rect x="184.3" y="157.3" class="st17" width="86.4" height="21.9"/>
	</g>
	<g>
		<g>
			<path class="st18" d="M212.1,84.1L194,102.2c-13.6-12.9-31.8-20.9-52-21.1h-0.6c-8.8,0-17.1,1.5-24.9,4.2
				c-9.6,3.4-18.3,8.5-25.7,15c-0.7,0.6-1.4,1.3-2,1.8c-0.7,0.8-1.6,1.7-2.4,2.4c-13,13.8-21.1,32.2-21.1,52.7v67.5
				C54,212,45.9,196.5,42.1,179.4c-1.6-7.1-2.4-14.5-2.4-22.1c0-25.9,9.7-49.5,25.6-67.4c1-1.1,2-2.2,3-3.3c0.8-0.8,1.6-1.7,2.4-2.4
				c6-5.8,12.8-10.9,20.1-15c7.9-4.7,16.5-8.2,25.7-10.4c8-2,16.3-3.1,24.9-3.1h0.6C169.2,55.7,194,66.5,212.1,84.1z"/>
			<polygon class="st18" points="116.8,179.4 116.4,179.8 116.4,179.4 			"/>
			<polygon class="st18" points="116.8,179.4 116.4,179.8 116.4,179.4 			"/>
			<polygon class="st18" points="116.8,179.4 116.4,179.8 116.4,179.4 			"/>
			<path class="st18" d="M116.4,157.3h49.9v22.1h-49.9V256c-9.1-2.2-17.8-5.7-25.7-10.4v-88.3c0-13.4,5.2-25.5,13.8-34.4
				c0.6-0.8,1.5-1.7,2.4-2.4c2.9-2.9,6-5.2,9.5-7c7.3-4.2,15.9-6.6,24.9-6.6h0.6c13,0.2,24.9,5.3,33.8,13.7l-18.2,18.2
				c-4.2-3.8-9.6-6-15.6-6.2h-0.6c-6.2,0-11.9,2.3-16.3,6.2c-0.9,0.6-1.8,1.5-2.4,2.4C118.7,145.4,116.4,151.1,116.4,157.3z"/>
			<polygon class="st18" points="116.8,179.4 116.4,179.8 116.4,179.4 			"/>
			<path class="st19" d="M240.7,179.4c-4.1,18.7-13.3,35.4-26.1,48.7c-0.7,0.8-1.6,1.7-2.4,2.4c-18.1,17.7-42.8,28.5-70.1,28.7
				v-25.7c20.2-0.2,38.5-8.2,52-21.1c0.7-0.8,1.6-1.6,2.4-2.4c8.1-8.5,14.3-18.9,17.9-30.6h-29.8v-22.2h58.5"/>
		</g>
		<rect x="184.5" y="157.3" class="st19" width="87" height="22.1"/>
	</g>
	<g>
		<g>
			<path class="st20" d="M212.4,83.6l-18.2,18.2c-13.7-13-32-21-52.3-21.2h-0.7c-8.8,0-17.2,1.5-25.1,4.2
				c-9.7,3.4-18.4,8.6-25.8,15.2c-0.7,0.7-1.4,1.3-2,1.9c-0.7,0.8-1.6,1.7-2.4,2.4c-13.1,13.9-21.2,32.4-21.2,53.1v68
				c-11.3-12.8-19.5-28.4-23.3-45.7c-1.6-7.2-2.4-14.6-2.4-22.2c0-26.1,9.8-49.8,25.8-67.9c1-1.1,2-2.2,3.1-3.3
				c0.8-0.8,1.6-1.7,2.4-2.4c6-5.9,12.9-11,20.3-15.2c8-4.7,16.6-8.3,25.8-10.5c8.1-2,16.5-3.2,25.1-3.2h0.7
				C169.3,55,194.2,65.9,212.4,83.6z"/>
			<polygon class="st20" points="116.5,179.5 116.1,180 116.1,179.5 			"/>
			<polygon class="st20" points="116.5,179.5 116.1,180 116.1,179.5 			"/>
			<polygon class="st20" points="116.5,179.5 116.1,180 116.1,179.5 			"/>
			<path class="st20" d="M116.1,157.3h50.2v22.2h-50.2v77.2c-9.2-2.2-17.9-5.8-25.8-10.5v-88.9c0-13.5,5.2-25.7,13.9-34.7
				c0.7-0.8,1.5-1.7,2.4-2.4c2.9-2.9,6-5.2,9.6-7.1c7.3-4.3,16-6.6,25.1-6.6h0.7c13.1,0.2,25.1,5.3,34,13.8l-18.3,18.3
				c-4.3-3.8-9.7-6-15.7-6.2h-0.7c-6.2,0-12,2.3-16.4,6.2c-0.9,0.7-1.8,1.5-2.4,2.4C118.5,145.3,116.1,151.1,116.1,157.3z"/>
			<polygon class="st20" points="116.5,179.5 116.1,180 116.1,179.5 			"/>
			<path class="st21" d="M241.3,179.5c-4.1,18.8-13.4,35.6-26.3,49c-0.7,0.8-1.6,1.7-2.4,2.4c-18.2,17.8-43.1,28.7-70.6,28.9V234
				c20.4-0.2,38.8-8.3,52.3-21.2c0.7-0.8,1.6-1.6,2.4-2.4c8.2-8.6,14.4-19.1,18-30.8h-30v-22.3h58.9"/>
		</g>
		<rect x="184.7" y="157.3" class="st21" width="87.6" height="22.2"/>
	</g>
	<g>
		<g>
			<path class="st22" d="M212.8,83.1l-18.3,18.3c-13.8-13.1-32.2-21.2-52.7-21.3h-0.7c-8.9,0-17.3,1.5-25.3,4.2
				c-9.7,3.5-18.5,8.6-26,15.3c-0.7,0.7-1.4,1.3-2.1,1.9c-0.7,0.8-1.6,1.7-2.4,2.4C72.2,117.8,64,136.5,64,157.3v68.4
				c-11.4-12.9-19.7-28.6-23.5-46.1c-1.6-7.2-2.4-14.7-2.4-22.4c0-26.3,9.8-50.2,25.9-68.3c1-1.1,2.1-2.2,3.1-3.4
				c0.8-0.8,1.6-1.7,2.4-2.4c6.1-5.9,13-11,20.4-15.3c8-4.8,16.8-8.3,26-10.6c8.1-2.1,16.6-3.2,25.3-3.2h0.7
				C169.4,54.3,194.5,65.3,212.8,83.1z"/>
			<polygon class="st22" points="116.2,179.7 115.9,180.1 115.9,179.7 			"/>
			<polygon class="st22" points="116.2,179.7 115.9,180.1 115.9,179.7 			"/>
			<polygon class="st22" points="116.2,179.7 115.9,180.1 115.9,179.7 			"/>
			<path class="st22" d="M115.9,157.3h50.5v22.4h-50.5v77.7c-9.3-2.2-18.1-5.8-26-10.6v-89.5c0-13.6,5.2-25.8,13.9-34.9
				c0.7-0.8,1.5-1.7,2.4-2.4c2.9-2.9,6.1-5.2,9.6-7.1c7.4-4.3,16.1-6.6,25.3-6.6h0.7c13.2,0.2,25.3,5.3,34.3,13.9l-18.4,18.4
				c-4.3-3.8-9.7-6.1-15.8-6.3h-0.7c-6.3,0-12.1,2.3-16.5,6.3c-0.9,0.7-1.8,1.5-2.4,2.4C118.2,145.2,115.9,151,115.9,157.3z"/>
			<polygon class="st22" points="116.2,179.7 115.9,180.1 115.9,179.7 			"/>
			<path class="st23" d="M241.8,179.7c-4.1,18.9-13.5,35.8-26.5,49.3c-0.7,0.8-1.6,1.7-2.4,2.4c-18.3,18-43.4,28.9-71,29.1v-26
				c20.5-0.2,39-8.3,52.7-21.3c0.7-0.8,1.6-1.6,2.4-2.4c8.2-8.6,14.5-19.2,18.2-31H185v-22.5h59.3"/>
		</g>
		<rect x="184.9" y="157.3" class="st23" width="88.2" height="22.4"/>
	</g>
	<g>
		<g>
			<path class="st24" d="M213.2,82.6L194.8,101c-13.9-13.2-32.4-21.3-53.1-21.5H141c-9,0-17.4,1.5-25.4,4.2
				c-9.8,3.5-18.7,8.7-26.2,15.4c-0.8,0.7-1.4,1.3-2.1,1.9c-0.8,0.8-1.6,1.7-2.5,2.5c-13.3,14-21.5,32.9-21.5,53.8v68.9
				c-11.5-13-19.8-28.8-23.7-46.4c-1.6-7.3-2.5-14.8-2.5-22.5c0-26.5,9.9-50.5,26.1-68.8c1-1.1,2.1-2.3,3.1-3.4
				c0.8-0.8,1.6-1.7,2.5-2.5c6.1-5.9,13.1-11.1,20.5-15.4c8.1-4.8,16.9-8.4,26.2-10.6c8.2-2.1,16.7-3.2,25.4-3.2h0.7
				C169.5,53.6,194.8,64.7,213.2,82.6z"/>
			<polygon class="st24" points="116,179.8 115.6,180.3 115.6,179.8 			"/>
			<polygon class="st24" points="116,179.8 115.6,180.3 115.6,179.8 			"/>
			<polygon class="st24" points="116,179.8 115.6,180.3 115.6,179.8 			"/>
			<path class="st24" d="M115.6,157.3h50.9v22.5h-50.9V258c-9.3-2.3-18.2-5.8-26.2-10.6v-90.1c0-13.7,5.3-26,14-35.1
				c0.7-0.8,1.5-1.7,2.5-2.5c2.9-2.9,6.1-5.3,9.7-7.2c7.4-4.3,16.2-6.7,25.4-6.7h0.7c13.3,0.2,25.4,5.4,34.5,13.9l-18.6,18.6
				c-4.3-3.9-9.8-6.1-15.9-6.3H141c-6.3,0-12.2,2.4-16.6,6.3c-0.9,0.7-1.8,1.5-2.5,2.5C118,145.1,115.6,151,115.6,157.3z"/>
			<polygon class="st24" points="116,179.8 115.6,180.3 115.6,179.8 			"/>
			<path class="st25" d="M242.4,179.8c-4.1,19-13.6,36.1-26.7,49.7c-0.8,0.8-1.6,1.7-2.5,2.5c-18.5,18.1-43.7,29.1-71.5,29.3v-26.2
				c20.6-0.2,39.3-8.4,53.1-21.5c0.8-0.8,1.6-1.6,2.5-2.5c8.3-8.7,14.6-19.3,18.3-31.2h-30.4v-22.6h59.7"/>
		</g>
		<rect x="185.1" y="157.3" class="st25" width="88.8" height="22.5"/>
	</g>
	<g>
		<g>
			<path class="st26" d="M213.6,82.1L195,100.6c-13.9-13.3-32.6-21.4-53.4-21.6h-0.7c-9,0-17.6,1.5-25.6,4.3
				C105.5,86.8,96.5,92,89,98.7c-0.8,0.7-1.4,1.3-2.1,1.9c-0.8,0.9-1.6,1.7-2.5,2.5c-13.4,14.1-21.6,33.1-21.6,54.2v69.3
				c-11.6-13.1-19.9-29-23.8-46.7c-1.6-7.3-2.5-14.9-2.5-22.7c0-26.7,10-50.8,26.3-69.3c1-1.1,2.1-2.3,3.1-3.4
				c0.9-0.9,1.6-1.7,2.5-2.5c6.2-6,13.2-11.2,20.7-15.5c8.2-4.8,17-8.4,26.4-10.7c8.3-2.1,16.8-3.2,25.6-3.2h0.7
				C169.6,52.9,195,64,213.6,82.1z"/>
			<polygon class="st26" points="115.7,180 115.3,180.4 115.3,180 			"/>
			<polygon class="st26" points="115.7,180 115.3,180.4 115.3,180 			"/>
			<polygon class="st26" points="115.7,180 115.3,180.4 115.3,180 			"/>
			<path class="st26" d="M115.3,157.3h51.2V180h-51.2v78.7c-9.4-2.3-18.3-5.9-26.4-10.7v-90.7c0-13.8,5.3-26.2,14.1-35.4
				c0.7-0.9,1.5-1.7,2.5-2.5c2.9-2.9,6.2-5.3,9.8-7.2c7.5-4.4,16.3-6.7,25.6-6.7h0.7c13.4,0.2,25.6,5.4,34.7,14l-18.7,18.7
				c-4.4-3.9-9.9-6.2-16-6.4h-0.7c-6.4,0-12.2,2.4-16.7,6.4c-0.9,0.7-1.8,1.5-2.5,2.5C117.7,145,115.3,150.9,115.3,157.3z"/>
			<polygon class="st26" points="115.7,180 115.3,180.4 115.3,180 			"/>
			<path class="st27" d="M243,180c-4.2,19.2-13.7,36.3-26.8,50c-0.8,0.9-1.6,1.7-2.5,2.5c-18.6,18.2-44,29.3-72,29.5v-26.4
				c20.8-0.2,39.6-8.4,53.4-21.6c0.8-0.9,1.6-1.6,2.5-2.5c8.3-8.7,14.7-19.4,18.4-31.4h-30.6v-22.8h60.1"/>
		</g>
		<rect x="185.3" y="157.3" class="st27" width="89.4" height="22.7"/>
	</g>
	<g>
		<g>
			<path class="st28" d="M214,81.5l-18.7,18.7c-14-13.4-32.9-21.6-53.8-21.8h-0.7c-9.1,0-17.7,1.5-25.8,4.3
				c-9.9,3.5-18.9,8.8-26.6,15.6c-0.8,0.7-1.4,1.3-2.1,1.9c-0.8,0.9-1.6,1.7-2.5,2.5C70.3,116.9,62,136,62,157.2V227
				c-11.7-13.2-20.1-29.2-24-47c-1.6-7.4-2.5-15-2.5-22.8c0-26.8,10-51.2,26.5-69.7c1.1-1.1,2.1-2.3,3.2-3.4
				c0.9-0.9,1.6-1.7,2.5-2.5c6.2-6,13.3-11.3,20.8-15.6c8.2-4.9,17.1-8.5,26.6-10.8c8.3-2.1,16.9-3.2,25.8-3.2h0.7
				C169.7,52.2,195.3,63.4,214,81.5z"/>
			<polygon class="st28" points="115.4,180.1 115.1,180.6 115.1,180.1 			"/>
			<polygon class="st28" points="115.4,180.1 115.1,180.6 115.1,180.1 			"/>
			<polygon class="st28" points="115.4,180.1 115.1,180.6 115.1,180.1 			"/>
			<path class="st28" d="M115.1,157.3h51.6v22.8h-51.6v79.3c-9.5-2.3-18.4-5.9-26.6-10.8v-91.3c0-13.8,5.3-26.4,14.2-35.6
				c0.7-0.9,1.5-1.7,2.5-2.5c3-3,6.2-5.3,9.8-7.3c7.5-4.4,16.4-6.8,25.8-6.8h0.7c13.5,0.2,25.8,5.4,35,14.1L157.7,138
				c-4.4-3.9-9.9-6.2-16.1-6.4h-0.7c-6.4,0-12.3,2.4-16.8,6.4c-1,0.7-1.8,1.5-2.5,2.5C117.4,145,115.1,150.9,115.1,157.3z"/>
			<polygon class="st28" points="115.4,180.1 115.1,180.6 115.1,180.1 			"/>
			<path class="st29" d="M243.6,180.1c-4.2,19.3-13.8,36.6-27,50.3c-0.8,0.9-1.6,1.7-2.5,2.5c-18.7,18.3-44.3,29.5-72.5,29.7V236
				c20.9-0.2,39.8-8.5,53.8-21.8c0.8-0.9,1.6-1.6,2.5-2.5c8.4-8.8,14.8-19.6,18.5-31.6h-30.8v-22.9h60.5"/>
		</g>
		<rect x="185.5" y="157.3" class="st29" width="90" height="22.8"/>
	</g>
	<g>
		<g>
			<path class="st30" d="M214.4,81l-18.8,18.8c-14.1-13.5-33.1-21.7-54.1-21.9h-0.7c-9.1,0-17.8,1.5-26,4.3
				c-10,3.6-19,8.8-26.7,15.7c-0.8,0.7-1.4,1.3-2.1,1.9c-0.8,0.9-1.6,1.7-2.5,2.5c-13.6,14.3-21.9,33.6-21.9,54.9v70.3
				c-11.7-13.3-20.2-29.4-24.1-47.3c-1.6-7.4-2.5-15.1-2.5-23c0-27,10.1-51.5,26.6-70.2c1.1-1.2,2.1-2.3,3.2-3.5
				c0.9-0.9,1.6-1.7,2.5-2.5c6.2-6.1,13.4-11.3,21-15.7c8.3-4.9,17.2-8.6,26.7-10.9c8.4-2.1,17-3.3,26-3.3h0.7
				C169.8,51.5,195.5,62.8,214.4,81z"/>
			<polygon class="st30" points="115.2,180.3 114.8,180.7 114.8,180.3 			"/>
			<polygon class="st30" points="115.2,180.3 114.8,180.7 114.8,180.3 			"/>
			<polygon class="st30" points="115.2,180.3 114.8,180.7 114.8,180.3 			"/>
			<path class="st30" d="M114.8,157.3h51.9v23h-51.9v79.8c-9.5-2.3-18.6-6-26.7-10.9v-91.9c0-13.9,5.4-26.5,14.3-35.9
				c0.7-0.9,1.5-1.7,2.5-2.5c3-3,6.2-5.4,9.9-7.3c7.6-4.4,16.5-6.8,26-6.8h0.7c13.6,0.2,26,5.5,35.2,14.2l-19,19
				c-4.4-3.9-10-6.2-16.2-6.4h-0.7c-6.4,0-12.4,2.4-16.9,6.4c-1,0.7-1.8,1.5-2.5,2.5C117.2,144.9,114.8,150.8,114.8,157.3z"/>
			<polygon class="st30" points="115.2,180.3 114.8,180.7 114.8,180.3 			"/>
			<path class="st31" d="M244.2,180.3c-4.2,19.4-13.8,36.8-27.2,50.7c-0.8,0.9-1.6,1.7-2.5,2.5c-18.8,18.5-44.6,29.7-73,29.9v-26.7
				c21.1-0.2,40.1-8.6,54.1-21.9c0.8-0.9,1.6-1.6,2.5-2.5c8.5-8.8,14.9-19.7,18.7-31.8h-31.1v-23.1h61"/>
		</g>
		<rect x="185.7" y="157.3" class="st31" width="90.6" height="23"/>
	</g>
	<g>
		<g>
			<path class="st32" d="M214.8,80.5l-19,19c-14.2-13.5-33.3-21.9-54.5-22.1h-0.7c-9.2,0-17.9,1.5-26.1,4.4
				c-10.1,3.6-19.2,8.9-26.9,15.8c-0.8,0.7-1.5,1.4-2.1,1.9c-0.8,0.9-1.6,1.7-2.5,2.5c-13.6,14.4-22.1,33.8-22.1,55.3V228
				c-11.8-13.4-20.3-29.6-24.3-47.6c-1.6-7.5-2.5-15.2-2.5-23.1c0-27.2,10.2-51.9,26.8-70.6c1.1-1.2,2.1-2.3,3.2-3.5
				c0.9-0.9,1.6-1.7,2.5-2.5c6.3-6.1,13.5-11.4,21.1-15.8C96,60,105,56.3,114.6,54c8.4-2.1,17.1-3.3,26.1-3.3h0.7
				C169.9,50.8,195.8,62.2,214.8,80.5z"/>
			<polygon class="st32" points="114.9,180.4 114.5,180.9 114.5,180.4 			"/>
			<polygon class="st32" points="114.9,180.4 114.5,180.9 114.5,180.4 			"/>
			<polygon class="st32" points="114.9,180.4 114.5,180.9 114.5,180.4 			"/>
			<path class="st32" d="M114.5,157.3h52.3v23.1h-52.3v80.3c-9.6-2.3-18.7-6-26.9-10.9v-92.5c0-14,5.4-26.7,14.4-36.1
				c0.7-0.9,1.5-1.7,2.5-2.5c3-3,6.3-5.4,10-7.4c7.6-4.5,16.6-6.9,26.1-6.9h0.7c13.6,0.2,26.1,5.5,35.4,14.3l-19.1,19.1
				c-4.5-4-10.1-6.3-16.4-6.5h-0.7c-6.5,0-12.5,2.4-17,6.5c-1,0.7-1.8,1.5-2.5,2.5C116.9,144.8,114.5,150.8,114.5,157.3z"/>
			<polygon class="st32" points="114.9,180.4 114.5,180.9 114.5,180.4 			"/>
			<path class="st33" d="M244.8,180.4c-4.3,19.5-13.9,37.1-27.4,51c-0.8,0.9-1.6,1.7-2.5,2.5c-19,18.6-44.9,29.9-73.5,30.1v-26.9
				c21.2-0.2,40.4-8.6,54.5-22.1c0.8-0.9,1.6-1.6,2.5-2.5c8.5-8.9,15-19.8,18.8-32h-31.3v-23.2h61.4"/>
		</g>
		<rect x="185.9" y="157.3" class="st33" width="91.2" height="23.2"/>
	</g>
	<g>
		<g>
			<path class="st34" d="M215.2,80l-19.1,19.1c-14.3-13.6-33.5-22-54.8-22.2h-0.7c-9.3,0-18,1.6-26.3,4.4
				c-10.1,3.6-19.3,9-27.1,15.9c-0.8,0.7-1.5,1.4-2.1,1.9c-0.8,0.9-1.7,1.8-2.5,2.5c-13.7,14.5-22.2,34-22.2,55.6v71.2
				C48.5,215,39.9,198.6,36,180.5c-1.7-7.5-2.5-15.3-2.5-23.3c0-27.4,10.2-52.2,27-71.1c1.1-1.2,2.1-2.3,3.2-3.5
				c0.9-0.9,1.7-1.8,2.5-2.5c6.3-6.1,13.5-11.5,21.2-15.9c8.4-5,17.4-8.7,27.1-11c8.5-2.1,17.2-3.3,26.3-3.3h0.7
				C170,50.1,196.1,61.5,215.2,80z"/>
			<polygon class="st34" points="114.6,180.6 114.2,181 114.2,180.6 			"/>
			<polygon class="st34" points="114.6,180.6 114.2,181 114.2,180.6 			"/>
			<polygon class="st34" points="114.6,180.6 114.2,181 114.2,180.6 			"/>
			<path class="st34" d="M114.2,157.3h52.6v23.3h-52.6v80.8c-9.6-2.3-18.8-6-27.1-11v-93.1c0-14.1,5.5-26.9,14.5-36.3
				c0.7-0.9,1.6-1.8,2.5-2.5c3-3,6.3-5.5,10-7.4c7.7-4.5,16.8-6.9,26.3-6.9h0.7c13.7,0.2,26.3,5.6,35.7,14.4l-19.2,19.2
				c-4.5-4-10.1-6.3-16.5-6.5h-0.7c-6.5,0-12.6,2.4-17.1,6.5c-1,0.7-1.9,1.6-2.5,2.5C116.7,144.7,114.2,150.8,114.2,157.3z"/>
			<polygon class="st34" points="114.6,180.6 114.2,181 114.2,180.6 			"/>
			<path class="st35" d="M245.4,180.6c-4.3,19.7-14,37.3-27.6,51.3c-0.8,0.9-1.7,1.8-2.5,2.5c-19.1,18.7-45.2,30.1-73.9,30.3v-27.1
				c21.3-0.2,40.6-8.7,54.8-22.2c0.8-0.9,1.7-1.7,2.5-2.5c8.6-9,15.1-20,18.9-32.2h-31.5v-23.4h61.8"/>
		</g>
		<rect x="186.1" y="157.3" class="st35" width="91.8" height="23.3"/>
	</g>
	<g>
		<g>
			<path class="st36" d="M215.6,79.5l-19.2,19.2C182,85,162.7,76.5,141.2,76.3h-0.7c-9.3,0-18.1,1.6-26.5,4.4
				c-10.2,3.6-19.4,9-27.3,16c-0.8,0.7-1.5,1.4-2.2,2c-0.8,0.9-1.7,1.8-2.5,2.5c-13.8,14.6-22.4,34.2-22.4,56v71.7
				c-12-13.5-20.6-30-24.6-48.2c-1.7-7.5-2.5-15.4-2.5-23.4c0-27.6,10.3-52.6,27.2-71.6c1.1-1.2,2.2-2.4,3.2-3.5
				c0.9-0.9,1.7-1.8,2.5-2.5c6.4-6.2,13.6-11.6,21.4-16c8.4-5,17.5-8.7,27.3-11.1c8.5-2.2,17.4-3.3,26.5-3.3h0.7
				C170.1,49.4,196.3,60.9,215.6,79.5z"/>
			<polygon class="st36" points="114.4,180.7 114,181.2 114,180.7 			"/>
			<polygon class="st36" points="114.4,180.7 114,181.2 114,180.7 			"/>
			<polygon class="st36" points="114.4,180.7 114,181.2 114,180.7 			"/>
			<path class="st36" d="M114,157.3h52.9v23.4H114v81.4c-9.7-2.4-18.9-6.1-27.3-11.1v-93.7c0-14.2,5.5-27.1,14.6-36.6
				c0.7-0.9,1.6-1.8,2.5-2.5c3-3,6.4-5.5,10.1-7.5c7.7-4.5,16.9-7,26.5-7h0.7c13.8,0.2,26.5,5.6,35.9,14.5l-19.3,19.3
				c-4.5-4-10.2-6.4-16.6-6.6h-0.7c-6.6,0-12.6,2.5-17.3,6.6c-1,0.7-1.9,1.6-2.5,2.5C116.4,144.6,114,150.7,114,157.3z"/>
			<polygon class="st36" points="114.4,180.7 114,181.2 114,180.7 			"/>
			<path class="st37" d="M245.9,180.7c-4.3,19.8-14.1,37.6-27.7,51.7c-0.8,0.9-1.7,1.8-2.5,2.5c-19.2,18.8-45.5,30.3-74.4,30.5
				v-27.3c21.5-0.2,40.9-8.7,55.2-22.4c0.8-0.9,1.7-1.7,2.5-2.5c8.6-9,15.2-20.1,19-32.5h-31.7v-23.5h62.2"/>
		</g>
		<rect x="186.3" y="157.3" class="st37" width="92.3" height="23.5"/>
	</g>
	<g>
		<g>
			<path class="st38" d="M215.9,79l-19.3,19.3C182.1,84.5,162.7,76,141,75.8h-0.7c-9.4,0-18.3,1.6-26.6,4.4
				c-10.3,3.7-19.5,9.1-27.4,16.1c-0.8,0.7-1.5,1.4-2.2,2c-0.8,0.9-1.7,1.8-2.6,2.6C67.6,115.6,59,135.4,59,157.3v72.1
				c-12-13.6-20.7-30.2-24.8-48.5c-1.7-7.6-2.6-15.5-2.6-23.6c0-27.7,10.4-52.9,27.3-72c1.1-1.2,2.2-2.4,3.3-3.6
				c0.9-0.9,1.7-1.8,2.6-2.6c6.4-6.2,13.7-11.6,21.5-16.1c8.5-5,17.7-8.8,27.4-11.2c8.6-2.2,17.5-3.4,26.6-3.4h0.7
				C170.2,48.7,196.6,60.3,215.9,79z"/>
			<polygon class="st38" points="114.1,180.9 113.7,181.4 113.7,180.9 			"/>
			<polygon class="st38" points="114.1,180.9 113.7,181.4 113.7,180.9 			"/>
			<polygon class="st38" points="114.1,180.9 113.7,181.4 113.7,180.9 			"/>
			<path class="st38" d="M113.7,157.3H167v23.6h-53.3v81.9c-9.8-2.4-19-6.1-27.4-11.2v-94.3c0-14.3,5.5-27.2,14.7-36.8
				c0.7-0.9,1.6-1.8,2.6-2.6c3.1-3.1,6.4-5.5,10.2-7.5c7.8-4.5,17-7,26.6-7h0.7c13.9,0.2,26.6,5.6,36.1,14.6l-19.4,19.4
				c-4.5-4-10.3-6.4-16.7-6.6h-0.7c-6.6,0-12.7,2.5-17.4,6.6c-1,0.7-1.9,1.6-2.6,2.6C116.2,144.6,113.7,150.7,113.7,157.3z"/>
			<polygon class="st38" points="114.1,180.9 113.7,181.4 113.7,180.9 			"/>
			<path class="st39" d="M246.5,180.9c-4.3,19.9-14.2,37.8-27.9,52c-0.8,0.9-1.7,1.8-2.6,2.6c-19.3,18.9-45.8,30.5-74.9,30.7v-27.4
				c21.6-0.2,41.1-8.8,55.6-22.5c0.8-0.9,1.7-1.7,2.6-2.6c8.7-9.1,15.3-20.2,19.1-32.7h-31.9v-23.7h62.6"/>
		</g>
		<rect x="186.5" y="157.3" class="st39" width="92.9" height="23.6"/>
	</g>
	<g>
		<g>
			<path class="st40" d="M216.3,78.5L196.9,98c-14.6-13.9-34.2-22.4-55.9-22.6h-0.7c-9.4,0-18.4,1.6-26.8,4.5
				C103.1,83.5,93.8,89,85.8,96c-0.8,0.7-1.5,1.4-2.2,2c-0.8,0.9-1.7,1.8-2.6,2.6c-14,14.8-22.6,34.7-22.6,56.7v72.6
				c-12.1-13.7-20.9-30.4-24.9-48.9c-1.7-7.6-2.6-15.6-2.6-23.7c0-27.9,10.4-53.2,27.5-72.5c1.1-1.2,2.2-2.4,3.3-3.6
				c0.9-0.9,1.7-1.8,2.6-2.6c6.5-6.3,13.8-11.7,21.7-16.2c8.5-5.1,17.8-8.8,27.6-11.2c8.6-2.2,17.6-3.4,26.8-3.4h0.7
				C170.2,48,196.9,59.7,216.3,78.5z"/>
			<polygon class="st40" points="113.8,181 113.4,181.5 113.4,181 			"/>
			<polygon class="st40" points="113.8,181 113.4,181.5 113.4,181 			"/>
			<polygon class="st40" points="113.8,181 113.4,181.5 113.4,181 			"/>
			<path class="st40" d="M113.4,157.3H167V181h-53.6v82.4c-9.8-2.4-19.2-6.2-27.6-11.2v-94.9c0-14.4,5.6-27.4,14.8-37
				c0.7-0.9,1.6-1.8,2.6-2.6c3.1-3.1,6.5-5.6,10.2-7.5c7.8-4.6,17.1-7.1,26.8-7.1h0.7c14,0.2,26.8,5.7,36.3,14.7l-19.6,19.6
				c-4.6-4.1-10.3-6.5-16.8-6.7h-0.7c-6.7,0-12.8,2.5-17.5,6.7c-1,0.7-1.9,1.6-2.6,2.6C115.9,144.5,113.4,150.6,113.4,157.3z"/>
			<polygon class="st40" points="113.8,181 113.4,181.5 113.4,181 			"/>
			<path class="st41" d="M247.1,181c-4.4,20.1-14.3,38-28.1,52.3c-0.8,0.9-1.7,1.8-2.6,2.6C197,255,170.3,266.6,141,266.8v-27.6
				c21.7-0.2,41.4-8.8,55.9-22.6c0.8-0.9,1.7-1.7,2.6-2.6c8.7-9.1,15.4-20.4,19.3-32.9h-32.1v-23.8h63"/>
		</g>
		<rect x="186.7" y="157.3" class="st41" width="93.5" height="23.8"/>
	</g>
	<g>
		<g>
			<path class="st42" d="M216.7,78l-19.6,19.6c-14.7-14-34.4-22.6-56.3-22.8h-0.7c-9.5,0-18.5,1.6-27,4.5
				c-10.4,3.7-19.8,9.2-27.8,16.3c-0.8,0.7-1.5,1.4-2.2,2c-0.8,0.9-1.7,1.8-2.6,2.6c-14.1,14.9-22.8,34.9-22.8,57.1v73.1
				c-12.2-13.8-21-30.6-25.1-49.2c-1.7-7.7-2.6-15.7-2.6-23.9c0-28.1,10.5-53.6,27.7-73c1.1-1.2,2.2-2.4,3.3-3.6
				c0.9-0.9,1.7-1.8,2.6-2.6c6.5-6.3,13.9-11.8,21.8-16.3c8.6-5.1,17.9-8.9,27.8-11.3c8.7-2.2,17.7-3.4,27-3.4h0.7
				C170.3,47.3,197.1,59,216.7,78z"/>
			<polygon class="st42" points="113.6,181.2 113.2,181.7 113.2,181.2 			"/>
			<polygon class="st42" points="113.6,181.2 113.2,181.7 113.2,181.2 			"/>
			<polygon class="st42" points="113.6,181.2 113.2,181.7 113.2,181.2 			"/>
			<path class="st42" d="M113.2,157.3h54v23.9h-54v83c-9.9-2.4-19.3-6.2-27.8-11.3v-95.6c0-14.5,5.6-27.6,14.9-37.3
				c0.7-0.9,1.6-1.8,2.6-2.6c3.1-3.1,6.5-5.6,10.3-7.6c7.9-4.6,17.2-7.1,27-7.1h0.7c14.1,0.2,27,5.7,36.6,14.8l-19.7,19.7
				c-4.6-4.1-10.4-6.5-16.9-6.7h-0.7c-6.7,0-12.9,2.5-17.6,6.7c-1,0.7-1.9,1.6-2.6,2.6C115.7,144.4,113.2,150.6,113.2,157.3z"/>
			<polygon class="st42" points="113.6,181.2 113.2,181.7 113.2,181.2 			"/>
			<path class="st43" d="M247.7,181.2c-4.4,20.2-14.4,38.3-28.3,52.7c-0.8,0.9-1.7,1.8-2.6,2.6c-19.6,19.2-46.4,30.9-75.9,31.1
				v-27.8c21.9-0.2,41.7-8.9,56.3-22.8c0.8-0.9,1.7-1.7,2.6-2.6c8.8-9.2,15.5-20.5,19.4-33.1h-32.3v-24h63.4"/>
		</g>
		<rect x="186.9" y="157.3" class="st43" width="94.1" height="23.9"/>
	</g>
	<g>
		<g>
			<path class="st44" d="M217.1,77.5l-19.7,19.7c-14.8-14.1-34.6-22.7-56.6-22.9h-0.7c-9.6,0-18.6,1.6-27.2,4.5
				c-10.5,3.7-19.9,9.3-28,16.4c-0.8,0.7-1.5,1.4-2.2,2c-0.8,0.9-1.7,1.8-2.6,2.6c-14.2,15-22.9,35.1-22.9,57.4v73.5
				c-12.3-13.9-21.1-30.8-25.2-49.5c-1.7-7.7-2.6-15.8-2.6-24c0-28.3,10.6-53.9,27.9-73.4c1.1-1.2,2.2-2.4,3.3-3.6
				c0.9-0.9,1.7-1.8,2.6-2.6c6.5-6.3,14-11.9,21.9-16.4c8.7-5.1,18-9,28-11.4c8.8-2.2,17.8-3.4,27.2-3.4h0.7
				C170.4,46.6,197.4,58.4,217.1,77.5z"/>
			<polygon class="st44" points="113.3,181.3 112.9,181.8 112.9,181.3 			"/>
			<polygon class="st44" points="113.3,181.3 112.9,181.8 112.9,181.3 			"/>
			<polygon class="st44" points="113.3,181.3 112.9,181.8 112.9,181.3 			"/>
			<path class="st44" d="M112.9,157.3h54.3v24h-54.3v83.5c-10-2.4-19.4-6.2-28-11.4v-96.2c0-14.6,5.6-27.8,15-37.5
				c0.7-0.9,1.6-1.8,2.6-2.6c3.1-3.1,6.5-5.6,10.4-7.6c7.9-4.6,17.3-7.1,27.2-7.1h0.7c14.2,0.2,27.2,5.7,36.8,14.9l-19.8,19.8
				c-4.6-4.1-10.5-6.5-17-6.7h-0.7c-6.7,0-13,2.5-17.7,6.7c-1,0.7-1.9,1.6-2.6,2.6C115.4,144.3,112.9,150.5,112.9,157.3z"/>
			<polygon class="st44" points="113.3,181.3 112.9,181.8 112.9,181.3 			"/>
			<path class="st45" d="M248.3,181.3c-4.4,20.3-14.5,38.5-28.5,53c-0.8,0.9-1.7,1.8-2.6,2.6c-19.7,19.3-46.7,31.1-76.3,31.3v-28
				c22-0.2,41.9-9,56.6-22.9c0.8-0.9,1.7-1.7,2.6-2.6c8.9-9.3,15.6-20.6,19.5-33.3h-32.5v-24.1h63.8"/>
		</g>
		<rect x="187.1" y="157.3" class="st45" width="94.7" height="24.1"/>
	</g>
	<g>
		<g>
			<path class="st46" d="M217.5,77l-19.8,19.8c-14.9-14.2-34.8-22.9-57-23.1H140c-9.6,0-18.7,1.6-27.3,4.6
				c-10.5,3.7-20,9.3-28.1,16.5c-0.8,0.7-1.5,1.4-2.2,2c-0.8,0.9-1.7,1.8-2.6,2.6c-14.3,15.1-23.1,35.3-23.1,57.8v74
				c-12.3-14-21.3-31-25.4-49.8c-1.7-7.8-2.6-15.9-2.6-24.2c0-28.4,10.6-54.3,28-73.9c1.1-1.2,2.2-2.4,3.3-3.6
				c0.9-0.9,1.7-1.8,2.6-2.6c6.6-6.4,14.1-11.9,22.1-16.5c8.7-5.2,18.1-9,28.1-11.4c8.8-2.2,17.9-3.4,27.3-3.4h0.7
				C170.5,45.9,197.7,57.8,217.5,77z"/>
			<polygon class="st46" points="113,181.5 112.6,182 112.6,181.5 			"/>
			<polygon class="st46" points="113,181.5 112.6,182 112.6,181.5 			"/>
			<polygon class="st46" points="113,181.5 112.6,182 112.6,181.5 			"/>
			<path class="st46" d="M112.6,157.3h54.7v24.2h-54.7v84c-10-2.4-19.5-6.3-28.1-11.4v-96.8c0-14.7,5.7-27.9,15.1-37.8
				c0.7-0.9,1.6-1.8,2.6-2.6c3.1-3.1,6.6-5.7,10.4-7.7c8-4.7,17.4-7.2,27.3-7.2h0.7c14.3,0.2,27.3,5.8,37,15l-19.9,19.9
				c-4.7-4.1-10.5-6.6-17.1-6.8H140c-6.8,0-13.1,2.5-17.8,6.8c-1,0.7-1.9,1.6-2.6,2.6C115.2,144.2,112.6,150.5,112.6,157.3z"/>
			<polygon class="st46" points="113,181.5 112.6,182 112.6,181.5 			"/>
			<path class="st47" d="M248.9,181.5c-4.5,20.4-14.6,38.8-28.6,53.3c-0.8,0.9-1.7,1.8-2.6,2.6c-19.8,19.4-47,31.3-76.8,31.5v-28.1
				c22.2-0.2,42.2-9,57-23.1c0.8-0.9,1.7-1.7,2.6-2.6c8.9-9.3,15.7-20.7,19.6-33.5h-32.7v-24.3h64.2"/>
		</g>
		<rect x="187.3" y="157.3" class="st47" width="95.3" height="24.2"/>
	</g>
	<g>
		<g>
			<path class="st48" d="M217.9,76.5l-20,20c-15-14.3-35-23-57.3-23.2h-0.7c-9.7,0-18.8,1.6-27.5,4.6c-10.6,3.8-20.2,9.4-28.3,16.6
				c-0.8,0.7-1.5,1.4-2.2,2c-0.8,0.9-1.7,1.8-2.6,2.6c-14.4,15.2-23.2,35.5-23.2,58.2v74.5c-12.4-14.1-21.4-31.2-25.6-50.1
				c-1.7-7.8-2.6-16-2.6-24.3c0-28.6,10.7-54.6,28.2-74.4c1.1-1.2,2.2-2.4,3.4-3.7c0.9-0.9,1.7-1.8,2.6-2.6
				c6.6-6.4,14.2-12,22.2-16.6c8.8-5.2,18.2-9.1,28.3-11.5c8.9-2.2,18-3.5,27.5-3.5h0.7C170.6,45.2,197.9,57.2,217.9,76.5z"/>
			<polygon class="st48" points="112.8,181.6 112.4,182.1 112.4,181.6 			"/>
			<polygon class="st48" points="112.8,181.6 112.4,182.1 112.4,181.6 			"/>
			<polygon class="st48" points="112.8,181.6 112.4,182.1 112.4,181.6 			"/>
			<path class="st48" d="M112.4,157.3h55v24.3h-55v84.5c-10.1-2.4-19.7-6.3-28.3-11.5v-97.4c0-14.8,5.7-28.1,15.2-38
				c0.7-0.9,1.6-1.8,2.6-2.6c3.2-3.2,6.6-5.7,10.5-7.7c8-4.7,17.5-7.2,27.5-7.2h0.7c14.4,0.2,27.5,5.8,37.3,15.1l-20.1,20.1
				c-4.7-4.2-10.6-6.6-17.2-6.8h-0.7c-6.8,0-13.1,2.5-17.9,6.8c-1,0.7-1.9,1.6-2.6,2.6C114.9,144.1,112.4,150.5,112.4,157.3z"/>
			<polygon class="st48" points="112.8,181.6 112.4,182.1 112.4,181.6 			"/>
			<path class="st49" d="M249.5,181.6c-4.5,20.6-14.7,39-28.8,53.7c-0.8,0.9-1.7,1.8-2.6,2.6c-20,19.6-47.3,31.5-77.3,31.7v-28.3
				c22.3-0.2,42.5-9.1,57.3-23.2c0.8-0.9,1.7-1.7,2.6-2.6c9-9.4,15.8-20.9,19.8-33.7h-32.9v-24.4h64.6"/>
		</g>
		<rect x="187.5" y="157.3" class="st49" width="95.9" height="24.4"/>
	</g>
	<g>
		<g>
			<path class="st50" d="M218.3,76l-20.1,20.1c-15.1-14.3-35.3-23.2-57.7-23.4h-0.7c-9.7,0-19,1.6-27.7,4.6
				c-10.7,3.8-20.3,9.4-28.5,16.7c-0.8,0.7-1.5,1.4-2.3,2c-0.8,0.9-1.7,1.8-2.7,2.7c-14.5,15.3-23.4,35.8-23.4,58.5v74.9
				c-12.5-14.1-21.5-31.4-25.7-50.4c-1.7-7.9-2.7-16.1-2.7-24.5c0-28.8,10.8-54.9,28.4-74.8c1.1-1.2,2.3-2.5,3.4-3.7
				c0.9-0.9,1.7-1.8,2.7-2.7c6.7-6.3,14.3-12,22.4-16.6c8.8-5.2,18.3-9.1,28.5-11.6c8.9-2.3,18.1-3.5,27.7-3.5h0.7
				C170.7,44.5,198.2,56.5,218.3,76z"/>
			<polygon class="st50" points="112.5,181.8 112.1,182.3 112.1,181.8 			"/>
			<polygon class="st50" points="112.5,181.8 112.1,182.3 112.1,181.8 			"/>
			<polygon class="st50" points="112.5,181.8 112.1,182.3 112.1,181.8 			"/>
			<path class="st50" d="M112.1,157.3h55.3v24.5h-55.3v85.1c-10.1-2.5-19.8-6.4-28.5-11.6v-98c0-14.9,5.7-28.3,15.3-38.2
				c0.7-0.9,1.6-1.8,2.7-2.7c3.2-3.2,6.7-5.7,10.6-7.8c8.1-4.7,17.6-7.3,27.7-7.3h0.7c14.5,0.2,27.7,5.8,37.5,15.2l-20.2,20.2
				c-4.7-4.2-10.7-6.7-17.3-6.9h-0.7c-6.9,0-13.2,2.6-18,6.9c-1,0.7-1.9,1.6-2.7,2.7C114.7,144.1,112.1,150.4,112.1,157.3z"/>
			<polygon class="st50" points="112.5,181.8 112.1,182.3 112.1,181.8 			"/>
			<path class="st51" d="M250,181.8c-4.5,20.7-14.8,39.3-29,54c-0.8,0.9-1.7,1.8-2.7,2.7c-20.1,19.7-47.6,31.7-77.8,31.9v-28.5
				c22.4-0.2,42.7-9.1,57.7-23.4c0.8-0.9,1.7-1.7,2.7-2.7c9-9.4,15.9-21,19.9-33.9h-33.1v-24.6h65"/>
		</g>
		<rect x="187.7" y="157.3" class="st51" width="96.5" height="24.5"/>
	</g>
	<g>
		<g>
			<path class="st52" d="M218.7,75.5l-20.2,20.2c-15.2-14.4-35.5-23.3-58.1-23.5h-0.7c-9.8,0-19.1,1.6-27.8,4.6
				c-10.7,3.8-20.4,9.5-28.7,16.8c-0.8,0.7-1.5,1.4-2.3,2.1c-0.8,0.9-1.8,1.9-2.7,2.7c-14.5,15.4-23.5,36-23.5,58.9v75.4
				C42.1,218.5,33,201.1,28.8,182c-1.8-7.9-2.7-16.2-2.7-24.6c0-29,10.8-55.3,28.6-75.3c1.1-1.2,2.3-2.5,3.4-3.7
				c0.9-0.9,1.8-1.9,2.7-2.7c6.7-6.5,14.3-12.2,22.5-16.8c8.9-5.3,18.5-9.2,28.7-11.7c9-2.3,18.3-3.5,27.8-3.5h0.7
				C170.8,43.8,198.4,55.9,218.7,75.5z"/>
			<polygon class="st52" points="112.2,181.9 111.8,182.4 111.8,181.9 			"/>
			<polygon class="st52" points="112.2,181.9 111.8,182.4 111.8,181.9 			"/>
			<polygon class="st52" points="112.2,181.9 111.8,182.4 111.8,181.9 			"/>
			<path class="st52" d="M111.8,157.3h55.7v24.6h-55.7v85.6c-10.2-2.5-19.9-6.4-28.7-11.7v-98.6c0-15,5.8-28.5,15.4-38.5
				c0.7-0.9,1.6-1.9,2.7-2.7c3.2-3.2,6.7-5.8,10.6-7.8c8.1-4.7,17.7-7.3,27.8-7.3h0.7c14.5,0.2,27.8,5.9,37.7,15.3l-20.3,20.3
				c-4.7-4.2-10.7-6.7-17.4-6.9h-0.7c-6.9,0-13.3,2.6-18.1,6.9c-1,0.7-2,1.6-2.7,2.7C114.4,144,111.8,150.4,111.8,157.3z"/>
			<polygon class="st52" points="112.2,181.9 111.8,182.4 111.8,181.9 			"/>
			<path class="st53" d="M250.6,181.9c-4.5,20.8-14.8,39.5-29.2,54.3c-0.8,0.9-1.8,1.9-2.7,2.7c-20.2,19.8-47.8,31.9-78.3,32.1
				v-28.7c22.6-0.2,43-9.2,58.1-23.5c0.8-0.9,1.8-1.8,2.7-2.7c9.1-9.5,16-21.1,20-34.1h-33.3v-24.7h65.4"/>
		</g>
		<rect x="187.9" y="157.3" class="st53" width="97.1" height="24.7"/>
	</g>
	<g>
		<g>
			<path class="st54" d="M219,75l-20.3,20.3c-15.3-14.5-35.7-23.4-58.4-23.7h-0.7c-9.9,0-19.2,1.7-28,4.7
				c-10.8,3.8-20.5,9.5-28.8,16.9c-0.8,0.7-1.6,1.5-2.3,2.1c-0.8,0.9-1.8,1.9-2.7,2.7c-14.6,15.5-23.7,36.2-23.7,59.2V233
				c-12.7-14.3-21.8-31.7-26-51c-1.8-8-2.7-16.3-2.7-24.8c0-29.2,10.9-55.6,28.7-75.7c1.1-1.2,2.3-2.5,3.4-3.7
				c0.9-0.9,1.8-1.9,2.7-2.7c6.7-6.5,14.4-12.2,22.6-16.9c8.9-5.3,18.6-9.2,28.8-11.7c9-2.3,18.4-3.5,28-3.5h0.7
				C170.9,43.1,198.7,55.3,219,75z"/>
			<polygon class="st54" points="112,182.1 111.6,182.6 111.6,182.1 			"/>
			<polygon class="st54" points="112,182.1 111.6,182.6 111.6,182.1 			"/>
			<polygon class="st54" points="112,182.1 111.6,182.6 111.6,182.1 			"/>
			<path class="st54" d="M111.6,157.3h56v24.8h-56v86.1c-10.3-2.5-20-6.4-28.8-11.7v-99.2c0-15,5.8-28.6,15.5-38.7
				c0.7-0.9,1.7-1.9,2.7-2.7c3.2-3.2,6.7-5.8,10.7-7.9c8.2-4.8,17.8-7.4,28-7.4h0.7c14.6,0.2,28,5.9,38,15.4L158,136.4
				c-4.8-4.3-10.8-6.7-17.5-7h-0.7c-7,0-13.4,2.6-18.3,7c-1,0.7-2,1.7-2.7,2.7C114.1,143.9,111.6,150.3,111.6,157.3z"/>
			<polygon class="st54" points="112,182.1 111.6,182.6 111.6,182.1 			"/>
			<path class="st55" d="M251.2,182.1c-4.6,21-14.9,39.7-29.4,54.7c-0.8,0.9-1.8,1.9-2.7,2.7c-20.3,19.9-48.1,32.1-78.8,32.3V243
				c22.7-0.2,43.3-9.2,58.4-23.7c0.8-0.9,1.8-1.8,2.7-2.7c9.1-9.5,16.1-21.3,20.1-34.3H188v-24.9h65.8"/>
		</g>
		<rect x="188.1" y="157.3" class="st55" width="97.7" height="24.8"/>
	</g>
	<g>
		<g>
			<path class="st56" d="M219.4,74.5L199,95c-15.3-14.6-35.9-23.6-58.8-23.8h-0.7c-9.9,0-19.3,1.7-28.2,4.7
				c-10.9,3.9-20.7,9.6-29,17c-0.8,0.7-1.6,1.5-2.3,2.1c-0.8,0.9-1.8,1.9-2.7,2.7c-14.7,15.6-23.8,36.4-23.8,59.6v76.3
				c-12.7-14.4-21.9-31.9-26.2-51.4c-1.8-8-2.7-16.4-2.7-24.9c0-29.3,11-56,28.9-76.2c1.1-1.3,2.3-2.5,3.4-3.8
				c0.9-0.9,1.8-1.9,2.7-2.7c6.8-6.6,14.5-12.3,22.8-17c9-5.3,18.7-9.3,29-11.8c9.1-2.3,18.5-3.5,28.2-3.5h0.7
				C171,42.4,199,54.7,219.4,74.5z"/>
			<polygon class="st56" points="111.7,182.2 111.3,182.8 111.3,182.2 			"/>
			<polygon class="st56" points="111.7,182.2 111.3,182.8 111.3,182.2 			"/>
			<polygon class="st56" points="111.7,182.2 111.3,182.8 111.3,182.2 			"/>
			<path class="st56" d="M111.3,157.3h56.4v24.9h-56.4v86.6c-10.3-2.5-20.1-6.5-29-11.8v-99.8c0-15.1,5.8-28.8,15.6-38.9
				c0.7-0.9,1.7-1.9,2.7-2.7c3.2-3.2,6.8-5.8,10.8-7.9c8.2-4.8,18-7.4,28.2-7.4h0.7c14.7,0.2,28.2,6,38.2,15.5l-20.6,20.6
				c-4.8-4.3-10.9-6.8-17.6-7h-0.7c-7,0-13.5,2.6-18.4,7c-1,0.7-2,1.7-2.7,2.7C113.9,143.8,111.3,150.3,111.3,157.3z"/>
			<polygon class="st56" points="111.7,182.2 111.3,182.8 111.3,182.2 			"/>
			<path class="st57" d="M251.8,182.2c-4.6,21.1-15,40-29.5,55c-0.8,0.9-1.8,1.9-2.7,2.7c-20.5,20-48.4,32.3-79.2,32.5v-29
				c22.9-0.2,43.5-9.3,58.8-23.8c0.8-0.9,1.8-1.8,2.7-2.7c9.2-9.6,16.2-21.4,20.3-34.6h-33.7v-25.1h66.2"/>
		</g>
		<rect x="188.3" y="157.3" class="st57" width="98.3" height="25"/>
	</g>
	<g>
		<g>
			<path class="st58" d="M219.8,74l-20.6,20.6c-15.4-14.7-36.1-23.7-59.1-23.9h-0.7c-10,0-19.4,1.7-28.4,4.7
				c-10.9,3.9-20.8,9.7-29.2,17.1c-0.8,0.7-1.6,1.5-2.3,2.1c-0.8,0.9-1.8,1.9-2.7,2.7c-14.8,15.7-24,36.7-24,60v76.8
				C40,219.6,30.7,202,26.4,182.4c-1.8-8.1-2.7-16.5-2.7-25.1c0-29.5,11-56.3,29.1-76.7c1.2-1.3,2.3-2.5,3.5-3.8
				c0.9-0.9,1.8-1.9,2.7-2.7c6.8-6.6,14.6-12.4,22.9-17.1c9-5.4,18.8-9.3,29.2-11.9c9.1-2.3,18.6-3.6,28.4-3.6h0.7
				C171.1,41.7,199.2,54,219.8,74z"/>
			<polygon class="st58" points="111.4,182.4 111,182.9 111,182.4 			"/>
			<polygon class="st58" points="111.4,182.4 111,182.9 111,182.4 			"/>
			<polygon class="st58" points="111.4,182.4 111,182.9 111,182.4 			"/>
			<path class="st58" d="M111,157.3h56.7v25.1H111v87.2c-10.4-2.5-20.3-6.5-29.2-11.9V157.3c0-15.2,5.9-29,15.6-39.2
				c0.7-0.9,1.7-1.9,2.7-2.7c3.3-3.3,6.8-5.9,10.8-8c8.3-4.8,18.1-7.5,28.4-7.5h0.7c14.8,0.2,28.4,6,38.4,15.5l-20.7,20.7
				c-4.8-4.3-10.9-6.8-17.7-7h-0.7c-7,0-13.5,2.6-18.5,7c-1.1,0.7-2,1.7-2.7,2.7C113.6,143.7,111,150.2,111,157.3z"/>
			<polygon class="st58" points="111.4,182.4 111,182.9 111,182.4 			"/>
			<path class="st59" d="M252.4,182.4c-4.6,21.2-15.1,40.2-29.7,55.3c-0.8,0.9-1.8,1.9-2.7,2.7c-20.6,20.2-48.7,32.5-79.7,32.7
				v-29.2c23-0.2,43.8-9.3,59.1-23.9c0.8-0.9,1.8-1.8,2.7-2.7c9.2-9.7,16.3-21.5,20.4-34.8h-33.9v-25.2h66.6"/>
		</g>
		<rect x="188.5" y="157.3" class="st59" width="98.9" height="25.1"/>
	</g>
	<g>
		<g>
			<path class="st60" d="M220.2,73.5l-20.7,20.7C184,79.4,163.2,70.3,140,70.1h-0.7c-10,0-19.5,1.7-28.5,4.8
				c-11,3.9-20.9,9.7-29.4,17.2c-0.8,0.7-1.6,1.5-2.3,2.1c-0.8,1-1.8,1.9-2.7,2.7c-14.9,15.7-24.1,36.9-24.1,60.3v77.2
				c-12.9-14.6-22.2-32.3-26.5-52c-1.8-8.1-2.7-16.6-2.7-25.3c0-29.7,11.1-56.6,29.3-77.1c1.2-1.3,2.3-2.5,3.5-3.8
				c1-1,1.8-1.9,2.7-2.7c6.9-6.7,14.7-12.5,23-17.2c9.1-5.4,18.9-9.4,29.4-11.9c9.2-2.3,18.7-3.6,28.5-3.6h0.7
				C171.2,41,199.5,53.4,220.2,73.5z"/>
			<polygon class="st60" points="111.2,182.5 110.7,183.1 110.7,182.5 			"/>
			<polygon class="st60" points="111.2,182.5 110.7,183.1 110.7,182.5 			"/>
			<polygon class="st60" points="111.2,182.5 110.7,183.1 110.7,182.5 			"/>
			<path class="st60" d="M110.7,157.3h57.1v25.3h-57.1v87.7c-10.5-2.5-20.4-6.6-29.4-11.9v-101c0-15.3,5.9-29.2,15.7-39.4
				c0.7-1,1.7-1.9,2.7-2.7c3.3-3.3,6.9-5.9,10.9-8c8.3-4.9,18.2-7.5,28.5-7.5h0.7c14.9,0.2,28.5,6,38.7,15.6L157.9,136
				c-4.9-4.3-11-6.9-17.9-7.1h-0.7c-7.1,0-13.6,2.6-18.6,7.1c-1.1,0.7-2,1.7-2.7,2.7C113.4,143.6,110.7,150.2,110.7,157.3z"/>
			<polygon class="st60" points="111.2,182.5 110.7,183.1 110.7,182.5 			"/>
			<path class="st61" d="M253,182.5c-4.6,21.3-15.2,40.5-29.9,55.7c-0.8,1-1.8,1.9-2.7,2.7c-20.7,20.3-49,32.6-80.2,32.9v-29.4
				c23.1-0.2,44.1-9.4,59.5-24.1c0.8-1,1.8-1.8,2.7-2.7c9.3-9.7,16.4-21.7,20.5-35h-34.1v-25.4h67"/>
		</g>
		<rect x="188.7" y="157.3" class="st61" width="99.5" height="25.3"/>
	</g>
	<g>
		<g>
			<path class="st62" d="M220.6,73l-20.8,20.8c-15.6-14.9-36.6-24-59.8-24.2h-0.7c-10.1,0-19.7,1.7-28.7,4.8
				c-11.1,3.9-21,9.8-29.6,17.3c-0.9,0.7-1.6,1.5-2.3,2.1c-0.9,1-1.8,1.9-2.8,2.8c-15,15.8-24.2,37.1-24.2,60.7V235
				c-13-14.7-22.3-32.5-26.7-52.3c-1.8-8.2-2.8-16.7-2.8-25.4c0-29.9,11.2-57,29.4-77.6c1.2-1.3,2.3-2.6,3.5-3.8
				c1-1,1.8-1.9,2.8-2.8c6.9-6.7,14.8-12.5,23.2-17.3c9.1-5.4,19-9.5,29.6-12c9.2-2.3,18.8-3.6,28.7-3.6h0.7
				C171.3,40.4,199.8,52.8,220.6,73z"/>
			<polygon class="st62" points="110.9,182.7 110.5,183.2 110.5,182.7 			"/>
			<polygon class="st62" points="110.9,182.7 110.5,183.2 110.5,182.7 			"/>
			<polygon class="st62" points="110.9,182.7 110.5,183.2 110.5,182.7 			"/>
			<path class="st62" d="M110.5,157.3h57.4v25.4h-57.4v88.2c-10.5-2.6-20.5-6.6-29.6-12V157.3c0-15.4,6-29.3,15.8-39.6
				c0.7-1,1.7-1.9,2.8-2.8c3.3-3.3,6.9-6,10.9-8.1c8.4-4.9,18.3-7.5,28.7-7.5h0.7c15,0.2,28.7,6.1,38.9,15.7l-20.9,20.9
				c-4.9-4.4-11.1-6.9-18-7.1h-0.7c-7.1,0-13.7,2.7-18.7,7.1c-1.1,0.7-2,1.7-2.8,2.8C113.1,143.6,110.5,150.2,110.5,157.3z"/>
			<polygon class="st62" points="110.9,182.7 110.5,183.2 110.5,182.7 			"/>
			<path class="st63" d="M253.6,182.7c-4.7,21.5-15.3,40.7-30.1,56c-0.9,1-1.8,1.9-2.8,2.8c-20.8,20.4-49.3,32.8-80.7,33.1V245
				c23.3-0.2,44.3-9.5,59.8-24.2c0.9-1,1.8-1.8,2.8-2.8c9.4-9.8,16.5-21.8,20.6-35.2h-34.3v-25.5h67.4"/>
		</g>
		<rect x="188.9" y="157.3" class="st63" width="100.1" height="25.4"/>
	</g>
	<g>
		<g>
			<path class="st64" d="M221,72.5l-21,21c-15.7-15-36.8-24.2-60.2-24.4h-0.7c-10.2,0-19.8,1.7-28.9,4.8c-11.1,4-21.2,9.8-29.7,17.4
				c-0.9,0.7-1.6,1.5-2.4,2.1c-0.9,1-1.8,1.9-2.8,2.8c-15,16-24.3,37.3-24.3,61.1v78.2c-13-14.8-22.5-32.7-26.8-52.6
				c-1.8-8.2-2.8-16.8-2.8-25.6c0-30,11.2-57.3,29.6-78.1c1.2-1.3,2.4-2.6,3.5-3.8c1-1,1.8-1.9,2.8-2.8c7-6.7,14.9-12.6,23.3-17.4
				c9.2-5.5,19.1-9.5,29.7-12.1c9.3-2.4,18.9-3.6,28.9-3.6h0.7C171.4,39.7,200,52.2,221,72.5z"/>
			<polygon class="st64" points="110.6,182.8 110.2,183.4 110.2,182.8 			"/>
			<polygon class="st64" points="110.6,182.8 110.2,183.4 110.2,182.8 			"/>
			<polygon class="st64" points="110.6,182.8 110.2,183.4 110.2,182.8 			"/>
			<path class="st64" d="M110.2,157.3h57.7v25.6h-57.7v88.8c-10.6-2.6-20.6-6.6-29.7-12.1V157.4c0-15.5,6-29.5,15.9-39.9
				c0.7-1,1.7-1.9,2.8-2.8c3.3-3.3,7-6,11-8.1c8.4-4.9,18.4-7.6,28.9-7.6h0.7c15.1,0.2,28.9,6.1,39.1,15.8l-21.1,21.1
				c-4.9-4.4-11.1-7-18.1-7.2H139c-7.2,0-13.8,2.7-18.8,7.2c-1.1,0.7-2,1.7-2.8,2.8C112.9,143.5,110.2,150.1,110.2,157.3z"/>
			<polygon class="st64" points="110.6,182.8 110.2,183.4 110.2,182.8 			"/>
			<path class="st65" d="M254.1,182.8c-4.7,21.6-15.4,41-30.3,56.4c-0.9,1-1.8,1.9-2.8,2.8c-21,20.5-49.6,33-81.2,33.3v-29.7
				c23.4-0.2,44.6-9.5,60.2-24.4c0.9-1,1.8-1.8,2.8-2.8c9.4-9.8,16.6-21.9,20.7-35.4H189v-25.7h67.8"/>
		</g>
		<rect x="189.1" y="157.3" class="st65" width="100.7" height="25.6"/>
	</g>
	<g>
		<g>
			<path class="st66" d="M221.4,72l-21.1,21.1c-15.8-15.1-37-24.3-60.6-24.5H139c-10.2,0-19.9,1.7-29,4.8
				c-11.2,4-21.3,9.9-29.9,17.5c-0.9,0.8-1.6,1.5-2.4,2.2c-0.9,1-1.8,1.9-2.8,2.8c-15.2,16-24.5,37.5-24.5,61.4v78.6
				c-13.1-14.8-22.6-32.9-27-52.9c-1.8-8.3-2.8-16.9-2.8-25.7c0-30.2,11.3-57.7,29.8-78.5c1.2-1.3,2.4-2.6,3.5-3.9
				c1-1,1.8-1.9,2.8-2.8c7-6.8,15-12.7,23.4-17.5c9.3-5.5,19.3-9.6,29.9-12.2c9.4-2.4,19-3.7,29-3.7h0.8
				C171.5,39,200.3,51.5,221.4,72z"/>
			<polygon class="st66" points="110.4,183 109.9,183.5 109.9,183 			"/>
			<polygon class="st66" points="110.4,183 109.9,183.5 109.9,183 			"/>
			<polygon class="st66" points="110.4,183 109.9,183.5 109.9,183 			"/>
			<path class="st66" d="M109.9,157.3H168V183h-58.1v89.3c-10.6-2.6-20.8-6.7-29.9-12.2V157.3c0-15.6,6-29.7,16-40.1
				c0.8-1,1.7-1.9,2.8-2.8c3.3-3.3,7-6,11.1-8.2c8.5-4.9,18.5-7.6,29-7.6h0.8c15.2,0.2,29,6.1,39.4,15.9l-21.2,21.2
				c-4.9-4.4-11.2-7-18.2-7.2H139c-7.2,0-13.9,2.7-18.9,7.2c-1.1,0.8-2,1.7-2.8,2.8C112.6,143.4,109.9,150.1,109.9,157.3z"/>
			<polygon class="st66" points="110.4,183 109.9,183.5 109.9,183 			"/>
			<path class="st67" d="M254.7,183c-4.7,21.7-15.5,41.2-30.4,56.7c-0.9,1-1.8,1.9-2.8,2.8c-21.1,20.7-49.9,33.2-81.6,33.5v-30
				c23.6-0.2,44.9-9.6,60.6-24.5c0.9-1,1.8-1.8,2.8-2.8c9.5-9.9,16.7-22.1,20.9-35.6h-34.7v-25.8h68.2"/>
		</g>
		<rect x="189.3" y="157.3" class="st67" width="101.3" height="25.7"/>
	</g>
	<g>
		<g>
			<path class="st68" d="M221.8,71.5l-21.2,21.2c-15.9-15.1-37.2-24.5-60.9-24.7h-0.8c-10.3,0-20,1.7-29.2,4.9
				c-11.3,4-21.4,10-30.1,17.6c-0.9,0.8-1.6,1.5-2.4,2.2c-0.9,1-1.8,1.9-2.8,2.8c-15.3,16.1-24.7,37.8-24.7,61.8v79.1
				c-13.2-14.9-22.7-33.1-27.2-53.2c-1.8-8.3-2.8-17-2.8-25.9c0-30.4,11.4-58,30-79c1.2-1.3,2.4-2.6,3.6-3.9c1-1,1.8-1.9,2.8-2.8
				c7-6.8,15-12.8,23.6-17.6c9.3-5.5,19.4-9.6,30.1-12.2c9.4-2.4,19.2-3.7,29.2-3.7h0.8C171.6,38.3,200.6,50.9,221.8,71.5z"/>
			<polygon class="st68" points="110.1,183.1 109.7,183.7 109.7,183.1 			"/>
			<polygon class="st68" points="110.1,183.1 109.7,183.7 109.7,183.1 			"/>
			<polygon class="st68" points="110.1,183.1 109.7,183.7 109.7,183.1 			"/>
			<path class="st68" d="M109.7,157.3h58.4v25.9h-58.4V273c-10.7-2.6-20.9-6.7-30.1-12.2V157.4c0-15.7,6.1-29.9,16.1-40.4
				c0.8-1,1.7-1.9,2.8-2.8c3.4-3.4,7-6.1,11.1-8.2c8.5-5,18.6-7.7,29.2-7.7h0.8c15.3,0.2,29.2,6.2,39.6,16l-21.3,21.3
				c-5-4.4-11.3-7-18.3-7.2h-0.8c-7.2,0-14,2.7-19,7.2c-1.1,0.8-2.1,1.7-2.8,2.8C112.4,143.3,109.7,150,109.7,157.3z"/>
			<polygon class="st68" points="110.1,183.1 109.7,183.7 109.7,183.1 			"/>
			<path class="st69" d="M255.3,183.1c-4.8,21.9-15.6,41.4-30.6,57c-0.9,1-1.8,1.9-2.8,2.8c-21.2,20.8-50.2,33.4-82.1,33.7v-30.1
				c23.7-0.2,45.1-9.6,60.9-24.7c0.9-1,1.8-1.8,2.8-2.8c9.5-10,16.8-22.2,21-35.8h-34.9v-26h68.6"/>
		</g>
		<rect x="189.5" y="157.3" class="st69" width="101.9" height="25.9"/>
	</g>
	<g>
		<g>
			<path class="st70" d="M222.2,71l-21.3,21.3c-16-15.2-37.4-24.6-61.3-24.8h-0.8c-10.3,0-20.1,1.7-29.4,4.9
				c-11.3,4-21.5,10-30.3,17.7c-0.9,0.8-1.6,1.5-2.4,2.2c-0.9,1-1.9,2-2.8,2.8c-15.3,16.2-24.8,38-24.8,62.1v79.6
				c-13.3-15-22.9-33.3-27.3-53.5c-1.9-8.4-2.8-17.1-2.8-26c0-30.6,11.4-58.3,30.1-79.5c1.2-1.3,2.4-2.6,3.6-3.9c1-1,1.9-2,2.8-2.8
				c7.1-6.9,15.1-12.8,23.7-17.7c9.4-5.6,19.5-9.7,30.3-12.3c9.5-2.4,19.3-3.7,29.4-3.7h0.8C171.7,37.6,200.8,50.3,222.2,71z"/>
			<polygon class="st70" points="109.8,183.3 109.4,183.8 109.4,183.3 			"/>
			<polygon class="st70" points="109.8,183.3 109.4,183.8 109.4,183.3 			"/>
			<polygon class="st70" points="109.8,183.3 109.4,183.8 109.4,183.3 			"/>
			<path class="st70" d="M109.4,157.3h58.8v26h-58.8v90.3c-10.8-2.6-21-6.7-30.3-12.3v-104c0-15.8,6.1-30,16.2-40.6
				c0.8-1,1.7-2,2.8-2.8c3.4-3.4,7.1-6.1,11.2-8.3c8.6-5,18.7-7.7,29.4-7.7h0.8c15.3,0.2,29.4,6.2,39.8,16.1l-21.4,21.4
				c-5-4.5-11.3-7.1-18.4-7.3h-0.8c-7.3,0-14,2.7-19.2,7.3c-1.1,0.8-2.1,1.7-2.8,2.8C112.1,143.2,109.4,150,109.4,157.3z"/>
			<polygon class="st70" points="109.8,183.3 109.4,183.8 109.4,183.3 			"/>
			<path class="st71" d="M255.9,183.3c-4.8,22-15.7,41.7-30.8,57.4c-0.9,1-1.9,2-2.8,2.8c-21.3,20.9-50.5,33.6-82.6,33.8V247
				c23.8-0.2,45.4-9.7,61.3-24.8c0.9-1,1.9-1.9,2.8-2.8c9.6-10,16.9-22.3,21.1-36h-35.2v-26.1h69"/>
		</g>
		<rect x="189.7" y="157.3" class="st71" width="102.5" height="26"/>
	</g>
	<g>
		<g>
			<path class="st72" d="M222.5,70.5L201,92c-16.1-15.3-37.7-24.7-61.6-25h-0.8c-10.4,0-20.3,1.8-29.6,4.9
				c-11.3,4-21.5,10.1-30.3,17.8c-0.9,0.8-1.6,1.5-2.4,2.2c-0.9,1-1.9,2-2.8,2.8c-15.4,16.3-25,38.2-25,62.5v80
				c-13.4-15.1-23-33.5-27.5-53.9c-1.9-8.4-2.8-17.2-2.8-26.2c0-30.8,11.5-58.7,30.3-79.9c1.2-1.3,2.4-2.6,3.6-3.9
				c1-1,1.9-2,2.8-2.8c7.1-6.9,15.2-12.9,23.9-17.8c9.4-5.6,19.6-9.7,30.4-12.4c9.5-2.4,19.4-3.7,29.6-3.7h0.8
				C171.7,36.9,201.1,49.7,222.5,70.5z"/>
			<polygon class="st72" points="109.6,183.4 109.1,184 109.1,183.4 			"/>
			<polygon class="st72" points="109.6,183.4 109.1,184 109.1,183.4 			"/>
			<polygon class="st72" points="109.6,183.4 109.1,184 109.1,183.4 			"/>
			<path class="st72" d="M109.1,157.3h59.1v26.2h-59.1v90.9c-10.8-2.6-21.1-6.8-30.4-12.4V157.3c0-15.9,6.1-30.2,16.3-40.8
				c0.8-1,1.8-2,2.8-2.8c3.4-3.4,7.1-6.1,11.3-8.3c8.6-5,18.8-7.8,29.6-7.8h0.8c15.4,0.2,29.6,6.2,40.1,16.2L158,135.3
				c-5-4.5-11.4-7.1-18.5-7.3h-0.8c-7.3,0-14.1,2.7-19.3,7.3c-1.1,0.8-2.1,1.8-2.8,2.8C111.9,143.2,109.1,149.9,109.1,157.3z"/>
			<polygon class="st72" points="109.6,183.4 109.1,184 109.1,183.4 			"/>
			<path class="st73" d="M256.5,183.4c-4.8,22.1-15.8,41.9-31,57.7c-0.9,1-1.9,2-2.8,2.8c-21.5,21-50.8,33.8-83.1,34v-30.4
				c24-0.2,45.6-9.7,61.6-25c0.9-1,1.9-1.9,2.8-2.8c9.6-10.1,17-22.4,21.2-36.2h-35.4v-26.3h69.4"/>
		</g>
		<rect x="189.9" y="157.3" class="st73" width="103.1" height="26.2"/>
	</g>
	<g>
		<g>
			<path class="st74" d="M222.9,70l-21.6,21.6c-16.2-15.4-37.9-24.9-62-25.1h-0.8c-10.5,0-20.4,1.8-29.7,5
				C97.3,75.6,87,81.6,78.2,89.4c-0.9,0.8-1.7,1.5-2.4,2.2c-0.9,1-1.9,2-2.9,2.9c-15.5,16.4-25.1,38.4-25.1,62.9v80.5
				c-13.4-15.2-23.1-33.7-27.6-54.2c-1.9-8.5-2.9-17.3-2.9-26.3c0-30.9,11.6-59,30.5-80.4c1.2-1.3,2.4-2.6,3.6-4c1-1,1.9-2,2.9-2.9
				c7.2-6.9,15.3-13,24-17.9c9.5-5.6,19.7-9.8,30.6-12.4c9.6-2.4,19.5-3.7,29.7-3.7h0.8C171.8,36.2,201.3,49,222.9,70z"/>
			<polygon class="st74" points="109.3,183.6 108.9,184.1 108.9,183.6 			"/>
			<polygon class="st74" points="109.3,183.6 108.9,184.1 108.9,183.6 			"/>
			<polygon class="st74" points="109.3,183.6 108.9,184.1 108.9,183.6 			"/>
			<path class="st74" d="M108.9,157.3h59.5v26.3h-59.5V275c-10.9-2.6-21.3-6.8-30.6-12.4V157.3c0-16,6.2-30.4,16.4-41.1
				c0.8-1,1.8-2,2.9-2.9c3.4-3.4,7.2-6.2,11.3-8.4c8.7-5.1,18.9-7.8,29.7-7.8h0.8c15.5,0.2,29.7,6.3,40.3,16.3L158,135.1
				c-5.1-4.5-11.5-7.2-18.6-7.4h-0.8c-7.4,0-14.2,2.8-19.4,7.4c-1.1,0.8-2.1,1.8-2.9,2.9C111.6,143.1,108.9,149.9,108.9,157.3z"/>
			<polygon class="st74" points="109.3,183.6 108.9,184.1 108.9,183.6 			"/>
			<path class="st75" d="M257.1,183.6c-4.8,22.2-15.9,42.2-31.2,58c-0.9,1-1.9,2-2.9,2.9c-21.6,21.1-51.1,34-83.6,34.2v-30.6
				c24.1-0.2,45.9-9.8,62-25.1c0.9-1,1.9-1.9,2.9-2.9c9.7-10.1,17.1-22.6,21.4-36.4h-35.6v-26.4h69.8"/>
		</g>
		<rect x="190.1" y="157.3" class="st75" width="103.7" height="26.3"/>
	</g>
	<g>
		<g>
			<path class="st76" d="M223.3,69.5l-21.7,21.7c-16.3-15.5-38.1-25-62.3-25.2h-0.8c-10.5,0-20.5,1.8-29.9,5
				c-11.5,4-21.9,10.1-30.8,17.9c-0.9,0.8-1.7,1.6-2.4,2.2c-0.9,1-1.9,2-2.9,2.9c-15.6,16.5-25.2,38.6-25.2,63.2v81
				c-13.5-15.3-23.3-33.9-27.8-54.5c-1.9-8.5-2.9-17.4-2.9-26.5c0-31.1,11.6-59.4,30.7-80.8c1.2-1.3,2.4-2.7,3.7-4
				c1-1,1.9-2,2.9-2.9c7.2-7,15.4-13.1,24.1-18.1c9.5-5.6,19.8-9.9,30.8-12.5c9.6-2.4,19.6-3.8,29.9-3.8h0.8
				C171.9,35.5,201.6,48.4,223.3,69.5z"/>
			<polygon class="st76" points="109,183.7 108.6,184.3 108.6,183.7 			"/>
			<polygon class="st76" points="109,183.7 108.6,184.3 108.6,183.7 			"/>
			<polygon class="st76" points="109,183.7 108.6,184.3 108.6,183.7 			"/>
			<path class="st76" d="M108.6,157.3h59.8v26.5h-59.8v91.9c-11-2.7-21.4-6.9-30.8-12.5V157.3c0-16.1,6.2-30.6,16.5-41.3
				c0.8-1,1.8-2,2.9-2.9c3.4-3.4,7.2-6.2,11.4-8.4c8.7-5.1,19-7.9,29.9-7.9h0.8c15.6,0.2,29.9,6.3,40.5,16.4L158,135
				c-5.1-4.5-11.5-7.2-18.7-7.4h-0.8c-7.4,0-14.3,2.8-19.5,7.4c-1.1,0.8-2.1,1.8-2.9,2.9C111.4,143,108.6,149.9,108.6,157.3z"/>
			<polygon class="st76" points="109,183.7 108.6,184.3 108.6,183.7 			"/>
			<path class="st77" d="M257.6,183.7c-4.9,22.4-15.9,42.4-31.3,58.4c-0.9,1-1.9,2-2.9,2.9c-21.7,21.3-51.4,34.2-84.1,34.4v-30.8
				c24.3-0.2,46.2-9.9,62.3-25.2c0.9-1,1.9-1.9,2.9-2.9c9.7-10.2,17.2-22.7,21.5-36.7h-35.8v-26.6h70.2"/>
		</g>
		<rect x="190.3" y="157.3" class="st77" width="104.3" height="26.5"/>
	</g>
	<g>
		<g>
			<path class="st78" d="M223.7,69l-21.8,21.8c-16.4-15.6-38.3-25.2-62.7-25.4h-0.8c-10.6,0-20.6,1.8-30.1,5
				c-11.6,4.1-22.1,10.2-31,18.2c-0.9,0.8-1.7,1.6-2.5,2.2c-0.9,1-1.9,2-2.9,2.9c-15.7,16.6-25.4,38.9-25.4,63.6v81.4
				c-13.6-15.4-23.4-34.1-28-54.8c-1.9-8.6-2.9-17.5-2.9-26.6c0-31.3,11.7-59.7,30.9-81.3c1.2-1.3,2.5-2.7,3.7-4c1-1,1.9-2,2.9-2.9
				c7.2-7,15.5-13.1,24.3-18.2c9.6-5.7,19.9-9.9,31-12.6c9.7-2.5,19.7-3.8,30.1-3.8h0.8C172,34.8,201.9,47.8,223.7,69z"/>
			<polygon class="st78" points="108.8,183.9 108.3,184.5 108.3,183.9 			"/>
			<polygon class="st78" points="108.8,183.9 108.3,184.5 108.3,183.9 			"/>
			<polygon class="st78" points="108.8,183.9 108.3,184.5 108.3,183.9 			"/>
			<path class="st78" d="M108.3,157.3h60.1v26.6h-60.1v92.4c-11-2.7-21.5-6.9-31-12.6V157.2c0-16.1,6.2-30.7,16.6-41.5
				c0.8-1,1.8-2,2.9-2.9c3.5-3.5,7.2-6.2,11.5-8.5c8.8-5.1,19.2-7.9,30.1-7.9h0.8c15.7,0.2,30.1,6.3,40.8,16.5l-22,22
				c-5.1-4.6-11.6-7.2-18.8-7.5h-0.8c-7.5,0-14.4,2.8-19.6,7.5c-1.1,0.8-2.1,1.8-2.9,2.9C111.1,142.9,108.3,149.8,108.3,157.3z"/>
			<polygon class="st78" points="108.8,183.9 108.3,184.5 108.3,183.9 			"/>
			<path class="st79" d="M258.2,183.9c-4.9,22.5-16,42.7-31.5,58.7c-0.9,1-1.9,2-2.9,2.9c-21.8,21.4-51.7,34.4-84.5,34.6v-31
				c24.4-0.2,46.4-9.9,62.7-25.4c0.9-1,1.9-1.9,2.9-2.9c9.8-10.2,17.3-22.8,21.6-36.9h-36v-26.7h70.6"/>
		</g>
		<rect x="190.5" y="157.3" class="st79" width="104.9" height="26.6"/>
	</g>
	<g>
		<g>
			<path class="st80" d="M224.1,68.4l-22,22c-16.5-15.7-38.5-25.3-63.1-25.5h-0.8c-10.6,0-20.7,1.8-30.2,5
				C96.4,74,85.8,80.2,76.9,88.2c-0.9,0.8-1.7,1.6-2.5,2.2c-0.9,1-1.9,2-2.9,2.9C55.7,110,46,132.4,46,157.3v81.9
				c-13.7-15.5-23.5-34.3-28.1-55.1c-1.9-8.6-2.9-17.6-2.9-26.8c0-31.5,11.8-60,31-81.8c1.2-1.3,2.5-2.7,3.7-4c1-1,1.9-2,2.9-2.9
				c7.3-7.1,15.6-13.2,24.4-18.3c9.6-5.7,20.1-10,31.1-12.7c9.7-2.5,19.8-3.8,30.2-3.8h0.8C172.1,34.1,202.1,47.2,224.1,68.4z"/>
			<polygon class="st80" points="108.5,184 108,184.6 108,184 			"/>
			<polygon class="st80" points="108.5,184 108,184.6 108,184 			"/>
			<polygon class="st80" points="108.5,184 108,184.6 108,184 			"/>
			<path class="st80" d="M108,157.3h60.5V184H108v93c-11.1-2.7-21.6-6.9-31.1-12.7V157.2c0-16.2,6.3-30.9,16.7-41.8
				c0.8-1,1.8-2,2.9-2.9c3.5-3.5,7.3-6.3,11.5-8.5c8.8-5.2,19.3-8,30.2-8h0.8c15.8,0.2,30.2,6.4,41,16.6l-22,22.2
				c-5.2-4.6-11.6-7.3-18.9-7.5h-0.8c-7.5,0-14.4,2.8-19.7,7.5c-1.1,0.8-2.1,1.8-2.9,2.9C110.8,142.8,108,149.8,108,157.3z"/>
			<polygon class="st80" points="108.5,184 108,184.6 108,184 			"/>
			<path class="st81" d="M258.8,184c-4.9,22.6-16.1,42.9-31.7,59c-0.9,1-1.9,2-2.9,2.9c-22,21.5-52,34.6-85,34.8v-31.1
				c24.5-0.2,46.7-10,63.1-25.5c0.9-1,1.9-1.9,2.9-2.9c9.9-10.3,17.4-23,21.7-37.1h-36.2v-26.9h71"/>
		</g>
		<rect x="190.7" y="157.3" class="st81" width="105.5" height="26.8"/>
	</g>
	<g>
		<g>
			<path class="st82" d="M224.5,67.9L202.4,90c-16.6-15.8-38.8-25.5-63.4-25.7h-0.8c-10.7,0-20.8,1.8-30.4,5.1
				c-11.7,4.2-22.3,10.4-31.3,18.4c-0.9,0.8-1.7,1.6-2.5,2.3c-0.9,1-1.9,2-2.9,2.9c-15.9,16.8-25.7,39.3-25.7,64.3v82.3
				c-13.7-15.5-23.7-34.5-28.3-55.4c-1.9-8.7-2.9-17.7-2.9-26.9c0-31.7,11.8-60.4,31.2-82.2c1.2-1.4,2.5-2.7,3.7-4.1
				c1-1,1.9-2,2.9-2.9c7.3-7.1,15.7-13.3,24.6-18.4c9.7-5.7,20.2-10,31.3-12.7c9.8-2.5,19.9-3.8,30.4-3.8h0.8
				C172.2,33.4,202.4,46.5,224.5,67.9z"/>
			<polygon class="st82" points="108.2,184.2 107.8,184.8 107.8,184.2 			"/>
			<polygon class="st82" points="108.2,184.2 107.8,184.8 107.8,184.2 			"/>
			<polygon class="st82" points="108.2,184.2 107.8,184.8 107.8,184.2 			"/>
			<path class="st82" d="M107.8,157.3h60.8v26.9h-60.8v93.5c-11.2-2.7-21.7-7-31.3-12.7V157.3c0-16.3,6.3-31.1,16.8-42
				c0.8-1,1.8-2,2.9-2.9c3.5-3.5,7.3-6.3,11.6-8.6c8.9-5.2,19.4-8,30.4-8h0.8c15.9,0.2,30.4,6.4,41.2,16.7L158,134.6
				c-5.2-4.6-11.7-7.3-19-7.5h-0.8c-7.5,0-14.5,2.8-19.8,7.5c-1.1,0.8-2.1,1.8-2.9,2.9C110.6,142.7,107.8,149.7,107.8,157.3z"/>
			<polygon class="st82" points="108.2,184.2 107.8,184.8 107.8,184.2 			"/>
			<path class="st83" d="M259.4,184.2c-5,22.8-16.2,43.1-31.9,59.4c-0.9,1-1.9,2-2.9,2.9c-22.1,21.6-52.3,34.8-85.5,35v-31.3
				c24.7-0.2,47-10,63.4-25.7c0.9-1,1.9-1.9,2.9-2.9c9.9-10.4,17.5-23.1,21.9-37.3h-36.4v-27h71.4"/>
		</g>
		<rect x="190.9" y="157.3" class="st83" width="106.1" height="26.9"/>
	</g>
	<g>
		<g>
			<path class="st84" d="M224.9,67.4l-22.2,22.2c-16.7-15.9-39-25.6-63.8-25.8h-0.8c-10.8,0-21,1.8-30.6,5.1
				C95.7,73.1,85.1,79.3,76,87.4c-0.9,0.8-1.7,1.6-2.5,2.3c-0.9,1-1.9,2-2.9,2.9c-16,16.9-25.8,39.5-25.8,64.7v82.8
				C31,224.5,21,205.4,16.4,184.4c-1.9-8.7-2.9-17.8-2.9-27.1c0-31.8,11.9-60.7,31.4-82.7c1.2-1.4,2.5-2.7,3.7-4.1
				c1-1,1.9-2,2.9-2.9c7.4-7.1,15.7-13.4,24.7-18.5c9.7-5.8,20.3-10.1,31.5-12.8c9.9-2.5,20.1-3.9,30.6-3.9h0.8
				C172.3,32.7,202.7,45.9,224.9,67.4z"/>
			<polygon class="st84" points="108,184.3 107.5,184.9 107.5,184.3 			"/>
			<polygon class="st84" points="108,184.3 107.5,184.9 107.5,184.3 			"/>
			<polygon class="st84" points="108,184.3 107.5,184.9 107.5,184.3 			"/>
			<path class="st84" d="M107.5,157.3h61.2v27.1h-61.2v94c-11.2-2.7-21.9-7-31.5-12.8V157.3c0-16.4,6.3-31.3,16.9-42.3
				c0.8-1,1.8-2,2.9-2.9c3.5-3.5,7.4-6.3,11.7-8.6c8.9-5.2,19.5-8,30.6-8h0.8c16,0.2,30.6,6.5,41.5,16.8L158,134.5
				c-5.2-4.6-11.8-7.4-19.1-7.6h-0.8c-7.6,0-14.6,2.8-19.9,7.6c-1.1,0.8-2.2,1.8-2.9,2.9C110.3,142.7,107.5,149.7,107.5,157.3z"/>
			<polygon class="st84" points="108,184.3 107.5,184.9 107.5,184.3 			"/>
			<path class="st85" d="M260,184.3c-5,22.9-16.3,43.4-32.1,59.7c-0.9,1-1.9,2-2.9,2.9c-22.2,21.7-52.6,35-86,35.2v-31.5
				c24.8-0.2,47.2-10.1,63.8-25.8c0.9-1,1.9-1.9,2.9-2.9c10-10.4,17.6-23.2,22-37.5h-36.6v-27.2h71.8"/>
		</g>
		<rect x="191.1" y="157.3" class="st85" width="106.7" height="27.1"/>
	</g>
	<g>
		<g>
			<path class="st86" d="M225.3,66.9L203,89.2c-16.7-15.9-39.2-25.7-64.1-26H138c-10.8,0-21.1,1.8-30.8,5.1
				C95.4,72.6,84.7,78.9,75.6,87c-0.9,0.8-1.7,1.6-2.5,2.3c-0.9,1-1.9,2.1-3,3c-16.1,17-26,39.8-26,65v83.3
				c-13.9-15.7-23.9-34.9-28.6-56c-1.9-8.8-3-17.9-3-27.2c0-32,12-61.1,31.6-83.2c1.3-1.4,2.5-2.7,3.8-4.1c1-1,1.9-2.1,3-3
				c7.4-7.2,15.8-13.4,24.8-18.6c9.8-5.8,20.4-10.1,31.7-12.9c9.9-2.5,20.2-3.9,30.8-3.9h0.8C172.4,32,202.9,45.3,225.3,66.9z"/>
			<polygon class="st86" points="107.7,184.5 107.2,185.1 107.2,184.5 			"/>
			<polygon class="st86" points="107.7,184.5 107.2,185.1 107.2,184.5 			"/>
			<polygon class="st86" points="107.7,184.5 107.2,185.1 107.2,184.5 			"/>
			<path class="st86" d="M107.2,157.3h61.5v27.2h-61.5v94.6c-11.3-2.7-22-7.1-31.7-12.9V157.3c0-16.5,6.4-31.4,17-42.5
				c0.8-1,1.8-2.1,3-3c3.5-3.5,7.4-6.4,11.7-8.7c9-5.2,19.6-8.1,30.8-8.1h0.8c16.1,0.2,30.8,6.5,41.7,16.9L158,134.4
				c-5.2-4.7-11.8-7.4-19.3-7.6H138c-7.6,0-14.7,2.8-20,7.6c-1.1,0.8-2.2,1.8-3,3C110.1,142.6,107.2,149.6,107.2,157.3z"/>
			<polygon class="st86" points="107.7,184.5 107.2,185.1 107.2,184.5 			"/>
			<path class="st87" d="M260.6,184.5c-5,23-16.4,43.6-32.2,60c-0.9,1-1.9,2.1-3,3c-22.3,21.9-52.9,35.2-86.5,35.4v-31.7
				c24.9-0.2,47.5-10.1,64.1-26c0.9-1,1.9-1.9,3-3c10-10.5,17.7-23.4,22.1-37.7h-36.8v-27.3h72.2"/>
		</g>
		<rect x="191.3" y="157.3" class="st87" width="107.3" height="27.3"/>
	</g>
	<g>
		<g>
			<path class="st88" d="M225.6,66.4l-22.5,22.5c-16.8-16-39.4-25.9-64.5-26.1h-0.8c-10.9,0-21.2,1.8-30.9,5.2
				C95,72.2,84.2,78.5,75.1,86.7c-0.9,0.8-1.7,1.6-2.5,2.3c-0.9,1-1.9,2.1-3,3c-16.2,17.1-26.1,40-26.1,65.4v83.7
				c-14-15.8-24.1-35.1-28.8-56.4c-1.9-8.8-3-18-3-27.4c0-32.2,12-61.4,31.7-83.6c1.3-1.4,2.5-2.7,3.8-4.1c1-1,1.9-2.1,3-3
				c7.4-7.2,15.9-13.5,25-18.7C85.1,42.1,95.7,37.7,107,35c10-2.5,20.3-3.9,30.9-3.9h0.8C172.5,31.3,203.2,44.7,225.6,66.4z"/>
			<polygon class="st88" points="107.4,184.7 107,185.2 107,184.7 			"/>
			<polygon class="st88" points="107.4,184.7 107,185.2 107,184.7 			"/>
			<polygon class="st88" points="107.4,184.7 107,185.2 107,184.7 			"/>
			<path class="st88" d="M107,157.3h61.9v27.4H107v95.1c-11.3-2.7-22.1-7.1-31.8-12.9V157.4c0-16.6,6.4-31.6,17.1-42.7
				c0.8-1,1.8-2.1,3-3c3.6-3.6,7.4-6.4,11.8-8.7c9-5.3,19.7-8.1,30.9-8.1h0.8c16.2,0.2,30.9,6.5,41.9,17l-22.6,22.6
				c-5.3-4.7-11.9-7.4-19.4-7.7h-0.8c-7.7,0-14.8,2.9-20.2,7.7c-1.1,0.8-2.2,1.8-3,3C109.8,142.5,107,149.6,107,157.3z"/>
			<polygon class="st88" points="107.4,184.7 107,185.2 107,184.7 			"/>
			<path class="st89" d="M261.2,184.7c-5,23.1-16.5,43.9-32.4,60.4c-0.9,1-1.9,2.1-3,3c-22.5,22-53.2,35.4-86.9,35.6v-31.8
				c25.1-0.2,47.8-10.2,64.5-26.1c0.9-1,1.9-1.9,3-3c10.1-10.5,17.8-23.5,22.2-37.9h-37v-27.5h72.6"/>
		</g>
		<rect x="191.5" y="157.3" class="st89" width="107.9" height="27.4"/>
	</g>
	<g>
		<g>
			<path class="st90" d="M226,65.9l-22.6,22.6c-16.9-16.1-39.6-26-64.8-26.3h-0.8c-10.9,0-21.3,1.8-31.1,5.2
				c-12,4.3-22.8,10.6-32,18.8c-0.9,0.8-1.7,1.6-2.5,2.3c-0.9,1-2,2.1-3,3c-16.2,17.2-26.3,40.2-26.3,65.8v84.2
				c-14.1-15.9-24.2-35.2-28.9-56.7c-2-8.9-3-18.1-3-27.5c0-32.4,12.1-61.7,31.9-84.1c1.3-1.4,2.5-2.8,3.8-4.1c1-1,2-2.1,3-3
				c7.5-7.3,16-13.6,25.1-18.8c9.9-5.9,20.6-10.3,32-13c10-2.5,20.4-3.9,31.1-3.9h0.8C172.6,30.6,203.5,44,226,65.9z"/>
			<polygon class="st90" points="107.2,184.8 106.7,185.4 106.7,184.8 			"/>
			<polygon class="st90" points="107.2,184.8 106.7,185.4 106.7,184.8 			"/>
			<polygon class="st90" points="107.2,184.8 106.7,185.4 106.7,184.8 			"/>
			<path class="st90" d="M106.7,157.3h62.2v27.5h-62.2v95.6c-11.4-2.8-22.2-7.1-32-13V157.3c0-16.7,6.5-31.8,17.2-43
				c0.8-1,1.8-2.1,3-3c3.6-3.6,7.5-6.5,11.9-8.8c9.1-5.3,19.8-8.2,31.1-8.2h0.8c16.2,0.2,31.1,6.6,42.2,17L158.2,134
				c-5.3-4.7-12-7.5-19.5-7.7h-0.8c-7.7,0-14.9,2.9-20.3,7.7c-1.2,0.8-2.2,1.8-3,3C109.6,142.4,106.7,149.6,106.7,157.3z"/>
			<polygon class="st90" points="107.2,184.8 106.7,185.4 106.7,184.8 			"/>
			<path class="st91" d="M261.7,184.8c-5.1,23.3-16.6,44.1-32.6,60.7c-0.9,1-2,2.1-3,3c-22.6,22.1-53.4,35.6-87.4,35.8v-32
				c25.2-0.2,48-10.3,64.8-26.3c0.9-1,2-2,3-3c10.1-10.6,17.9-23.6,22.3-38.1h-37.2v-27.6h73"/>
		</g>
		<rect x="191.7" y="157.3" class="st91" width="108.5" height="27.6"/>
	</g>
	<g>
		<g>
			<path class="st92" d="M226.4,65.4l-22.7,22.7c-17-16.2-39.8-26.2-65.2-26.4h-0.8c-11,0-21.4,1.9-31.3,5.2
				c-12,4.3-22.9,10.7-32.2,18.9c-0.9,0.8-1.7,1.6-2.5,2.3c-0.9,1-2,2.1-3,3c-16.3,17.3-26.4,40.4-26.4,66.1v84.7
				c-14.1-16-24.3-35.4-29.1-57c-2-8.9-3-18.2-3-27.7c0-32.5,12.2-62.1,32.1-84.5c1.3-1.4,2.5-2.8,3.8-4.2c1-1,2-2.1,3-3
				c7.5-7.3,16.1-13.7,25.2-18.9c10-5.9,20.7-10.3,32.2-13.1c10.1-2.5,20.5-3.9,31.3-3.9h0.8C172.7,29.9,203.7,43.4,226.4,65.4z"/>
			<polygon class="st92" points="106.9,185 106.4,185.5 106.4,185 			"/>
			<polygon class="st92" points="106.9,185 106.4,185.5 106.4,185 			"/>
			<polygon class="st92" points="106.9,185 106.4,185.5 106.4,185 			"/>
			<path class="st92" d="M106.4,157.3h62.5V185h-62.5v96.1c-11.5-2.8-22.4-7.2-32.2-13.1V157.3c0-16.8,6.5-32,17.3-43.2
				c0.8-1,1.9-2.1,3-3c3.6-3.6,7.5-6.5,11.9-8.8c9.1-5.3,19.9-8.2,31.3-8.2h0.8c16.3,0.2,31.3,6.6,42.4,17.1L158.1,134
				c-5.3-4.7-12-7.5-19.6-7.8h-0.8c-7.8,0-14.9,2.9-20.4,7.8c-1.2,0.8-2.2,1.9-3,3C109.3,142.3,106.4,149.5,106.4,157.3z"/>
			<polygon class="st92" points="106.9,185 106.4,185.5 106.4,185 			"/>
			<path class="st93" d="M262.3,185c-5.1,23.4-16.7,44.4-32.8,61c-0.9,1-2,2.1-3,3c-22.7,22.2-53.7,35.8-87.9,36v-32.2
				c25.4-0.2,48.3-10.3,65.2-26.4c0.9-1,2-2,3-3c10.2-10.7,18-23.7,22.5-38.3h-37.4v-27.8h73.4"/>
		</g>
		<rect x="191.9" y="157.3" class="st93" width="109.1" height="27.7"/>
	</g>
	<g>
		<g>
			<path class="st94" d="M226.8,64.9L204,87.7c-17.1-16.3-40.1-26.3-65.6-26.6h-0.8c-11.1,0-21.5,1.9-31.4,5.2
				c-12.1,4.3-23.1,10.7-32.4,19c-0.9,0.8-1.7,1.6-2.6,2.3c-0.9,1-2,2.1-3,3c-16.4,17.4-26.6,40.6-26.6,66.5v85.1
				c-14.2-16.1-24.5-35.6-29.2-57.3c-2-9-3-18.3-3-27.8c0-32.7,12.2-62.4,32.3-85c1.3-1.4,2.6-2.8,3.8-4.2c1-1,2-2.1,3-3
				c7.6-7.3,16.2-13.7,25.4-19c10-5.9,20.8-10.4,32.4-13.2c10.1-2.6,20.6-4,31.4-4h0.8C172.8,29.2,204,42.8,226.8,64.9z"/>
			<polygon class="st94" points="106.6,185.1 106.2,185.7 106.2,185.1 			"/>
			<polygon class="st94" points="106.6,185.1 106.2,185.7 106.2,185.1 			"/>
			<polygon class="st94" points="106.6,185.1 106.2,185.7 106.2,185.1 			"/>
			<path class="st94" d="M106.2,157.3h62.9v27.8h-62.9v96.7c-11.5-2.8-22.5-7.2-32.4-13.2V157.3c0-16.9,6.5-32.1,17.4-43.4
				c0.8-1,1.9-2.1,3-3c3.6-3.6,7.6-6.5,12-8.9c9.2-5.4,20-8.3,31.4-8.3h0.8c16.4,0.2,31.4,6.6,42.6,17.2l-22.9,22.9
				c-5.4-4.8-12.1-7.6-19.7-7.8h-0.8c-7.8,0-15,2.9-20.5,7.8c-1.2,0.8-2.2,1.9-3,3C109.1,142.2,106.2,149.5,106.2,157.3z"/>
			<polygon class="st94" points="106.6,185.1 106.2,185.7 106.2,185.1 			"/>
			<path class="st95" d="M262.9,185.1c-5.1,23.5-16.8,44.6-33,61.4c-0.9,1-2,2.1-3,3c-22.8,22.4-54,36-88.4,36.2v-32.4
				c25.5-0.2,48.6-10.4,65.6-26.6c0.9-1,2-2,3-3c10.2-10.7,18.1-23.9,22.6-38.5h-37.6v-27.9h73.8"/>
		</g>
		<rect x="192.1" y="157.3" class="st95" width="109.7" height="27.9"/>
	</g>
	<g>
		<g>
			<path class="st96" d="M227.2,64.4l-22.9,22.9C187,71,164,60.9,138.3,60.7h-0.8c-11.1,0-21.7,1.9-31.6,5.3
				c-12.2,4.3-23.2,10.7-32.6,19c-0.9,0.8-1.8,1.6-2.6,2.3c-0.9,1.1-2,2.1-3,3c-16.5,17.6-26.7,41-26.7,67v85.6
				c-14.3-16.2-24.6-35.8-29.4-57.6c-2-9-3-18.4-3-28c0-32.9,12.3-62.8,32.4-85.5c1.3-1.4,2.6-2.8,3.9-4.2c1.1-1.1,2-2.1,3-3
				c7.6-7.4,16.3-13.8,25.5-19.1c10.1-6,21-10.4,32.6-13.2c10.2-2.6,20.7-4,31.6-4h0.8C172.9,28.5,204.2,42.2,227.2,64.4z"/>
			<polygon class="st96" points="106.4,185.3 105.9,185.8 105.9,185.3 			"/>
			<polygon class="st96" points="106.4,185.3 105.9,185.8 105.9,185.3 			"/>
			<polygon class="st96" points="106.4,185.3 105.9,185.8 105.9,185.3 			"/>
			<path class="st96" d="M105.9,157.3h63.2v28h-63.2v97.2c-11.6-2.8-22.6-7.3-32.6-13.2V157.4c0-17,6.6-32.3,17.4-43.7
				c0.8-1.1,1.9-2.1,3-3c3.6-3.6,7.6-6.6,12.1-8.9c9.3-5.4,20.1-8.3,31.6-8.3h0.8c16.5,0.2,31.6,6.7,42.9,17.3L158,133.9
				c-5.4-4.8-12.2-7.6-19.8-7.8h-0.8c-7.8,0-15.1,2.9-20.6,7.8c-1.2,0.8-2.2,1.9-3,3C108.8,142.2,105.9,149.4,105.9,157.3z"/>
			<polygon class="st96" points="106.4,185.3 105.9,185.8 105.9,185.3 			"/>
			<path class="st97" d="M263.5,185.3c-5.2,23.7-16.9,44.8-33.1,61.7c-0.9,1.1-2,2.1-3,3c-22.9,22.5-54.3,36.2-88.9,36.4v-32.6
				c25.6-0.2,48.8-10.4,65.9-26.7c0.9-1.1,2-2,3-3c10.3-10.8,18.1-24,22.7-38.8h-37.8v-28.1h74.2"/>
		</g>
		<rect x="192.3" y="157.3" class="st97" width="110.3" height="28"/>
	</g>
	<g>
		<g>
			<path class="st98" d="M227.6,63.9L204.5,87c-17.3-16.5-40.5-26.6-66.3-26.8h-0.8c-11.2,0-21.8,1.9-31.8,5.3
				c-12.2,4.4-23.3,10.8-32.7,19.2c-0.9,0.8-1.8,1.6-2.6,2.4c-0.9,1.1-2,2.1-3.1,3.1c-16.6,17.5-26.8,41.1-26.8,67.2v86.1
				c-14.4-16.2-24.7-36-29.5-57.9c-2-9.1-3.1-18.5-3.1-28.1c0-33.1,12.4-63.1,32.6-85.9c1.3-1.4,2.6-2.8,3.9-4.2
				c1.1-1.1,2-2.1,3.1-3.1C55,56.6,63.7,50.1,73,44.8c10.1-6,21.1-10.5,32.7-13.3c10.2-2.6,20.8-4,31.8-4h0.8
				C173,27.8,204.5,41.5,227.6,63.9z"/>
			<polygon class="st98" points="106.1,185.4 105.6,186 105.6,185.4 			"/>
			<polygon class="st98" points="106.1,185.4 105.6,186 105.6,185.4 			"/>
			<polygon class="st98" points="106.1,185.4 105.6,186 105.6,185.4 			"/>
			<path class="st98" d="M105.6,157.3h63.6v28.1h-63.6v97.7c-11.7-2.8-22.7-7.3-32.7-13.3V157.3c0-17.1,6.6-32.5,17.5-43.9
				c0.8-1.1,1.9-2.1,3.1-3.1c3.6-3.6,7.7-6.6,12.1-8.9c9.3-5.4,20.2-8.4,31.8-8.4h0.8c16.6,0.2,31.8,6.7,43.1,17.4l-23.2,23.2
				c-5.4-4.8-12.2-7.7-19.9-7.9h-0.8c-7.9,0-15.2,2.9-20.7,7.9c-1.2,0.8-2.2,1.9-3.1,3.1C108.6,142.1,105.6,149.4,105.6,157.3z"/>
			<polygon class="st98" points="106.1,185.4 105.6,186 105.6,185.4 			"/>
			<path class="st99" d="M264.1,185.4c-5.2,23.8-17,45.1-33.3,62c-0.9,1.1-2,2.1-3.1,3.1c-23.1,22.6-54.6,36.4-89.4,36.6v-32.7
				c25.8-0.2,49.1-10.5,66.3-26.8c0.9-1.1,2-2,3.1-3.1c10.4-10.8,18.2-24.1,22.8-39h-38v-28.3h74.6"/>
		</g>
		<rect x="192.5" y="157.3" class="st99" width="110.9" height="28.2"/>
	</g>
	<g>
		<g>
			<path class="st100" d="M228,63.4l-23.2,23.2c-17.4-16.6-40.7-26.7-66.6-27h-0.8c-11.2,0-21.9,1.9-32,5.3
				C93,69.3,81.9,75.8,72.5,84.2c-0.9,0.8-1.8,1.7-2.6,2.4c-0.9,1.1-2,2.1-3.1,3.1c-16.7,17.6-27,41.3-27,67.6v86.5
				c-14.4-16.3-24.9-36.2-29.7-58.2C8.1,176.4,7,167,7,157.3C7,124,19.4,93.8,39.8,70.9c1.3-1.4,2.6-2.8,3.9-4.3
				c1.1-1.1,2-2.1,3.1-3.1c7.7-7.5,16.5-14,25.8-19.3c10.2-6,21.2-10.5,32.9-13.4c10.3-2.6,20.9-4,32-4h0.8
				C173.1,27.1,204.8,40.9,228,63.4z"/>
			<polygon class="st100" points="105.8,185.6 105.4,186.2 105.4,185.6 			"/>
			<polygon class="st100" points="105.8,185.6 105.4,186.2 105.4,185.6 			"/>
			<polygon class="st100" points="105.8,185.6 105.4,186.2 105.4,185.6 			"/>
			<path class="st100" d="M105.4,157.3h63.9v28.3h-63.9v98.2c-11.7-2.8-22.8-7.3-32.9-13.4V157.2c0-17.2,6.6-32.7,17.6-44.1
				c0.8-1.1,1.9-2.1,3.1-3.1c3.7-3.7,7.7-6.6,12.2-9c9.4-5.4,20.4-8.4,32-8.4h0.8c16.7,0.2,32,6.7,43.3,17.5l-23.3,23.3
				c-5.4-4.9-12.3-7.7-20-7.9h-0.8c-7.9,0-15.3,3-20.8,7.9c-1.2,0.8-2.2,1.9-3.1,3.1C108.3,142,105.4,149.3,105.4,157.3z"/>
			<polygon class="st100" points="105.8,185.6 105.4,186.2 105.4,185.6 			"/>
			<path class="st101" d="M264.7,185.6c-5.2,23.9-17,45.3-33.5,62.4c-0.9,1.1-2,2.1-3.1,3.1c-23.2,22.7-54.9,36.6-89.8,36.8V255
				c25.9-0.2,49.4-10.5,66.6-27c0.9-1.1,2-2,3.1-3.1c10.4-10.9,18.3-24.3,23-39.2h-38.2v-28.4h75"/>
		</g>
		<rect x="192.7" y="157.3" class="st101" width="111.5" height="28.3"/>
	</g>
	<g>
		<g>
			<g>
				<path class="st102" d="M228.4,62.9L205,86.2c-17.5-16.7-40.9-26.9-67-27.1h-0.8c-11.3,0-22,1.9-32.1,5.4
					C92.7,68.9,81.5,75.4,72,83.9c-1,0.8-1.8,1.7-2.6,2.4c-1,1.1-2,2.1-3.1,3.1c-16.8,17.7-27.1,41.5-27.1,67.9v87
					c-14.5-16.4-25-36.4-29.9-58.5c-2-9.2-3.1-18.7-3.1-28.4c0-33.4,12.5-63.8,33-86.9c1.3-1.4,2.6-2.9,3.9-4.3
					c1.1-1.1,2-2.1,3.1-3.1c7.7-7.5,16.5-14,25.9-19.4c10.2-6.1,21.3-10.6,33.1-13.4c10.4-2.6,21.1-4,32.1-4h0.8
					C173.2,26.4,205,40.3,228.4,62.9z"/>
				<polygon class="st102" points="105.6,185.7 105.1,186.3 105.1,185.7 				"/>
				<polygon class="st102" points="105.6,185.7 105.1,186.3 105.1,185.7 				"/>
				<polygon class="st102" points="105.6,185.7 105.1,186.3 105.1,185.7 				"/>
				<path class="st102" d="M105.1,157.3h64.3v28.4h-64.3v98.8c-11.8-2.9-23-7.4-33.1-13.4V157.3c0-17.3,6.7-32.8,17.7-44.4
					c0.8-1.1,1.9-2.1,3.1-3.1c3.7-3.7,7.7-6.7,12.3-9c9.4-5.5,20.5-8.4,32.1-8.4h0.8c16.8,0.2,32.1,6.8,43.6,17.6l-23.4,23.4
					c-5.5-4.9-12.4-7.7-20.1-8h-0.8c-8,0-15.4,3-20.9,8c-1.2,0.8-2.3,1.9-3.1,3.1C108.1,141.9,105.1,149.3,105.1,157.3z"/>
				<polygon class="st102" points="105.6,185.7 105.1,186.3 105.1,185.7 				"/>
				<path class="st103" d="M265.3,185.7c-5.2,24-17.1,45.6-33.7,62.7c-1,1.1-2,2.1-3.1,3.1c-23.3,22.8-55.2,36.8-90.3,37v-33.1
					c26.1-0.2,49.6-10.6,67-27.1c1-1.1,2-2,3.1-3.1c10.5-10.9,18.4-24.4,23.1-39.4H193v-28.6h75.4"/>
			</g>
		</g>
		<rect x="192.9" y="157.3" class="st103" width="112.1" height="28.5"/>
	</g>
</g>
</svg>
