<?xml version="1.0" encoding="utf-8"?>
<!-- Generator: Adobe Illustrator 27.3.1, SVG Export Plug-In . SVG Version: 6.00 Build 0)  -->
<svg version="1.1"
	 id="svg23" xmlns:svg="http://www.w3.org/2000/svg" xmlns:sodipodi="http://sodipodi.sourceforge.net/DTD/sodipodi-0.dtd" xmlns:inkscape="http://www.inkscape.org/namespaces/inkscape"
	 xmlns="http://www.w3.org/2000/svg" xmlns:xlink="http://www.w3.org/1999/xlink" x="0px" y="0px" viewBox="0 0 308.8 304.9"
	 style="enable-background:new 0 0 308.8 304.9;" xml:space="preserve">
<style type="text/css">
	.st0{fill:#00273D;}
	.st1{fill:#00283E;}
	.st2{fill:#022A3D;}
	.st3{fill:#002940;}
	.st4{fill:#042D3D;}
	.st5{fill:#002941;}
	.st6{fill:#06303E;}
	.st7{fill:#002A43;}
	.st8{fill:#08333E;}
	.st9{fill:#002B44;}
	.st10{fill:#0A363E;}
	.st11{fill:#002C46;}
	.st12{fill:#0C383E;}
	.st13{fill:#002D47;}
	.st14{fill:#0D3B3E;}
	.st15{fill:#002E49;}
	.st16{fill:#0F3E3E;}
	.st17{fill:#002E4A;}
	.st18{fill:#11413F;}
	.st19{fill:#002F4C;}
	.st20{fill:#13443F;}
	.st21{fill:#00304D;}
	.st22{fill:#15473F;}
	.st23{fill:#00314F;}
	.st24{fill:#174A3F;}
	.st25{fill:#003250;}
	.st26{fill:#194D3F;}
	.st27{fill:#003352;}
	.st28{fill:#1B503F;}
	.st29{fill:#003353;}
	.st30{fill:#1D5340;}
	.st31{fill:#003455;}
	.st32{fill:#1F5540;}
	.st33{fill:#003556;}
	.st34{fill:#215840;}
	.st35{fill:#003657;}
	.st36{fill:#235B40;}
	.st37{fill:#003759;}
	.st38{fill:#255E40;}
	.st39{fill:#00375A;}
	.st40{fill:#266141;}
	.st41{fill:#00385C;}
	.st42{fill:#286441;}
	.st43{fill:#00395D;}
	.st44{fill:#2A6741;}
	.st45{fill:#003A5F;}
	.st46{fill:#2C6A41;}
	.st47{fill:#003B60;}
	.st48{fill:#2E6D41;}
	.st49{fill:#003C62;}
	.st50{fill:#307041;}
	.st51{fill:#003C63;}
	.st52{fill:#327242;}
	.st53{fill:#003D65;}
	.st54{fill:#347542;}
	.st55{fill:#003E66;}
	.st56{fill:#367842;}
	.st57{fill:#003F68;}
	.st58{fill:#387B42;}
	.st59{fill:#004069;}
	.st60{fill:#3A7E42;}
	.st61{fill:#00416B;}
	.st62{fill:#3C8142;}
	.st63{fill:#00416C;}
	.st64{fill:#3D8443;}
	.st65{fill:#00426E;}
	.st66{fill:#3F8743;}
	.st67{fill:#00436F;}
	.st68{fill:#418A43;}
	.st69{fill:#004470;}
	.st70{fill:#438D43;}
	.st71{fill:#004572;}
	.st72{fill:#458F43;}
	.st73{fill:#004573;}
	.st74{fill:#479244;}
	.st75{fill:#004675;}
	.st76{fill:#499544;}
	.st77{fill:#004776;}
	.st78{fill:#4B9844;}
	.st79{fill:#004878;}
	.st80{fill:#4D9B44;}
	.st81{fill:#004979;}
	.st82{fill:#4F9E44;}
	.st83{fill:#004A7B;}
	.st84{fill:#51A144;}
	.st85{fill:#004A7C;}
	.st86{fill:#53A445;}
	.st87{fill:#004B7E;}
	.st88{fill:#55A745;}
	.st89{fill:#004C7F;}
	.st90{fill:#56AA45;}
	.st91{fill:#004D81;}
	.st92{fill:#58AC45;}
	.st93{fill:#004E82;}
	.st94{fill:#5AAF45;}
	.st95{fill:#004F84;}
	.st96{fill:#5CB245;}
	.st97{fill:#004F85;}
	.st98{fill:#5EB546;}
	.st99{fill:#005087;}
	.st100{fill:#60B846;}
	.st101{fill:#005188;}
	.st102{fill:#62BB46;}
</style>
<g>
	<g>
		<g>
			<g>
				<path class="st0" d="M210.2,88.8l-17,17c-12.7-12.1-29.8-19.6-48.8-19.7h-0.6c-8.2,0-16,1.4-23.4,3.9c-9,3.2-17.1,8-24.1,14.1
					c-0.7,0.6-1.3,1.2-1.9,1.7c-0.7,0.8-1.5,1.6-2.3,2.3c-12.2,12.9-19.7,30.2-19.7,49.5l0,63.3c-10.6-12-18.2-26.5-21.7-42.6
					c-1.5-6.7-2.3-13.6-2.3-20.7c0-24.3,9.1-46.4,24-63.2c1-1,1.9-2.1,2.9-3.1c0.8-0.8,1.5-1.6,2.3-2.3c5.6-5.5,12-10.2,18.9-14.1
					c7.4-4.4,15.5-7.7,24.1-9.8c7.5-1.9,15.3-2.9,23.4-2.9h0.6C170,62.2,193.2,72.3,210.2,88.8z"/>
				<polygon class="st0" points="120.8,178.2 120.4,178.6 120.4,178.2 				"/>
				<polygon class="st0" points="120.8,178.2 120.4,178.6 120.4,178.2 				"/>
				<polygon class="st0" points="120.8,178.2 120.4,178.6 120.4,178.2 				"/>
				<path class="st0" d="M120.4,157.5l46.8,0v20.7l-46.8,0l0,71.9c-8.6-2.1-16.7-5.4-24.1-9.8l0-82.8c0-12.6,4.9-23.9,12.9-32.3
					c0.6-0.8,1.4-1.6,2.3-2.3c2.7-2.7,5.6-4.9,8.9-6.6c6.8-4,14.9-6.1,23.4-6.1h0.6c12.2,0.2,23.4,4.9,31.7,12.8L159.1,140
					c-4-3.6-9-5.6-14.6-5.8h-0.6c-5.8,0-11.2,2.2-15.2,5.8c-0.9,0.6-1.6,1.4-2.3,2.3C122.6,146.3,120.4,151.7,120.4,157.5z"/>
				<polygon class="st0" points="120.8,178.2 120.4,178.6 120.4,178.2 				"/>
				<path class="st0" d="M237,178.2c-3.8,17.5-12.5,33.2-24.5,45.6c-0.7,0.8-1.5,1.6-2.3,2.3c-17,16.6-40.2,26.8-65.7,26.9v-24.1
					c19-0.2,36.1-7.7,48.8-19.7c0.7-0.8,1.5-1.5,2.3-2.3c7.6-8,13.4-17.8,16.8-28.7l-28,0v-20.8l54.9,0"/>
			</g>
		</g>
		<rect x="184.4" y="157.5" class="st0" width="81.6" height="20.7"/>
	</g>
	<g>
		<g>
			<path class="st1" d="M210.6,88.3l-17.1,17.1c-12.8-12.2-30-19.7-49.1-19.9h-0.6c-8.3,0-16.1,1.4-23.6,3.9
				c-9.1,3.2-17.3,8-24.3,14.2c-0.7,0.6-1.3,1.2-1.9,1.7c-0.7,0.8-1.5,1.6-2.3,2.3c-12.3,13-19.9,30.5-19.9,49.8l0,63.8
				c-10.6-12-18.3-26.7-21.9-42.9c-1.5-6.7-2.3-13.7-2.3-20.9c0-24.5,9.2-46.8,24.2-63.7c1-1,1.9-2.1,2.9-3.1
				c0.8-0.8,1.5-1.6,2.3-2.3c5.7-5.5,12.1-10.3,19-14.2c7.5-4.4,15.6-7.8,24.3-9.9c7.6-1.9,15.4-3,23.6-3h0.6
				C170.1,61.5,193.5,71.7,210.6,88.3z"/>
			<polygon class="st1" points="120.5,178.3 120.2,178.7 120.2,178.3 			"/>
			<polygon class="st1" points="120.5,178.3 120.2,178.7 120.2,178.3 			"/>
			<polygon class="st1" points="120.5,178.3 120.2,178.7 120.2,178.3 			"/>
			<path class="st1" d="M120.2,157.5l47.1,0v20.9l-47.1,0l0,72.4c-8.6-2.1-16.8-5.4-24.3-9.9l0-83.4c0-12.7,4.9-24.1,13-32.5
				c0.6-0.8,1.4-1.6,2.3-2.3c2.7-2.7,5.7-4.9,9-6.6c6.9-4,15-6.2,23.6-6.2h0.6c12.3,0.2,23.6,5,31.9,12.9l-17.2,17.2
				c-4-3.6-9.1-5.7-14.7-5.8h-0.6c-5.8,0-11.3,2.2-15.4,5.8c-0.9,0.6-1.7,1.4-2.3,2.3C122.4,146.2,120.2,151.6,120.2,157.5z"/>
			<polygon class="st1" points="120.5,178.3 120.2,178.7 120.2,178.3 			"/>
			<path class="st2" d="M237.6,178.3c-3.8,17.6-12.6,33.4-24.7,46c-0.7,0.8-1.5,1.6-2.3,2.3c-17.1,16.8-40.5,27-66.2,27.1v-24.3
				c19.1-0.2,36.4-7.8,49.1-19.9c0.7-0.8,1.5-1.5,2.3-2.3c7.7-8,13.5-17.9,16.9-28.9l-28.2,0v-20.9l55.3,0"/>
		</g>
		<rect x="184.6" y="157.5" class="st2" width="82.2" height="20.9"/>
	</g>
	<g>
		<g>
			<path class="st3" d="M211,87.8L193.7,105c-12.9-12.3-30.2-19.9-49.5-20h-0.6c-8.3,0-16.3,1.4-23.7,4c-9.1,3.3-17.4,8.1-24.4,14.3
				c-0.7,0.6-1.3,1.2-1.9,1.8c-0.7,0.8-1.5,1.6-2.3,2.3c-12.4,13.1-20,30.7-20,50.2l0,64.2c-10.7-12.1-18.5-26.9-22.1-43.2
				c-1.5-6.8-2.3-13.8-2.3-21c0-24.7,9.2-47.1,24.3-64.2c1-1.1,1.9-2.1,2.9-3.2c0.8-0.8,1.5-1.6,2.3-2.3
				c5.7-5.5,12.2-10.4,19.2-14.3c7.6-4.5,15.7-7.8,24.4-9.9c7.6-1.9,15.6-3,23.7-3h0.6C170.2,60.8,193.7,71.1,211,87.8z"/>
			<polygon class="st3" points="120.3,178.5 119.9,178.9 119.9,178.5 			"/>
			<polygon class="st3" points="120.3,178.5 119.9,178.9 119.9,178.5 			"/>
			<polygon class="st3" points="120.3,178.5 119.9,178.9 119.9,178.5 			"/>
			<path class="st3" d="M119.9,157.5l47.5,0l0,21l-47.5,0l0,72.9c-8.7-2.1-17-5.4-24.4-9.9l0-84c0-12.7,4.9-24.3,13.1-32.8
				c0.6-0.8,1.4-1.6,2.3-2.3c2.7-2.7,5.7-4.9,9.1-6.7c6.9-4,15.1-6.2,23.7-6.2h0.6c12.4,0.2,23.7,5,32.2,13l-17.3,17.3
				c-4-3.6-9.1-5.7-14.9-5.9h-0.6c-5.9,0-11.3,2.2-15.5,5.9c-0.9,0.6-1.7,1.4-2.3,2.3C122.1,146.1,119.9,151.6,119.9,157.5z"/>
			<polygon class="st3" points="120.3,178.5 119.9,178.9 119.9,178.5 			"/>
			<path class="st4" d="M238.2,178.5c-3.9,17.8-12.7,33.7-24.9,46.3c-0.7,0.8-1.5,1.6-2.3,2.3c-17.2,16.9-40.8,27.2-66.7,27.3
				l0-24.4c19.2-0.2,36.6-7.8,49.5-20c0.7-0.8,1.5-1.5,2.3-2.3c7.7-8.1,13.6-18,17-29.1l-28.4,0v-21.1l55.7,0"/>
		</g>
		<rect x="184.8" y="157.5" class="st4" width="82.8" height="21"/>
	</g>
	<g>
		<g>
			<path class="st5" d="M211.3,87.3L194,104.6c-13-12.4-30.5-20-49.8-20.2h-0.6c-8.4,0-16.4,1.4-23.9,4c-9.2,3.3-17.5,8.1-24.6,14.4
				c-0.7,0.6-1.3,1.2-1.9,1.8c-0.7,0.8-1.5,1.6-2.3,2.3c-12.5,13.2-20.2,30.9-20.2,50.5l0,64.7c-10.8-12.2-18.6-27.1-22.2-43.6
				c-1.5-6.8-2.3-13.9-2.3-21.2c0-24.9,9.3-47.4,24.5-64.6c1-1.1,1.9-2.1,2.9-3.2c0.8-0.8,1.5-1.6,2.3-2.3
				c5.8-5.6,12.3-10.4,19.3-14.4c7.6-4.5,15.8-7.9,24.6-10c7.7-1.9,15.7-3,23.9-3h0.6C170.3,60.1,194,70.4,211.3,87.3z"/>
			<polygon class="st5" points="120,178.6 119.6,179.1 119.6,178.6 			"/>
			<polygon class="st5" points="120,178.6 119.6,179.1 119.6,178.6 			"/>
			<polygon class="st5" points="120,178.6 119.6,179.1 119.6,178.6 			"/>
			<path class="st5" d="M119.6,157.5l47.8,0v21.2l-47.8,0l0,73.5c-8.8-2.1-17.1-5.5-24.6-10l0-84.6c0-12.8,5-24.4,13.2-33
				c0.6-0.8,1.4-1.6,2.3-2.3c2.7-2.7,5.8-5,9.1-6.7c7-4.1,15.2-6.3,23.9-6.3h0.6c12.5,0.2,23.9,5,32.4,13.1l-17.4,17.4
				c-4.1-3.6-9.2-5.8-15-5.9h-0.6c-5.9,0-11.4,2.2-15.6,5.9c-0.9,0.6-1.7,1.4-2.3,2.3C121.8,146,119.6,151.5,119.6,157.5z"/>
			<polygon class="st5" points="120,178.6 119.6,179.1 119.6,178.6 			"/>
			<path class="st6" d="M238.8,178.6c-3.9,17.9-12.7,33.9-25.1,46.7c-0.7,0.8-1.5,1.6-2.3,2.3c-17.3,17-41.1,27.4-67.2,27.5l0-24.6
				c19.4-0.2,36.9-7.9,49.8-20.2c0.7-0.8,1.5-1.5,2.3-2.3c7.8-8.1,13.7-18.1,17.2-29.3l-28.6,0l0-21.2l56.1,0"/>
		</g>
		<rect x="185" y="157.5" class="st6" width="83.4" height="21.2"/>
	</g>
	<g>
		<g>
			<path class="st7" d="M211.7,86.8l-17.5,17.5c-13.1-12.5-30.7-20.1-50.2-20.3h-0.6c-8.5,0-16.5,1.4-24.1,4
				c-9.3,3.3-17.7,8.2-24.8,14.5c-0.7,0.6-1.3,1.2-2,1.8c-0.7,0.8-1.5,1.6-2.3,2.3C77.7,119.8,70,137.7,70,157.5l0,65.2
				c-10.9-12.3-18.7-27.3-22.4-43.9c-1.5-6.9-2.3-14-2.3-21.3c0-25.1,9.4-47.8,24.7-65.1c1-1.1,2-2.1,2.9-3.2
				c0.8-0.8,1.5-1.6,2.3-2.3c5.8-5.6,12.4-10.5,19.4-14.5c7.7-4.5,16-7.9,24.8-10.1c7.8-2,15.8-3,24.1-3h0.6
				C170.4,59.4,194.3,69.8,211.7,86.8z"/>
			<polygon class="st7" points="119.7,178.8 119.4,179.2 119.4,178.8 			"/>
			<polygon class="st7" points="119.7,178.8 119.4,179.2 119.4,178.8 			"/>
			<polygon class="st7" points="119.7,178.8 119.4,179.2 119.4,178.8 			"/>
			<path class="st7" d="M119.4,157.5l48.1,0v21.3l-48.1,0l0,74c-8.8-2.1-17.2-5.5-24.8-10.1l0-85.2c0-12.9,5-24.6,13.3-33.3
				c0.6-0.8,1.4-1.6,2.3-2.3c2.8-2.8,5.8-5,9.2-6.8c7-4.1,15.3-6.3,24.1-6.3h0.6c12.6,0.2,24.1,5.1,32.6,13.2l-17.6,17.6
				c-4.1-3.7-9.3-5.8-15.1-6h-0.6c-6,0-11.5,2.2-15.7,6c-0.9,0.6-1.7,1.4-2.3,2.3C121.6,146,119.4,151.5,119.4,157.5z"/>
			<polygon class="st7" points="119.7,178.8 119.4,179.2 119.4,178.8 			"/>
			<path class="st8" d="M239.4,178.8c-3.9,18-12.8,34.1-25.2,47c-0.7,0.8-1.5,1.6-2.3,2.3c-17.5,17.1-41.4,27.5-67.7,27.7V231
				c19.5-0.2,37.2-7.9,50.2-20.3c0.7-0.8,1.5-1.5,2.3-2.3c7.8-8.2,13.8-18.3,17.3-29.5h-28.8v-21.4l56.5,0"/>
		</g>
		<rect x="185.2" y="157.5" class="st8" width="84" height="21.3"/>
	</g>
	<g>
		<g>
			<path class="st9" d="M212.1,86.3l-17.6,17.6c-13.2-12.6-30.9-20.3-50.6-20.5h-0.6c-8.5,0-16.6,1.4-24.2,4
				c-9.3,3.3-17.8,8.3-25,14.6c-0.7,0.6-1.3,1.3-2,1.8c-0.7,0.8-1.5,1.6-2.3,2.3c-12.7,13.4-20.5,31.3-20.5,51.3l0,65.6
				c-11-12.4-18.9-27.5-22.5-44.2c-1.5-6.9-2.3-14.1-2.3-21.5c0-25.2,9.4-48.1,24.9-65.5c1-1.1,2-2.2,3-3.2c0.8-0.8,1.5-1.6,2.3-2.3
				c5.8-5.7,12.5-10.6,19.6-14.6c7.7-4.6,16.1-8,25-10.1c7.8-2,15.9-3.1,24.2-3.1h0.6C170.5,58.7,194.5,69.2,212.1,86.3z"/>
			<polygon class="st9" points="119.5,178.9 119.1,179.4 119.1,178.9 			"/>
			<polygon class="st9" points="119.5,178.9 119.1,179.4 119.1,178.9 			"/>
			<polygon class="st9" points="119.5,178.9 119.1,179.4 119.1,178.9 			"/>
			<path class="st9" d="M119.1,157.5l48.5,0v21.5l-48.5,0l0,74.5c-8.9-2.2-17.3-5.6-25-10.1l0-85.8c0-13,5-24.8,13.4-33.5
				c0.6-0.8,1.4-1.6,2.3-2.3c2.8-2.8,5.8-5,9.2-6.8c7.1-4.1,15.4-6.4,24.2-6.4h0.6c12.7,0.2,24.2,5.1,32.9,13.3l-17.7,17.7
				c-4.1-3.7-9.3-5.8-15.2-6h-0.6c-6,0-11.6,2.2-15.8,6c-0.9,0.6-1.7,1.4-2.3,2.3C121.3,145.9,119.1,151.4,119.1,157.5z"/>
			<polygon class="st9" points="119.5,178.9 119.1,179.4 119.1,178.9 			"/>
			<path class="st10" d="M240,178.9c-4,18.1-12.9,34.4-25.4,47.3c-0.7,0.8-1.5,1.6-2.3,2.3c-17.6,17.2-41.7,27.7-68.2,27.9v-25
				c19.7-0.2,37.4-8,50.6-20.5c0.7-0.8,1.5-1.5,2.3-2.3c7.9-8.3,13.9-18.4,17.4-29.7h-29v-21.5l56.9,0"/>
		</g>
		<rect x="185.4" y="157.5" class="st10" width="84.6" height="21.5"/>
	</g>
	<g>
		<g>
			<path class="st11" d="M212.5,85.7l-17.7,17.7c-13.3-12.7-31.1-20.4-50.9-20.6h-0.6c-8.6,0-16.7,1.4-24.4,4.1
				c-9.4,3.3-17.9,8.3-25.1,14.7c-0.7,0.6-1.4,1.3-2,1.8c-0.7,0.8-1.5,1.6-2.4,2.4c-12.7,13.5-20.6,31.6-20.6,51.6l0,66.1
				c-11-12.5-19-27.7-22.7-44.5c-1.5-7-2.4-14.2-2.4-21.6c0-25.4,9.5-48.5,25-66c1-1.1,2-2.2,3-3.3c0.8-0.8,1.5-1.6,2.4-2.4
				c5.9-5.7,12.6-10.7,19.7-14.7c7.8-4.6,16.2-8,25.1-10.2c7.9-2,16-3.1,24.4-3.1h0.6C170.6,58,194.8,68.6,212.5,85.7z"/>
			<polygon class="st11" points="119.2,179.1 118.8,179.5 118.8,179.1 			"/>
			<polygon class="st11" points="119.2,179.1 118.8,179.5 118.8,179.1 			"/>
			<polygon class="st11" points="119.2,179.1 118.8,179.5 118.8,179.1 			"/>
			<path class="st11" d="M118.8,157.5l48.8,0v21.6l-48.8,0l0,75.1c-9-2.2-17.5-5.6-25.1-10.2l0-86.4c0-13.1,5.1-25,13.5-33.7
				c0.6-0.8,1.4-1.6,2.4-2.4c2.8-2.8,5.9-5.1,9.3-6.9c7.1-4.2,15.6-6.4,24.4-6.4h0.6c12.7,0.2,24.4,5.2,33.1,13.4l-17.8,17.8
				c-4.2-3.7-9.4-5.9-15.3-6.1h-0.6c-6.1,0-11.7,2.3-15.9,6.1c-0.9,0.6-1.7,1.4-2.4,2.4C121.1,145.8,118.8,151.4,118.8,157.5z"/>
			<polygon class="st11" points="119.2,179.1 118.8,179.5 118.8,179.1 			"/>
			<path class="st12" d="M240.5,179.1c-4,18.3-13,34.6-25.6,47.7c-0.7,0.8-1.5,1.6-2.4,2.4c-17.7,17.4-42,27.9-68.6,28.1v-25.1
				c19.8-0.2,37.7-8,50.9-20.6c0.7-0.8,1.5-1.5,2.4-2.4c8-8.3,14-18.5,17.5-29.9l-29.2,0v-21.7l57.3,0"/>
		</g>
		<rect x="185.6" y="157.5" class="st12" width="85.2" height="21.6"/>
	</g>
	<g>
		<g>
			<path class="st13" d="M212.9,85.2L195,103.1c-13.4-12.7-31.3-20.6-51.3-20.8h-0.6c-8.7,0-16.8,1.5-24.6,4.1
				c-9.5,3.4-18,8.4-25.3,14.8c-0.7,0.6-1.4,1.3-2,1.8c-0.7,0.8-1.5,1.6-2.4,2.4c-12.8,13.6-20.8,31.8-20.8,52l0,66.6
				C57,211.5,49,196.2,45.3,179.2c-1.5-7-2.4-14.3-2.4-21.8c0-25.6,9.6-48.8,25.2-66.5c1-1.1,2-2.2,3-3.3c0.8-0.8,1.5-1.6,2.4-2.4
				c5.9-5.7,12.7-10.7,19.9-14.8c7.8-4.6,16.3-8.1,25.3-10.3c7.9-2,16.1-3.1,24.6-3.1h0.6C170.6,57.3,195,67.9,212.9,85.2z"/>
			<polygon class="st13" points="118.9,179.2 118.6,179.7 118.6,179.2 			"/>
			<polygon class="st13" points="118.9,179.2 118.6,179.7 118.6,179.2 			"/>
			<polygon class="st13" points="118.9,179.2 118.6,179.7 118.6,179.2 			"/>
			<path class="st13" d="M118.6,157.5l49.2,0l0,21.8l-49.2,0l0,75.6c-9-2.2-17.6-5.6-25.3-10.3l0-87.1c0-13.2,5.1-25.1,13.6-34
				c0.6-0.8,1.5-1.6,2.4-2.4c2.8-2.8,5.9-5.1,9.4-6.9c7.2-4.2,15.7-6.5,24.6-6.5h0.6c12.8,0.2,24.6,5.2,33.3,13.5l-17.9,17.9
				c-4.2-3.7-9.5-5.9-15.4-6.1l-0.6,0c-6.1,0-11.7,2.3-16,6.1c-0.9,0.6-1.7,1.5-2.4,2.4C120.8,145.7,118.6,151.4,118.6,157.5z"/>
			<polygon class="st13" points="118.9,179.2 118.6,179.7 118.6,179.2 			"/>
			<path class="st14" d="M241.1,179.2c-4,18.4-13.1,34.9-25.8,48c-0.7,0.8-1.5,1.6-2.4,2.4c-17.8,17.5-42.3,28.1-69.1,28.3v-25.3
				c19.9-0.2,38-8.1,51.3-20.8c0.7-0.8,1.5-1.5,2.4-2.4c8-8.4,14.1-18.7,17.7-30.1l-29.4,0v-21.9l57.7,0"/>
		</g>
		<rect x="185.8" y="157.5" class="st14" width="85.8" height="21.8"/>
	</g>
	<g>
		<g>
			<path class="st15" d="M213.3,84.7l-18,18c-13.5-12.8-31.5-20.7-51.6-20.9H143c-8.7,0-17,1.5-24.8,4.1
				c-9.5,3.4-18.2,8.4-25.5,14.9c-0.7,0.6-1.4,1.3-2,1.8c-0.7,0.8-1.6,1.7-2.4,2.4c-12.9,13.7-20.9,32-20.9,52.4l0,67
				c-11.2-12.7-19.3-28.1-23-45.1c-1.6-7.1-2.4-14.4-2.4-21.9c0-25.8,9.6-49.1,25.4-66.9c1-1.1,2-2.2,3-3.3c0.8-0.8,1.6-1.7,2.4-2.4
				c6-5.8,12.7-10.8,20-14.9c7.9-4.7,16.4-8.2,25.5-10.4c8-2,16.2-3.1,24.8-3.1h0.6C170.7,56.6,195.3,67.3,213.3,84.7z"/>
			<polygon class="st15" points="118.7,179.4 118.3,179.8 118.3,179.4 			"/>
			<polygon class="st15" points="118.7,179.4 118.3,179.8 118.3,179.4 			"/>
			<polygon class="st15" points="118.7,179.4 118.3,179.8 118.3,179.4 			"/>
			<path class="st15" d="M118.3,157.5l49.5,0v21.9l-49.5,0l0,76.1c-9.1-2.2-17.7-5.7-25.5-10.4l0-87.7c0-13.3,5.1-25.3,13.7-34.2
				c0.6-0.8,1.5-1.7,2.4-2.4c2.8-2.8,6-5.1,9.4-7c7.2-4.2,15.8-6.5,24.8-6.5h0.6c12.9,0.2,24.8,5.2,33.6,13.6L159.2,139
				c-4.2-3.8-9.5-6-15.5-6.1H143c-6.1,0-11.8,2.3-16.1,6.1c-0.9,0.6-1.7,1.5-2.4,2.4C120.6,145.6,118.3,151.3,118.3,157.5z"/>
			<polygon class="st15" points="118.7,179.4 118.3,179.8 118.3,179.4 			"/>
			<path class="st16" d="M241.7,179.4c-4,18.5-13.2,35.1-25.9,48.3c-0.7,0.8-1.6,1.7-2.4,2.4c-18,17.6-42.5,28.3-69.6,28.5v-25.5
				c20.1-0.2,38.2-8.2,51.6-20.9c0.7-0.8,1.6-1.6,2.4-2.4c8.1-8.4,14.2-18.8,17.8-30.4l-29.6,0l0-22l58.1,0"/>
		</g>
		<rect x="186" y="157.5" class="st16" width="86.4" height="21.9"/>
	</g>
	<g>
		<g>
			<path class="st17" d="M213.7,84.2l-18.1,18.1c-13.6-12.9-31.8-20.9-52-21.1h-0.6c-8.8,0-17.1,1.5-24.9,4.2
				c-9.6,3.4-18.3,8.5-25.7,15c-0.7,0.6-1.4,1.3-2,1.8c-0.7,0.8-1.6,1.7-2.4,2.4c-13,13.8-21.1,32.2-21.1,52.7l0,67.5
				c-11.3-12.7-19.4-28.3-23.2-45.4c-1.6-7.1-2.4-14.5-2.4-22.1c0-25.9,9.7-49.5,25.6-67.4c1-1.1,2-2.2,3-3.3
				c0.8-0.8,1.6-1.7,2.4-2.4c6-5.8,12.8-10.9,20.1-15c7.9-4.7,16.5-8.2,25.7-10.4c8-2,16.3-3.1,24.9-3.1h0.6
				C170.8,55.9,195.6,66.7,213.7,84.2z"/>
			<polygon class="st17" points="118.4,179.5 118,180 118,179.5 			"/>
			<polygon class="st17" points="118.4,179.5 118,180 118,179.5 			"/>
			<polygon class="st17" points="118.4,179.5 118,180 118,179.5 			"/>
			<path class="st17" d="M118,157.5l49.9,0v22.1l-49.9,0l0,76.6c-9.1-2.2-17.8-5.7-25.7-10.4l0-88.3c0-13.4,5.2-25.5,13.8-34.4
				c0.6-0.8,1.5-1.7,2.4-2.4c2.9-2.9,6-5.2,9.5-7c7.3-4.2,15.9-6.6,24.9-6.6h0.6c13,0.2,24.9,5.3,33.8,13.7l-18.2,18.2
				c-4.2-3.8-9.6-6-15.6-6.2h-0.6c-6.2,0-11.9,2.3-16.2,6.2c-0.9,0.6-1.8,1.5-2.4,2.4C120.3,145.5,118,151.3,118,157.5z"/>
			<polygon class="st17" points="118.4,179.5 118,180 118,179.5 			"/>
			<path class="st18" d="M242.3,179.5c-4.1,18.7-13.3,35.4-26.1,48.7c-0.7,0.8-1.6,1.7-2.4,2.4c-18.1,17.7-42.8,28.5-70.1,28.7
				l0-25.7c20.2-0.2,38.5-8.2,52-21.1c0.7-0.8,1.6-1.6,2.4-2.4c8.1-8.5,14.3-18.9,17.9-30.6l-29.8,0v-22.2l58.5,0"/>
		</g>
		<rect x="186.2" y="157.5" class="st18" width="87" height="22.1"/>
	</g>
	<g>
		<g>
			<path class="st19" d="M214.1,83.7L195.8,102c-13.7-13-32-21-52.3-21.2h-0.7c-8.8,0-17.2,1.5-25.1,4.2
				c-9.7,3.4-18.4,8.6-25.8,15.2c-0.7,0.7-1.4,1.3-2,1.9c-0.7,0.8-1.6,1.7-2.4,2.4c-13.1,13.9-21.2,32.4-21.2,53.1l0,68
				c-11.3-12.8-19.5-28.4-23.3-45.7c-1.6-7.2-2.4-14.6-2.4-22.2c0-26.1,9.8-49.8,25.8-67.9c1-1.1,2-2.2,3.1-3.3
				c0.8-0.8,1.6-1.7,2.4-2.4c6-5.9,12.9-11,20.3-15.2c8-4.7,16.6-8.3,25.8-10.5c8.1-2,16.5-3.2,25.1-3.2h0.7
				C170.9,55.2,195.8,66.1,214.1,83.7z"/>
			<polygon class="st19" points="118.1,179.7 117.8,180.1 117.8,179.7 			"/>
			<polygon class="st19" points="118.1,179.7 117.8,180.1 117.8,179.7 			"/>
			<polygon class="st19" points="118.1,179.7 117.8,180.1 117.8,179.7 			"/>
			<path class="st19" d="M117.8,157.5l50.2,0v22.2l-50.2,0l0,77.2c-9.2-2.2-17.9-5.8-25.8-10.5l0-88.9c0-13.5,5.2-25.7,13.9-34.7
				c0.7-0.8,1.5-1.7,2.4-2.4c2.9-2.9,6-5.2,9.6-7.1c7.3-4.3,16-6.6,25.1-6.6h0.7c13.1,0.2,25.1,5.3,34,13.8l-18.3,18.3
				c-4.3-3.8-9.7-6-15.7-6.2h-0.7c-6.2,0-12,2.3-16.4,6.2c-0.9,0.7-1.8,1.5-2.4,2.4C120.1,145.5,117.8,151.2,117.8,157.5z"/>
			<polygon class="st19" points="118.1,179.7 117.8,180.1 117.8,179.7 			"/>
			<path class="st20" d="M242.9,179.7c-4.1,18.8-13.4,35.6-26.3,49c-0.7,0.8-1.6,1.7-2.4,2.4c-18.2,17.8-43.1,28.7-70.6,28.9v-25.8
				c20.4-0.2,38.8-8.3,52.3-21.2c0.7-0.8,1.6-1.6,2.4-2.4c8.2-8.6,14.4-19.1,18-30.8l-30,0v-22.3l58.9,0"/>
		</g>
		<rect x="186.4" y="157.5" class="st20" width="87.6" height="22.2"/>
	</g>
	<g>
		<g>
			<path class="st21" d="M214.4,83.2l-18.3,18.3c-13.8-13.1-32.2-21.2-52.7-21.3h-0.7c-8.9,0-17.3,1.5-25.3,4.2
				c-9.7,3.5-18.5,8.6-26,15.3c-0.7,0.7-1.4,1.3-2.1,1.9c-0.7,0.8-1.6,1.7-2.4,2.4c-13.2,13.9-21.3,32.7-21.3,53.4l0,68.4
				C54.2,213,46,197.2,42.1,179.8c-1.6-7.2-2.4-14.7-2.4-22.4c0-26.3,9.8-50.2,25.9-68.3c1-1.1,2.1-2.2,3.1-3.4
				c0.8-0.8,1.6-1.7,2.4-2.4c6.1-5.9,13-11,20.4-15.3c8-4.8,16.8-8.3,26-10.6c8.1-2.1,16.6-3.2,25.3-3.2h0.7
				C171,54.5,196.1,65.4,214.4,83.2z"/>
			<polygon class="st21" points="117.9,179.8 117.5,180.3 117.5,179.8 			"/>
			<polygon class="st21" points="117.9,179.8 117.5,180.3 117.5,179.8 			"/>
			<polygon class="st21" points="117.9,179.8 117.5,180.3 117.5,179.8 			"/>
			<path class="st21" d="M117.5,157.5l50.5,0v22.4l-50.5,0l0,77.7c-9.3-2.2-18.1-5.8-26-10.6l0-89.5c0-13.6,5.2-25.8,13.9-34.9
				c0.7-0.8,1.5-1.7,2.4-2.4c2.9-2.9,6.1-5.2,9.6-7.1c7.4-4.3,16.1-6.6,25.3-6.6h0.7c13.2,0.2,25.3,5.3,34.3,13.9l-18.4,18.4
				c-4.3-3.8-9.7-6.1-15.8-6.3h-0.7c-6.3,0-12.1,2.3-16.5,6.3c-0.9,0.7-1.8,1.5-2.4,2.4C119.8,145.4,117.5,151.2,117.5,157.5z"/>
			<polygon class="st21" points="117.9,179.8 117.5,180.3 117.5,179.8 			"/>
			<path class="st22" d="M243.5,179.8c-4.1,18.9-13.5,35.8-26.5,49.3c-0.7,0.8-1.6,1.7-2.4,2.4c-18.3,18-43.4,28.9-71,29.1v-26
				c20.5-0.2,39-8.3,52.7-21.3c0.7-0.8,1.6-1.6,2.4-2.4c8.2-8.6,14.5-19.2,18.2-31l-30.2,0v-22.5l59.3,0"/>
		</g>
		<rect x="186.6" y="157.5" class="st22" width="88.2" height="22.4"/>
	</g>
	<g>
		<g>
			<path class="st23" d="M214.8,82.7l-18.5,18.5C182.5,88,164,79.9,143.3,79.7h-0.7c-9,0-17.4,1.5-25.4,4.2
				c-9.8,3.5-18.7,8.7-26.2,15.4c-0.8,0.7-1.4,1.3-2.1,1.9c-0.8,0.8-1.6,1.7-2.5,2.5c-13.3,14-21.5,32.9-21.5,53.8l0,68.9
				c-11.5-13-19.8-28.8-23.7-46.4c-1.6-7.3-2.5-14.8-2.5-22.5c0-26.5,9.9-50.5,26.1-68.8c1-1.1,2.1-2.3,3.1-3.4
				c0.8-0.8,1.6-1.7,2.5-2.5c6.1-5.9,13.1-11.1,20.5-15.4c8.1-4.8,16.9-8.4,26.2-10.6c8.2-2.1,16.7-3.2,25.4-3.2h0.7
				C171.1,53.8,196.4,64.8,214.8,82.7z"/>
			<polygon class="st23" points="117.6,180 117.2,180.4 117.2,180 			"/>
			<polygon class="st23" points="117.6,180 117.2,180.4 117.2,180 			"/>
			<polygon class="st23" points="117.6,180 117.2,180.4 117.2,180 			"/>
			<path class="st23" d="M117.2,157.5l50.9,0l0,22.5l-50.9,0l0,78.2c-9.3-2.3-18.2-5.8-26.2-10.6l0-90.1c0-13.7,5.3-26,14-35.1
				c0.7-0.8,1.5-1.7,2.5-2.5c2.9-2.9,6.1-5.3,9.7-7.2c7.4-4.3,16.2-6.7,25.4-6.7h0.7c13.3,0.2,25.4,5.4,34.5,13.9l-18.6,18.6
				c-4.3-3.9-9.8-6.1-15.9-6.3h-0.7c-6.3,0-12.2,2.4-16.6,6.3c-0.9,0.7-1.8,1.5-2.5,2.5C119.6,145.3,117.2,151.1,117.2,157.5z"/>
			<polygon class="st23" points="117.6,180 117.2,180.4 117.2,180 			"/>
			<path class="st24" d="M244.1,180c-4.1,19-13.6,36.1-26.7,49.7c-0.8,0.8-1.6,1.7-2.5,2.5c-18.5,18.1-43.7,29.1-71.5,29.3v-26.2
				c20.6-0.2,39.3-8.4,53.1-21.5c0.8-0.8,1.6-1.6,2.5-2.5c8.3-8.7,14.6-19.3,18.3-31.2l-30.4,0l0-22.6l59.7,0"/>
		</g>
		<rect x="186.8" y="157.5" class="st24" width="88.8" height="22.5"/>
	</g>
	<g>
		<g>
			<path class="st25" d="M215.2,82.2l-18.6,18.6c-13.9-13.3-32.6-21.4-53.4-21.6h-0.7c-9,0-17.6,1.5-25.6,4.3
				c-9.9,3.5-18.8,8.7-26.4,15.5c-0.8,0.7-1.4,1.3-2.1,1.9c-0.8,0.9-1.6,1.7-2.5,2.5c-13.4,14.1-21.6,33.1-21.6,54.2l0,69.3
				c-11.6-13.1-19.9-29-23.8-46.7c-1.6-7.3-2.5-14.9-2.5-22.7c0-26.7,10-50.8,26.3-69.3c1-1.1,2.1-2.3,3.1-3.4
				c0.9-0.9,1.6-1.7,2.5-2.5c6.2-6,13.2-11.2,20.7-15.5c8.2-4.8,17-8.4,26.4-10.7c8.3-2.1,16.8-3.2,25.6-3.2h0.7
				C171.2,53.1,196.6,64.2,215.2,82.2z"/>
			<polygon class="st25" points="117.3,180.1 116.9,180.6 116.9,180.1 			"/>
			<polygon class="st25" points="117.3,180.1 116.9,180.6 116.9,180.1 			"/>
			<polygon class="st25" points="117.3,180.1 116.9,180.6 116.9,180.1 			"/>
			<path class="st25" d="M116.9,157.5l51.2,0v22.7l-51.2,0l0,78.7c-9.4-2.3-18.3-5.9-26.4-10.7l0-90.7c0-13.8,5.3-26.2,14.1-35.4
				c0.7-0.9,1.5-1.7,2.5-2.5c2.9-2.9,6.2-5.3,9.8-7.2c7.5-4.4,16.3-6.7,25.6-6.7h0.7c13.4,0.2,25.6,5.4,34.7,14l-18.7,18.7
				c-4.4-3.9-9.9-6.2-16-6.4h-0.7c-6.4,0-12.2,2.4-16.7,6.4c-0.9,0.7-1.8,1.5-2.5,2.5C119.3,145.2,116.9,151.1,116.9,157.5z"/>
			<polygon class="st25" points="117.3,180.1 116.9,180.6 116.9,180.1 			"/>
			<path class="st26" d="M244.6,180.1c-4.2,19.2-13.7,36.3-26.8,50c-0.8,0.9-1.6,1.7-2.5,2.5c-18.6,18.2-44,29.3-72,29.5v-26.4
				c20.8-0.2,39.6-8.4,53.4-21.6c0.8-0.9,1.6-1.6,2.5-2.5c8.3-8.7,14.7-19.4,18.4-31.4l-30.6,0v-22.8l60.1,0"/>
		</g>
		<rect x="187" y="157.5" class="st26" width="89.4" height="22.7"/>
	</g>
	<g>
		<g>
			<path class="st27" d="M215.6,81.7l-18.7,18.7c-14-13.4-32.9-21.6-53.8-21.8h-0.7c-9.1,0-17.7,1.5-25.8,4.3
				c-9.9,3.5-18.9,8.8-26.6,15.6c-0.8,0.7-1.4,1.3-2.1,1.9c-0.8,0.9-1.6,1.7-2.5,2.5c-13.5,14.2-21.8,33.3-21.8,54.5l0,69.8
				c-11.7-13.2-20.1-29.2-24-47c-1.6-7.4-2.5-15-2.5-22.8c0-26.8,10-51.2,26.5-69.7c1.1-1.1,2.1-2.3,3.2-3.4
				c0.9-0.9,1.6-1.7,2.5-2.5c6.2-6,13.3-11.3,20.8-15.6c8.2-4.9,17.1-8.5,26.6-10.8c8.3-2.1,16.9-3.2,25.8-3.2h0.7
				C171.3,52.4,196.9,63.6,215.6,81.7z"/>
			<polygon class="st27" points="117.1,180.3 116.7,180.8 116.7,180.3 			"/>
			<polygon class="st27" points="117.1,180.3 116.7,180.8 116.7,180.3 			"/>
			<polygon class="st27" points="117.1,180.3 116.7,180.8 116.7,180.3 			"/>
			<path class="st27" d="M116.7,157.5l51.6,0v22.8l-51.6,0l0,79.3c-9.5-2.3-18.4-5.9-26.6-10.8l0-91.3c0-13.8,5.3-26.4,14.2-35.6
				c0.7-0.9,1.5-1.7,2.5-2.5c3-3,6.2-5.3,9.8-7.3c7.5-4.4,16.4-6.8,25.8-6.8h0.7c13.5,0.2,25.8,5.4,35,14.1l-18.8,18.8
				c-4.4-3.9-9.9-6.2-16.1-6.4h-0.7c-6.4,0-12.3,2.4-16.8,6.4c-1,0.7-1.8,1.5-2.5,2.5C119.1,145.1,116.7,151.1,116.7,157.5z"/>
			<polygon class="st27" points="117.1,180.3 116.7,180.8 116.7,180.3 			"/>
			<path class="st28" d="M245.2,180.3c-4.2,19.3-13.8,36.6-27,50.3c-0.8,0.9-1.6,1.7-2.5,2.5c-18.7,18.3-44.3,29.5-72.5,29.7v-26.6
				c20.9-0.2,39.8-8.5,53.8-21.8c0.8-0.9,1.6-1.6,2.5-2.5c8.4-8.8,14.8-19.6,18.5-31.6l-30.8,0v-22.9l60.5,0"/>
		</g>
		<rect x="187.2" y="157.5" class="st28" width="90" height="22.8"/>
	</g>
	<g>
		<g>
			<path class="st29" d="M216,81.2l-18.8,18.8C183,86.6,164.1,78.3,143,78.1h-0.7c-9.1,0-17.8,1.5-26,4.3c-10,3.6-19,8.8-26.7,15.7
				c-0.8,0.7-1.4,1.3-2.1,1.9c-0.8,0.9-1.6,1.7-2.5,2.5c-13.6,14.3-21.9,33.6-21.9,54.9l0,70.3C51.4,214.5,43,198.3,39,180.4
				c-1.6-7.4-2.5-15.1-2.5-23c0-27,10.1-51.5,26.6-70.2c1.1-1.2,2.1-2.3,3.2-3.5c0.9-0.9,1.6-1.7,2.5-2.5c6.2-6.1,13.4-11.3,21-15.7
				c8.3-4.9,17.2-8.6,26.7-10.9c8.4-2.1,17-3.3,26-3.3h0.7C171.4,51.7,197.2,62.9,216,81.2z"/>
			<polygon class="st29" points="116.8,180.4 116.4,180.9 116.4,180.4 			"/>
			<polygon class="st29" points="116.8,180.4 116.4,180.9 116.4,180.4 			"/>
			<polygon class="st29" points="116.8,180.4 116.4,180.9 116.4,180.4 			"/>
			<path class="st29" d="M116.4,157.5l51.9,0v23l-51.9,0l0,79.8c-9.5-2.3-18.6-6-26.7-10.9l0-91.9c0-13.9,5.4-26.5,14.3-35.9
				c0.7-0.9,1.5-1.7,2.5-2.5c3-3,6.2-5.4,9.9-7.3c7.6-4.4,16.5-6.8,26-6.8h0.7c13.6,0.2,26,5.5,35.2,14.2l-18.9,18.9
				c-4.4-3.9-10-6.2-16.2-6.4h-0.7c-6.4,0-12.4,2.4-16.9,6.4c-1,0.7-1.8,1.5-2.5,2.5C118.8,145.1,116.4,151,116.4,157.5z"/>
			<polygon class="st29" points="116.8,180.4 116.4,180.9 116.4,180.4 			"/>
			<path class="st30" d="M245.8,180.4c-4.2,19.4-13.8,36.8-27.2,50.7c-0.8,0.9-1.6,1.7-2.5,2.5c-18.8,18.5-44.6,29.7-73,29.9l0-26.7
				c21.1-0.2,40.1-8.6,54.1-21.9c0.8-0.9,1.6-1.6,2.5-2.5c8.5-8.8,14.9-19.7,18.7-31.8l-31.1,0v-23.1l61,0"/>
		</g>
		<rect x="187.4" y="157.5" class="st30" width="90.6" height="23"/>
	</g>
	<g>
		<g>
			<path class="st31" d="M216.4,80.7l-19,19c-14.2-13.5-33.3-21.9-54.5-22.1h-0.7c-9.2,0-17.9,1.5-26.1,4.4
				c-10.1,3.6-19.2,8.9-26.9,15.8c-0.8,0.7-1.5,1.4-2.1,1.9c-0.8,0.9-1.6,1.7-2.5,2.5c-13.6,14.4-22.1,33.8-22.1,55.3l0,70.7
				c-11.8-13.4-20.3-29.6-24.3-47.6c-1.6-7.5-2.5-15.2-2.5-23.1c0-27.2,10.2-51.9,26.8-70.6c1.1-1.2,2.1-2.3,3.2-3.5
				c0.9-0.9,1.6-1.7,2.5-2.5c6.3-6.1,13.5-11.4,21.1-15.8c8.3-4.9,17.3-8.6,26.9-10.9c8.4-2.1,17.1-3.3,26.1-3.3h0.7
				C171.5,51,197.4,62.3,216.4,80.7z"/>
			<polygon class="st31" points="116.5,180.6 116.1,181.1 116.1,180.6 			"/>
			<polygon class="st31" points="116.5,180.6 116.1,181.1 116.1,180.6 			"/>
			<polygon class="st31" points="116.5,180.6 116.1,181.1 116.1,180.6 			"/>
			<path class="st31" d="M116.1,157.5l52.3,0v23.1l-52.3,0l0,80.3c-9.6-2.3-18.7-6-26.9-10.9l0-92.5c0-14,5.4-26.7,14.4-36.1
				c0.7-0.9,1.5-1.7,2.5-2.5c3-3,6.3-5.4,10-7.4c7.6-4.5,16.6-6.9,26.1-6.9h0.7c13.6,0.2,26.1,5.5,35.4,14.3L159.3,138
				c-4.5-4-10.1-6.3-16.4-6.5h-0.7c-6.5,0-12.5,2.4-17,6.5c-1,0.7-1.8,1.5-2.5,2.5C118.6,145,116.1,151,116.1,157.5z"/>
			<polygon class="st31" points="116.5,180.6 116.1,181.1 116.1,180.6 			"/>
			<path class="st32" d="M246.4,180.6c-4.3,19.5-13.9,37.1-27.4,51c-0.8,0.9-1.6,1.7-2.5,2.5c-19,18.6-44.9,29.9-73.5,30.1l0-26.9
				c21.2-0.2,40.4-8.6,54.5-22.1c0.8-0.9,1.6-1.6,2.5-2.5c8.5-8.9,15-19.8,18.8-32l-31.3,0l0-23.2l61.4,0"/>
		</g>
		<rect x="187.6" y="157.5" class="st32" width="91.2" height="23.2"/>
	</g>
	<g>
		<g>
			<path class="st33" d="M216.8,80.2l-19.1,19.1c-14.3-13.6-33.5-22-54.8-22.2h-0.7c-9.3,0-18,1.6-26.3,4.4
				c-10.1,3.6-19.3,9-27.1,15.9c-0.8,0.7-1.5,1.4-2.1,1.9c-0.8,0.9-1.7,1.8-2.5,2.5c-13.7,14.5-22.2,34-22.2,55.6l0,71.2
				c-11.9-13.4-20.5-29.8-24.4-47.9c-1.7-7.5-2.5-15.3-2.5-23.3c0-27.4,10.2-52.2,27-71.1c1.1-1.2,2.1-2.3,3.2-3.5
				c0.9-0.9,1.7-1.8,2.5-2.5c6.3-6.1,13.5-11.5,21.2-15.9c8.4-5,17.4-8.7,27.1-11c8.5-2.1,17.2-3.3,26.3-3.3h0.7
				C171.6,50.3,197.7,61.7,216.8,80.2z"/>
			<polygon class="st33" points="116.3,180.7 115.9,181.2 115.9,180.7 			"/>
			<polygon class="st33" points="116.3,180.7 115.9,181.2 115.9,180.7 			"/>
			<polygon class="st33" points="116.3,180.7 115.9,181.2 115.9,180.7 			"/>
			<path class="st33" d="M115.9,157.5l52.6,0l0,23.3l-52.6,0l0,80.8c-9.6-2.3-18.8-6-27.1-11l0-93.1c0-14.1,5.5-26.9,14.5-36.3
				c0.7-0.9,1.6-1.8,2.5-2.5c3-3,6.3-5.5,10-7.4c7.7-4.5,16.8-6.9,26.3-6.9h0.7c13.7,0.2,26.3,5.6,35.7,14.4l-19.2,19.2
				c-4.5-4-10.1-6.3-16.5-6.5h-0.7c-6.5,0-12.6,2.4-17.1,6.5c-1,0.7-1.9,1.6-2.5,2.5C118.3,144.9,115.9,150.9,115.9,157.5z"/>
			<polygon class="st33" points="116.3,180.7 115.9,181.2 115.9,180.7 			"/>
			<path class="st34" d="M247,180.7c-4.3,19.7-14,37.3-27.6,51.3c-0.8,0.9-1.7,1.8-2.5,2.5c-19.1,18.7-45.2,30.1-73.9,30.3v-27.1
				c21.3-0.2,40.6-8.7,54.8-22.2c0.8-0.9,1.7-1.7,2.5-2.5c8.6-9,15.1-20,18.9-32.2l-31.5,0v-23.4l61.8,0"/>
		</g>
		<rect x="187.8" y="157.5" class="st34" width="91.8" height="23.3"/>
	</g>
	<g>
		<g>
			<path class="st35" d="M217.2,79.7L198,98.9c-14.4-13.7-33.7-22.2-55.2-22.4h-0.7c-9.3,0-18.1,1.6-26.5,4.4
				c-10.2,3.6-19.4,9-27.3,16c-0.8,0.7-1.5,1.4-2.2,2c-0.8,0.9-1.7,1.8-2.5,2.5c-13.8,14.6-22.4,34.2-22.4,56l0,71.7
				c-12-13.5-20.6-30-24.6-48.2c-1.7-7.5-2.5-15.4-2.5-23.4c0-27.6,10.3-52.6,27.2-71.6c1.1-1.2,2.2-2.4,3.2-3.5
				c0.9-0.9,1.7-1.8,2.5-2.5c6.4-6.2,13.6-11.6,21.4-16c8.4-5,17.5-8.7,27.3-11.1c8.5-2.2,17.4-3.3,26.5-3.3h0.7
				C171.7,49.6,198,61.1,217.2,79.7z"/>
			<polygon class="st35" points="116,180.9 115.6,181.4 115.6,180.9 			"/>
			<polygon class="st35" points="116,180.9 115.6,181.4 115.6,180.9 			"/>
			<polygon class="st35" points="116,180.9 115.6,181.4 115.6,180.9 			"/>
			<path class="st35" d="M115.6,157.5l52.9,0v23.4l-52.9,0l0,81.4c-9.7-2.4-18.9-6.1-27.3-11.1l0-93.7c0-14.2,5.5-27.1,14.6-36.6
				c0.7-0.9,1.6-1.8,2.5-2.5c3-3,6.4-5.5,10.1-7.5c7.7-4.5,16.9-7,26.5-7h0.7c13.8,0.2,26.5,5.6,35.9,14.5l-19.3,19.3
				c-4.5-4-10.2-6.4-16.6-6.6h-0.7c-6.6,0-12.6,2.5-17.3,6.6c-1,0.7-1.9,1.6-2.5,2.5C118,144.8,115.6,150.9,115.6,157.5z"/>
			<polygon class="st35" points="116,180.9 115.6,181.4 115.6,180.9 			"/>
			<path class="st36" d="M247.6,180.9c-4.3,19.8-14.1,37.6-27.7,51.7c-0.8,0.9-1.7,1.8-2.5,2.5c-19.2,18.8-45.5,30.3-74.4,30.5
				v-27.3c21.5-0.2,40.9-8.7,55.2-22.4c0.8-0.9,1.7-1.7,2.5-2.5c8.6-9,15.2-20.1,19-32.5H188v-23.5l62.2,0"/>
		</g>
		<rect x="188" y="157.5" class="st36" width="92.3" height="23.5"/>
	</g>
	<g>
		<g>
			<path class="st37" d="M217.6,79.2l-19.3,19.3c-14.5-13.8-33.9-22.3-55.6-22.5H142c-9.4,0-18.3,1.6-26.6,4.4
				c-10.3,3.7-19.5,9.1-27.4,16.1c-0.8,0.7-1.5,1.4-2.2,2c-0.8,0.9-1.7,1.8-2.6,2.6c-13.9,14.7-22.5,34.4-22.5,56.3l0,72.1
				c-12-13.6-20.7-30.2-24.8-48.5c-1.7-7.6-2.6-15.5-2.6-23.6c0-27.7,10.4-52.9,27.3-72c1.1-1.2,2.2-2.4,3.3-3.6
				c0.9-0.9,1.7-1.8,2.6-2.6c6.4-6.2,13.7-11.6,21.5-16.1c8.5-5,17.7-8.8,27.4-11.2c8.6-2.2,17.5-3.4,26.6-3.4h0.7
				C171.8,48.9,198.2,60.5,217.6,79.2z"/>
			<polygon class="st37" points="115.7,181 115.3,181.5 115.3,181 			"/>
			<polygon class="st37" points="115.7,181 115.3,181.5 115.3,181 			"/>
			<polygon class="st37" points="115.7,181 115.3,181.5 115.3,181 			"/>
			<path class="st37" d="M115.3,157.5l53.3,0V181l-53.3,0l0,81.9c-9.8-2.4-19-6.1-27.4-11.2l0-94.3c0-14.3,5.5-27.2,14.7-36.8
				c0.7-0.9,1.6-1.8,2.6-2.6c3.1-3.1,6.4-5.5,10.2-7.5c7.8-4.5,17-7,26.6-7h0.7c13.9,0.2,26.6,5.6,36.1,14.6l-19.4,19.4
				c-4.5-4-10.3-6.4-16.7-6.6H142c-6.6,0-12.7,2.5-17.4,6.6c-1,0.7-1.9,1.6-2.6,2.6C117.8,144.7,115.3,150.8,115.3,157.5z"/>
			<polygon class="st37" points="115.7,181 115.3,181.5 115.3,181 			"/>
			<path class="st38" d="M248.1,181c-4.3,19.9-14.2,37.8-27.9,52c-0.8,0.9-1.7,1.8-2.6,2.6c-19.3,18.9-45.8,30.5-74.9,30.7v-27.4
				c21.6-0.2,41.1-8.8,55.6-22.5c0.8-0.9,1.7-1.7,2.6-2.6c8.7-9.1,15.3-20.2,19.1-32.7l-31.9,0v-23.7l62.6,0"/>
		</g>
		<rect x="188.1" y="157.5" class="st38" width="92.9" height="23.6"/>
	</g>
	<g>
		<g>
			<path class="st39" d="M217.9,78.7l-19.5,19.5c-14.6-13.9-34.2-22.4-55.9-22.6h-0.7c-9.4,0-18.4,1.6-26.8,4.5
				c-10.3,3.7-19.7,9.1-27.6,16.2c-0.8,0.7-1.5,1.4-2.2,2c-0.8,0.9-1.7,1.8-2.6,2.6c-14,14.8-22.6,34.7-22.6,56.7l0,72.6
				c-12.1-13.7-20.9-30.4-24.9-48.9c-1.7-7.6-2.6-15.6-2.6-23.7C32.5,129.5,43,104.2,60,85c1.1-1.2,2.2-2.4,3.3-3.6
				c0.9-0.9,1.7-1.8,2.6-2.6c6.5-6.3,13.8-11.7,21.7-16.2c8.5-5.1,17.8-8.8,27.6-11.2c8.6-2.2,17.6-3.4,26.8-3.4h0.7
				C171.9,48.2,198.5,59.8,217.9,78.7z"/>
			<polygon class="st39" points="115.5,181.2 115.1,181.7 115.1,181.2 			"/>
			<polygon class="st39" points="115.5,181.2 115.1,181.7 115.1,181.2 			"/>
			<polygon class="st39" points="115.5,181.2 115.1,181.7 115.1,181.2 			"/>
			<path class="st39" d="M115.1,157.5l53.6,0l0,23.7l-53.6,0l0,82.4c-9.8-2.4-19.2-6.2-27.6-11.2l0-94.9c0-14.4,5.6-27.4,14.8-37
				c0.7-0.9,1.6-1.8,2.6-2.6c3.1-3.1,6.5-5.6,10.2-7.5c7.8-4.6,17.1-7.1,26.8-7.1h0.7c14,0.2,26.8,5.7,36.3,14.7l-19.6,19.6
				c-4.6-4.1-10.3-6.5-16.8-6.7h-0.7c-6.7,0-12.8,2.5-17.5,6.7c-1,0.7-1.9,1.6-2.6,2.6C117.5,144.6,115.1,150.8,115.1,157.5z"/>
			<polygon class="st39" points="115.5,181.2 115.1,181.7 115.1,181.2 			"/>
			<path class="st40" d="M248.7,181.2c-4.4,20.1-14.3,38-28.1,52.3c-0.8,0.9-1.7,1.8-2.6,2.6c-19.5,19.1-46.1,30.7-75.4,30.9v-27.6
				c21.7-0.2,41.4-8.8,55.9-22.6c0.8-0.9,1.7-1.7,2.6-2.6c8.7-9.1,15.4-20.4,19.3-32.9l-32.1,0l0-23.8l63,0"/>
		</g>
		<rect x="188.3" y="157.5" class="st40" width="93.5" height="23.8"/>
	</g>
	<g>
		<g>
			<path class="st41" d="M218.3,78.2l-19.6,19.6c-14.7-14-34.4-22.6-56.3-22.8h-0.7c-9.5,0-18.5,1.6-27,4.5
				C104.4,83.2,95,88.7,87,95.8c-0.8,0.7-1.5,1.4-2.2,2c-0.8,0.9-1.7,1.8-2.6,2.6c-14.1,14.9-22.8,34.9-22.8,57.1l0,73.1
				c-12.2-13.8-21-30.6-25.1-49.2c-1.7-7.7-2.6-15.7-2.6-23.9c0-28.1,10.5-53.6,27.7-73c1.1-1.2,2.2-2.4,3.3-3.6
				c0.9-0.9,1.7-1.8,2.6-2.6C71.8,72,79.2,66.5,87.1,62c8.6-5.1,17.9-8.9,27.8-11.3c8.7-2.2,17.7-3.4,27-3.4h0.7
				C172,47.5,198.7,59.2,218.3,78.2z"/>
			<polygon class="st41" points="115.2,181.3 114.8,181.8 114.8,181.3 			"/>
			<polygon class="st41" points="115.2,181.3 114.8,181.8 114.8,181.3 			"/>
			<polygon class="st41" points="115.2,181.3 114.8,181.8 114.8,181.3 			"/>
			<path class="st41" d="M114.8,157.5l54,0v23.9l-54,0l0,83c-9.9-2.4-19.3-6.2-27.8-11.3l0-95.6c0-14.5,5.6-27.6,14.9-37.3
				c0.7-0.9,1.6-1.8,2.6-2.6c3.1-3.1,6.5-5.6,10.3-7.6c7.9-4.6,17.2-7.1,27-7.1l0.7,0c14.1,0.2,27,5.7,36.6,14.8l-19.7,19.7
				c-4.6-4.1-10.4-6.5-16.9-6.7h-0.7c-6.7,0-12.9,2.5-17.6,6.7c-1,0.7-1.9,1.6-2.6,2.6C117.3,144.6,114.8,150.8,114.8,157.5z"/>
			<polygon class="st41" points="115.2,181.3 114.8,181.8 114.8,181.3 			"/>
			<path class="st42" d="M249.3,181.3c-4.4,20.2-14.4,38.3-28.3,52.7c-0.8,0.9-1.7,1.8-2.6,2.6c-19.6,19.2-46.4,30.9-75.9,31.1
				l0-27.8c21.9-0.2,41.7-8.9,56.3-22.8c0.8-0.9,1.7-1.7,2.6-2.6c8.8-9.2,15.5-20.5,19.4-33.1l-32.3,0v-24l63.4,0"/>
		</g>
		<rect x="188.5" y="157.5" class="st42" width="94.1" height="23.9"/>
	</g>
	<g>
		<g>
			<path class="st43" d="M218.7,77.7L199,97.4c-14.8-14.1-34.6-22.7-56.6-22.9l-0.7,0c-9.6,0-18.6,1.6-27.2,4.5
				c-10.5,3.7-19.9,9.3-28,16.4c-0.8,0.7-1.5,1.4-2.2,2c-0.8,0.9-1.7,1.8-2.6,2.6c-14.2,15-22.9,35.1-22.9,57.4l0,73.5
				c-12.3-13.9-21.1-30.8-25.2-49.5c-1.7-7.7-2.6-15.8-2.6-24c0-28.3,10.6-53.9,27.9-73.4c1.1-1.2,2.2-2.4,3.3-3.6
				c0.9-0.9,1.7-1.8,2.6-2.6c6.5-6.3,14-11.9,21.9-16.4c8.7-5.1,18-9,28-11.4c8.8-2.2,17.8-3.4,27.2-3.4h0.7
				C172.1,46.8,199,58.6,218.7,77.7z"/>
			<polygon class="st43" points="114.9,181.5 114.5,182 114.5,181.5 			"/>
			<polygon class="st43" points="114.9,181.5 114.5,182 114.5,181.5 			"/>
			<polygon class="st43" points="114.9,181.5 114.5,182 114.5,181.5 			"/>
			<path class="st43" d="M114.5,157.5l54.3,0l0,24l-54.3,0l0,83.5c-10-2.4-19.4-6.2-28-11.4l0-96.2c0-14.6,5.6-27.8,15-37.5
				c0.7-0.9,1.6-1.8,2.6-2.6c3.1-3.1,6.5-5.6,10.4-7.6c7.9-4.6,17.3-7.1,27.2-7.1h0.7c14.2,0.2,27.2,5.7,36.8,14.9l-19.8,19.8
				c-4.6-4.1-10.5-6.5-17-6.7h-0.7c-6.7,0-13,2.5-17.7,6.7c-1,0.7-1.9,1.6-2.6,2.6C117,144.5,114.5,150.7,114.5,157.5z"/>
			<polygon class="st43" points="114.9,181.5 114.5,182 114.5,181.5 			"/>
			<path class="st44" d="M249.9,181.5c-4.4,20.3-14.5,38.5-28.5,53c-0.8,0.9-1.7,1.8-2.6,2.6c-19.7,19.3-46.7,31.1-76.3,31.3l0-28
				c22-0.2,41.9-9,56.6-22.9c0.8-0.9,1.7-1.7,2.6-2.6c8.9-9.3,15.6-20.6,19.5-33.3l-32.5,0v-24.1l63.8,0"/>
		</g>
		<rect x="188.7" y="157.5" class="st44" width="94.7" height="24.1"/>
	</g>
	<g>
		<g>
			<path class="st45" d="M219.1,77.2L199.3,97c-14.9-14.2-34.8-22.9-57-23.1h-0.7c-9.6,0-18.7,1.6-27.3,4.6
				c-10.5,3.7-20,9.3-28.1,16.5c-0.8,0.7-1.5,1.4-2.2,2c-0.8,0.9-1.7,1.8-2.6,2.6C67,114.7,58.2,135,58.2,157.5l0,74
				c-12.3-14-21.3-31-25.4-49.8c-1.7-7.8-2.6-15.9-2.6-24.2c0-28.4,10.6-54.3,28-73.9c1.1-1.2,2.2-2.4,3.3-3.6
				c0.9-0.9,1.7-1.8,2.6-2.6c6.6-6.4,14.1-11.9,22.1-16.5c8.7-5.2,18.1-9,28.1-11.4c8.8-2.2,17.9-3.4,27.3-3.4h0.7
				C172.1,46.1,199.3,58,219.1,77.2z"/>
			<polygon class="st45" points="114.7,181.6 114.2,182.1 114.2,181.6 			"/>
			<polygon class="st45" points="114.7,181.6 114.2,182.1 114.2,181.6 			"/>
			<polygon class="st45" points="114.7,181.6 114.2,182.1 114.2,181.6 			"/>
			<path class="st45" d="M114.2,157.5l54.7,0v24.2l-54.7,0l0,84c-10-2.4-19.5-6.3-28.1-11.4l0-96.8c0-14.7,5.7-27.9,15.1-37.8
				c0.7-0.9,1.6-1.8,2.6-2.6c3.1-3.1,6.6-5.7,10.4-7.7c8-4.7,17.4-7.2,27.3-7.2h0.7c14.3,0.2,27.3,5.8,37,15l-19.9,19.9
				c-4.7-4.1-10.5-6.6-17.1-6.8h-0.7c-6.8,0-13.1,2.5-17.8,6.8c-1,0.7-1.9,1.6-2.6,2.6C116.8,144.4,114.2,150.7,114.2,157.5z"/>
			<polygon class="st45" points="114.7,181.6 114.2,182.1 114.2,181.6 			"/>
			<path class="st46" d="M250.5,181.6c-4.5,20.4-14.6,38.8-28.6,53.3c-0.8,0.9-1.7,1.8-2.6,2.6c-19.8,19.4-47,31.3-76.8,31.5V241
				c22.2-0.2,42.2-9,57-23.1c0.8-0.9,1.7-1.7,2.6-2.6c8.9-9.3,15.7-20.7,19.6-33.5l-32.7,0v-24.3l64.2,0"/>
		</g>
		<rect x="188.9" y="157.5" class="st46" width="95.3" height="24.2"/>
	</g>
	<g>
		<g>
			<path class="st47" d="M219.5,76.7l-20,20c-15-14.3-35-23-57.3-23.2h-0.7c-9.7,0-18.8,1.6-27.5,4.6c-10.6,3.8-20.2,9.4-28.3,16.6
				c-0.8,0.7-1.5,1.4-2.2,2c-0.8,0.9-1.7,1.8-2.6,2.6c-14.4,15.2-23.2,35.5-23.2,58.2l0,74.5c-12.4-14.1-21.4-31.2-25.6-50.1
				c-1.7-7.8-2.6-16-2.6-24.3c0-28.6,10.7-54.6,28.2-74.4c1.1-1.2,2.2-2.4,3.4-3.7c0.9-0.9,1.7-1.8,2.6-2.6
				c6.6-6.4,14.2-12,22.2-16.6c8.8-5.2,18.2-9.1,28.3-11.5c8.9-2.2,18-3.5,27.5-3.5h0.7C172.2,45.4,199.5,57.3,219.5,76.7z"/>
			<polygon class="st47" points="114.4,181.8 114,182.3 114,181.8 			"/>
			<polygon class="st47" points="114.4,181.8 114,182.3 114,181.8 			"/>
			<polygon class="st47" points="114.4,181.8 114,182.3 114,181.8 			"/>
			<path class="st47" d="M114,157.4l55,0v24.3l-55,0l0,84.5c-10.1-2.4-19.7-6.3-28.3-11.5l0-97.4c0-14.8,5.7-28.1,15.2-38
				c0.7-0.9,1.6-1.8,2.6-2.6c3.2-3.2,6.6-5.7,10.5-7.7c8-4.7,17.5-7.2,27.5-7.2h0.7c14.4,0.2,27.5,5.8,37.3,15.1L159.4,137
				c-4.7-4.2-10.6-6.6-17.2-6.8h-0.7c-6.8,0-13.1,2.5-17.9,6.8c-1,0.7-1.9,1.6-2.6,2.6C116.5,144.3,114,150.6,114,157.4z"/>
			<polygon class="st47" points="114.4,181.8 114,182.3 114,181.8 			"/>
			<path class="st48" d="M251.1,181.8c-4.5,20.6-14.7,39-28.8,53.7c-0.8,0.9-1.7,1.8-2.6,2.6c-20,19.6-47.3,31.5-77.3,31.7v-28.3
				c22.3-0.2,42.5-9.1,57.3-23.2c0.8-0.9,1.7-1.7,2.6-2.6c9-9.4,15.8-20.9,19.8-33.7l-32.9,0l0-24.4l64.6,0"/>
		</g>
		<rect x="189.1" y="157.4" class="st48" width="95.9" height="24.4"/>
	</g>
	<g>
		<g>
			<path class="st49" d="M219.9,76.2l-20.1,20.1c-15.1-14.3-35.3-23.2-57.7-23.4h-0.7c-9.7,0-19,1.6-27.7,4.6
				c-10.7,3.8-20.3,9.4-28.5,16.7c-0.8,0.7-1.5,1.4-2.3,2c-0.8,0.9-1.7,1.8-2.7,2.7c-14.5,15.3-23.4,35.8-23.4,58.5l0,74.9
				c-12.5-14.1-21.5-31.4-25.7-50.4c-1.7-7.9-2.7-16.1-2.7-24.5c0-28.8,10.8-54.9,28.4-74.8c1.1-1.2,2.3-2.5,3.4-3.7
				c0.9-0.9,1.7-1.8,2.7-2.7c6.7-6.5,14.2-12.1,22.3-16.7c8.8-5.2,18.3-9.1,28.5-11.6c8.9-2.3,18.1-3.5,27.7-3.5l0.7,0
				C172.3,44.7,199.8,56.7,219.9,76.2z"/>
			<polygon class="st49" points="114.1,181.9 113.7,182.5 113.7,181.9 			"/>
			<polygon class="st49" points="114.1,181.9 113.7,182.5 113.7,181.9 			"/>
			<polygon class="st49" points="114.1,181.9 113.7,182.5 113.7,181.9 			"/>
			<path class="st49" d="M113.7,157.4l55.3,0l0,24.5l-55.3,0l0,85.1c-10.1-2.5-19.8-6.4-28.5-11.6l0-98c0-14.9,5.7-28.3,15.3-38.2
				c0.7-0.9,1.6-1.8,2.7-2.7c3.2-3.2,6.7-5.7,10.6-7.8c8.1-4.7,17.6-7.3,27.7-7.3h0.7c14.5,0.2,27.7,5.8,37.5,15.2l-20.2,20.2
				c-4.7-4.2-10.7-6.7-17.3-6.9h-0.7c-6.9,0-13.2,2.6-18,6.9c-1,0.7-1.9,1.6-2.7,2.7C116.3,144.2,113.7,150.6,113.7,157.4z"/>
			<polygon class="st49" points="114.1,181.9 113.7,182.5 113.7,181.9 			"/>
			<path class="st50" d="M251.7,181.9c-4.5,20.7-14.8,39.3-29,54c-0.8,0.9-1.7,1.8-2.7,2.7c-20.1,19.7-47.6,31.7-77.8,31.9V242
				c22.4-0.2,42.7-9.1,57.7-23.4c0.8-0.9,1.7-1.7,2.7-2.7c9-9.4,15.9-21,19.9-33.9l-33.1,0l0-24.6l65,0"/>
		</g>
		<rect x="189.3" y="157.4" class="st50" width="96.5" height="24.5"/>
	</g>
	<g>
		<g>
			<path class="st51" d="M220.3,75.7l-20.2,20.2c-15.2-14.4-35.5-23.3-58.1-23.5h-0.7c-9.8,0-19.1,1.6-27.8,4.6
				c-10.7,3.8-20.4,9.5-28.7,16.8c-0.8,0.7-1.5,1.4-2.3,2.1c-0.8,0.9-1.8,1.9-2.7,2.7c-14.5,15.4-23.5,36-23.5,58.9l0,75.4
				c-12.6-14.2-21.7-31.6-25.9-50.7c-1.8-7.9-2.7-16.2-2.7-24.6c0-29,10.8-55.3,28.6-75.3c1.1-1.2,2.3-2.5,3.4-3.7
				c0.9-0.9,1.8-1.9,2.7-2.7c6.7-6.5,14.3-12.2,22.5-16.8c8.9-5.3,18.5-9.2,28.7-11.7c9-2.3,18.3-3.5,27.8-3.5h0.7
				C172.4,44,200.1,56.1,220.3,75.7z"/>
			<polygon class="st51" points="113.9,182.1 113.4,182.6 113.4,182.1 			"/>
			<polygon class="st51" points="113.9,182.1 113.4,182.6 113.4,182.1 			"/>
			<polygon class="st51" points="113.9,182.1 113.4,182.6 113.4,182.1 			"/>
			<path class="st51" d="M113.4,157.4l55.7,0v24.6l-55.7,0l0,85.6c-10.2-2.5-19.9-6.4-28.7-11.7l0-98.6c0-15,5.8-28.5,15.4-38.5
				c0.7-0.9,1.6-1.9,2.7-2.7c3.2-3.2,6.7-5.8,10.6-7.8c8.1-4.7,17.7-7.3,27.8-7.3h0.7c14.5,0.2,27.8,5.9,37.7,15.3l-20.3,20.3
				c-4.7-4.2-10.7-6.7-17.4-6.9l-0.7,0c-6.9,0-13.3,2.6-18.1,6.9c-1,0.7-2,1.6-2.7,2.7C116,144.1,113.4,150.5,113.4,157.4z"/>
			<polygon class="st51" points="113.9,182.1 113.4,182.6 113.4,182.1 			"/>
			<path class="st52" d="M252.2,182.1c-4.5,20.8-14.8,39.5-29.2,54.3c-0.8,0.9-1.8,1.9-2.7,2.7c-20.2,19.8-47.8,31.9-78.3,32.1
				v-28.7c22.6-0.2,43-9.2,58.1-23.5c0.8-0.9,1.8-1.8,2.7-2.7c9.1-9.5,16-21.1,20-34.1l-33.3,0v-24.7l65.4,0"/>
		</g>
		<rect x="189.5" y="157.4" class="st52" width="97.1" height="24.7"/>
	</g>
	<g>
		<g>
			<path class="st53" d="M220.7,75.2l-20.3,20.3c-15.3-14.5-35.7-23.4-58.4-23.7h-0.7c-9.9,0-19.2,1.7-28,4.7
				c-10.8,3.8-20.5,9.5-28.8,16.9c-0.8,0.7-1.6,1.5-2.3,2.1c-0.8,0.9-1.8,1.9-2.7,2.7c-14.6,15.5-23.7,36.2-23.7,59.2l0,75.8
				c-12.7-14.3-21.8-31.7-26-51c-1.8-8-2.7-16.3-2.7-24.8c0-29.2,10.9-55.6,28.7-75.7c1.1-1.2,2.3-2.5,3.4-3.7
				c0.9-0.9,1.8-1.9,2.7-2.7c6.7-6.5,14.4-12.2,22.6-16.9c8.9-5.3,18.6-9.2,28.8-11.7c9-2.3,18.4-3.5,28-3.5h0.7
				C172.5,43.3,200.3,55.5,220.7,75.2z"/>
			<polygon class="st53" points="113.6,182.2 113.2,182.8 113.2,182.2 			"/>
			<polygon class="st53" points="113.6,182.2 113.2,182.8 113.2,182.2 			"/>
			<polygon class="st53" points="113.6,182.2 113.2,182.8 113.2,182.2 			"/>
			<path class="st53" d="M113.2,157.4l56,0l0,24.8l-56,0l0,86.1c-10.3-2.5-20-6.4-28.8-11.7l0-99.2c0-15,5.8-28.6,15.5-38.7
				c0.7-0.9,1.7-1.9,2.7-2.7c3.2-3.2,6.7-5.8,10.7-7.9c8.2-4.8,17.8-7.4,28-7.4h0.7c14.6,0.2,28,5.9,38,15.4l-20.4,20.4
				c-4.8-4.3-10.8-6.7-17.5-7h-0.7c-7,0-13.4,2.6-18.3,7c-1,0.7-2,1.7-2.7,2.7C115.8,144.1,113.2,150.5,113.2,157.4z"/>
			<polygon class="st53" points="113.6,182.2 113.2,182.8 113.2,182.2 			"/>
			<path class="st54" d="M252.8,182.2c-4.6,21-14.9,39.7-29.4,54.7c-0.8,0.9-1.8,1.9-2.7,2.7c-20.3,19.9-48.1,32.1-78.8,32.3l0-28.8
				c22.7-0.2,43.3-9.2,58.4-23.7c0.8-0.9,1.8-1.8,2.7-2.7c9.1-9.5,16.1-21.3,20.1-34.3l-33.5,0v-24.9l65.8,0"/>
		</g>
		<rect x="189.7" y="157.4" class="st54" width="97.7" height="24.8"/>
	</g>
	<g>
		<g>
			<path class="st55" d="M221.1,74.7l-20.5,20.5c-15.3-14.6-35.9-23.6-58.8-23.8h-0.7c-9.9,0-19.3,1.7-28.2,4.7
				c-10.9,3.9-20.7,9.6-29,17c-0.8,0.7-1.6,1.5-2.3,2.1c-0.8,0.9-1.8,1.9-2.7,2.7c-14.7,15.6-23.8,36.4-23.8,59.6l0,76.3
				c-12.7-14.4-21.9-31.9-26.2-51.4c-1.8-8-2.7-16.4-2.7-24.9c0-29.3,11-56,28.9-76.2c1.1-1.3,2.3-2.5,3.4-3.8
				c0.9-0.9,1.8-1.9,2.7-2.7c6.8-6.6,14.5-12.3,22.8-17c9-5.3,18.7-9.3,29-11.8c9.1-2.3,18.5-3.5,28.2-3.5h0.7
				C172.6,42.6,200.6,54.8,221.1,74.7z"/>
			<polygon class="st55" points="113.3,182.4 112.9,182.9 112.9,182.4 			"/>
			<polygon class="st55" points="113.3,182.4 112.9,182.9 112.9,182.4 			"/>
			<polygon class="st55" points="113.3,182.4 112.9,182.9 112.9,182.4 			"/>
			<path class="st55" d="M112.9,157.4l56.4,0v24.9l-56.4,0l0,86.6c-10.3-2.5-20.1-6.5-29-11.8l0-99.8c0-15.1,5.8-28.8,15.6-38.9
				c0.7-0.9,1.7-1.9,2.7-2.7c3.2-3.2,6.8-5.8,10.8-7.9c8.2-4.8,18-7.4,28.2-7.4h0.7c14.7,0.2,28.2,6,38.2,15.5l-20.6,20.6
				c-4.8-4.3-10.9-6.8-17.6-7h-0.7c-7,0-13.5,2.6-18.4,7c-1,0.7-2,1.7-2.7,2.7C115.5,144,112.9,150.5,112.9,157.4z"/>
			<polygon class="st55" points="113.3,182.4 112.9,182.9 112.9,182.4 			"/>
			<path class="st56" d="M253.4,182.4c-4.6,21.1-15,40-29.5,55c-0.8,0.9-1.8,1.9-2.7,2.7c-20.5,20-48.4,32.3-79.2,32.5l0-29
				c22.9-0.2,43.5-9.3,58.8-23.8c0.8-0.9,1.8-1.8,2.7-2.7c9.2-9.6,16.2-21.4,20.3-34.6l-33.7,0v-25.1l66.2,0"/>
		</g>
		<rect x="189.9" y="157.4" class="st56" width="98.3" height="25"/>
	</g>
	<g>
		<g>
			<path class="st57" d="M221.4,74.2l-20.6,20.6C185.4,80,164.7,71,141.7,70.8H141c-10,0-19.4,1.7-28.4,4.7
				c-10.9,3.9-20.8,9.7-29.2,17.1c-0.8,0.7-1.6,1.5-2.3,2.1c-0.8,0.9-1.8,1.9-2.7,2.7c-14.8,15.6-23.9,36.7-23.9,60l0,76.8
				c-12.8-14.5-22.1-32.1-26.4-51.7c-1.8-8.1-2.7-16.5-2.7-25.1c0-29.5,11-56.3,29.1-76.7c1.2-1.3,2.3-2.5,3.5-3.8
				c0.9-0.9,1.8-1.9,2.7-2.7c6.8-6.6,14.6-12.4,22.9-17.1c9-5.4,18.8-9.3,29.2-11.9c9.1-2.3,18.6-3.6,28.4-3.6h0.7
				C172.7,41.9,200.9,54.2,221.4,74.2z"/>
			<polygon class="st57" points="113.1,182.5 112.6,183.1 112.6,182.5 			"/>
			<polygon class="st57" points="113.1,182.5 112.6,183.1 112.6,182.5 			"/>
			<polygon class="st57" points="113.1,182.5 112.6,183.1 112.6,182.5 			"/>
			<path class="st57" d="M112.6,157.4l56.7,0v25.1l-56.7,0l0,87.2c-10.4-2.5-20.3-6.5-29.2-11.9l0-100.4c0-15.2,5.9-29,15.6-39.2
				c0.7-0.9,1.7-1.9,2.7-2.7c3.3-3.3,6.8-5.9,10.8-8c8.3-4.8,18.1-7.5,28.4-7.5h0.7c14.8,0.2,28.4,6,38.4,15.5l-20.7,20.7
				c-4.8-4.3-10.9-6.8-17.7-7H141c-7,0-13.5,2.6-18.5,7c-1.1,0.7-2,1.7-2.7,2.7C115.3,143.9,112.6,150.4,112.6,157.4z"/>
			<polygon class="st57" points="113.1,182.5 112.6,183.1 112.6,182.5 			"/>
			<path class="st58" d="M254,182.5c-4.6,21.2-15.1,40.2-29.7,55.3c-0.8,0.9-1.8,1.9-2.7,2.7c-20.6,20.2-48.7,32.5-79.7,32.7v-29.2
				c23-0.2,43.8-9.3,59.1-23.9c0.8-0.9,1.8-1.8,2.7-2.7c9.2-9.7,16.3-21.5,20.4-34.8l-33.9,0l0-25.2l66.6,0"/>
		</g>
		<rect x="190.1" y="157.4" class="st58" width="98.9" height="25.1"/>
	</g>
	<g>
		<g>
			<path class="st59" d="M221.8,73.7l-20.7,20.7c-15.5-14.8-36.3-23.9-59.5-24.1h-0.7c-10,0-19.5,1.7-28.5,4.8
				c-11,3.9-20.9,9.7-29.4,17.2c-0.8,0.7-1.6,1.5-2.3,2.1c-0.8,1-1.8,1.9-2.7,2.7C63,112.9,53.8,134,53.8,157.4l0,77.2
				c-12.9-14.6-22.2-32.3-26.5-52c-1.8-8.1-2.7-16.6-2.7-25.3c0-29.7,11.1-56.6,29.3-77.1c1.2-1.3,2.3-2.5,3.5-3.8
				c1-1,1.8-1.9,2.7-2.7c6.9-6.7,14.7-12.5,23-17.2c9.1-5.4,18.9-9.4,29.4-11.9c9.2-2.3,18.7-3.6,28.5-3.6l0.7,0
				C172.8,41.2,201.1,53.6,221.8,73.7z"/>
			<polygon class="st59" points="112.8,182.7 112.4,183.2 112.4,182.7 			"/>
			<polygon class="st59" points="112.8,182.7 112.4,183.2 112.4,182.7 			"/>
			<polygon class="st59" points="112.8,182.7 112.4,183.2 112.4,182.7 			"/>
			<path class="st59" d="M112.4,157.4l57.1,0l0,25.3l-57.1,0l0,87.7c-10.5-2.5-20.4-6.6-29.4-11.9l0-101c0-15.3,5.9-29.2,15.7-39.4
				c0.7-1,1.7-1.9,2.7-2.7c3.3-3.3,6.9-5.9,10.9-8c8.3-4.9,18.2-7.5,28.5-7.5h0.7c14.9,0.2,28.5,6,38.7,15.6l-20.8,20.8
				c-4.9-4.3-11-6.9-17.9-7.1h-0.7c-7.1,0-13.6,2.6-18.6,7.1c-1.1,0.7-2,1.7-2.7,2.7C115,143.8,112.4,150.4,112.4,157.4z"/>
			<polygon class="st59" points="112.8,182.7 112.4,183.2 112.4,182.7 			"/>
			<path class="st60" d="M254.6,182.7c-4.6,21.3-15.2,40.5-29.9,55.7c-0.8,1-1.8,1.9-2.7,2.7c-20.7,20.3-49,32.6-80.2,32.9v-29.4
				c23.1-0.2,44.1-9.4,59.5-24.1c0.8-1,1.8-1.8,2.7-2.7c9.3-9.7,16.4-21.7,20.5-35l-34.1,0v-25.4l67,0"/>
		</g>
		<rect x="190.3" y="157.4" class="st60" width="99.5" height="25.3"/>
	</g>
	<g>
		<g>
			<path class="st61" d="M222.2,73.2L201.4,94c-15.6-14.9-36.6-24-59.8-24.2h-0.7c-10.1,0-19.7,1.7-28.7,4.8
				c-11.1,3.9-21,9.8-29.6,17.3c-0.9,0.7-1.6,1.5-2.3,2.1c-0.9,1-1.8,1.9-2.8,2.8c-15,15.8-24.2,37.1-24.2,60.7l0,77.7
				c-13-14.7-22.3-32.5-26.7-52.3c-1.8-8.2-2.8-16.7-2.8-25.4c0-29.9,11.2-57,29.4-77.6c1.2-1.3,2.3-2.6,3.5-3.8
				c1-1,1.8-1.9,2.8-2.8c6.9-6.7,14.8-12.5,23.2-17.3c9.1-5.4,19-9.5,29.6-12c9.2-2.3,18.8-3.6,28.7-3.6h0.7
				C172.9,40.5,201.4,53,222.2,73.2z"/>
			<polygon class="st61" points="112.5,182.9 112.1,183.4 112.1,182.9 			"/>
			<polygon class="st61" points="112.5,182.9 112.1,183.4 112.1,182.9 			"/>
			<polygon class="st61" points="112.5,182.9 112.1,183.4 112.1,182.9 			"/>
			<path class="st61" d="M112.1,157.4l57.4,0v25.4l-57.4,0l0,88.2c-10.5-2.6-20.5-6.6-29.6-12l0-101.6c0-15.4,6-29.3,15.8-39.6
				c0.7-1,1.7-1.9,2.8-2.8c3.3-3.3,6.9-6,10.9-8.1c8.4-4.9,18.3-7.5,28.7-7.5h0.7c15,0.2,28.7,6.1,38.9,15.7l-20.9,20.9
				c-4.9-4.4-11.1-6.9-18-7.1h-0.7c-7.1,0-13.7,2.7-18.7,7.1c-1.1,0.7-2,1.7-2.8,2.8C114.7,143.7,112.1,150.3,112.1,157.4z"/>
			<polygon class="st61" points="112.5,182.9 112.1,183.4 112.1,182.9 			"/>
			<path class="st62" d="M255.2,182.9c-4.7,21.5-15.3,40.7-30.1,56c-0.9,1-1.8,1.9-2.8,2.8c-20.8,20.4-49.3,32.8-80.7,33.1v-29.6
				c23.3-0.2,44.3-9.5,59.8-24.2c0.9-1,1.8-1.8,2.8-2.8c9.4-9.8,16.5-21.8,20.6-35.2l-34.3,0v-25.5l67.4,0"/>
		</g>
		<rect x="190.5" y="157.4" class="st62" width="100.1" height="25.4"/>
	</g>
	<g>
		<g>
			<path class="st63" d="M222.6,72.7l-21,21c-15.7-15-36.8-24.2-60.2-24.4h-0.7c-10.2,0-19.8,1.7-28.9,4.8
				c-11.1,4-21.2,9.8-29.7,17.4c-0.9,0.7-1.6,1.5-2.4,2.1c-0.9,1-1.8,1.9-2.8,2.8c-15.1,15.9-24.4,37.3-24.4,61.1l0,78.2
				c-13-14.8-22.5-32.7-26.8-52.6c-1.8-8.2-2.8-16.8-2.8-25.6c0-30,11.2-57.3,29.6-78.1c1.2-1.3,2.4-2.6,3.5-3.8
				c1-1,1.8-1.9,2.8-2.8c7-6.7,14.9-12.6,23.3-17.4c9.2-5.5,19.1-9.5,29.7-12.1c9.3-2.4,18.9-3.6,28.9-3.6h0.7
				C173,39.8,201.6,52.3,222.6,72.7z"/>
			<polygon class="st63" points="112.2,183 111.8,183.5 111.8,183 			"/>
			<polygon class="st63" points="112.2,183 111.8,183.5 111.8,183 			"/>
			<polygon class="st63" points="112.2,183 111.8,183.5 111.8,183 			"/>
			<path class="st63" d="M111.8,157.4l57.7,0V183l-57.7,0l0,88.8c-10.6-2.6-20.6-6.6-29.7-12.1l0-102.2c0-15.5,6-29.5,15.9-39.9
				c0.7-1,1.7-1.9,2.8-2.8c3.3-3.3,7-6,11-8.1c8.4-4.9,18.4-7.6,28.9-7.6h0.7c15.1,0.2,28.9,6.1,39.1,15.8L159.5,136
				c-4.9-4.4-11.1-7-18.1-7.2h-0.7c-7.2,0-13.8,2.7-18.8,7.2c-1.1,0.7-2,1.7-2.8,2.8C114.5,143.7,111.8,150.3,111.8,157.4z"/>
			<polygon class="st63" points="112.2,183 111.8,183.5 111.8,183 			"/>
			<path class="st64" d="M255.8,183c-4.7,21.6-15.4,41-30.3,56.4c-0.9,1-1.8,1.9-2.8,2.8c-21,20.5-49.6,33-81.2,33.3v-29.7
				c23.4-0.2,44.6-9.5,60.2-24.4c0.9-1,1.8-1.8,2.8-2.8c9.4-9.8,16.6-21.9,20.7-35.4l-34.5,0v-25.7l67.8,0"/>
		</g>
		<rect x="190.7" y="157.4" class="st64" width="100.7" height="25.6"/>
	</g>
	<g>
		<g>
			<path class="st65" d="M223,72.1l-21.1,21.1c-15.8-15.1-37-24.3-60.6-24.5h-0.8c-10.2,0-19.9,1.7-29,4.8
				c-11.2,4-21.3,9.9-29.9,17.5c-0.9,0.8-1.6,1.5-2.4,2.2c-0.9,1-1.8,1.9-2.8,2.8c-15.2,16-24.5,37.5-24.5,61.4l0,78.6
				c-13.1-14.8-22.6-32.9-27-52.9c-1.8-8.3-2.8-16.9-2.8-25.7c0-30.2,11.3-57.7,29.8-78.5c1.2-1.3,2.4-2.6,3.5-3.9
				c1-1,1.8-1.9,2.8-2.8c7-6.8,15-12.7,23.4-17.5c9.3-5.5,19.3-9.6,29.9-12.2c9.4-2.4,19-3.7,29-3.7h0.8
				C173.1,39.1,201.9,51.7,223,72.1z"/>
			<polygon class="st65" points="112,183.2 111.6,183.7 111.6,183.2 			"/>
			<polygon class="st65" points="112,183.2 111.6,183.7 111.6,183.2 			"/>
			<polygon class="st65" points="112,183.2 111.6,183.7 111.6,183.2 			"/>
			<path class="st65" d="M111.6,157.4l58.1,0v25.7l-58.1,0l0,89.3c-10.6-2.6-20.8-6.7-29.9-12.2l0-102.8c0-15.6,6-29.7,16-40.1
				c0.8-1,1.7-1.9,2.8-2.8c3.3-3.3,7-6,11.1-8.2c8.5-4.9,18.5-7.6,29-7.6h0.8c15.2,0.2,29,6.1,39.4,15.9l-21.2,21.2
				c-4.9-4.4-11.2-7-18.2-7.2h-0.8c-7.2,0-13.9,2.7-18.9,7.2c-1.1,0.8-2,1.7-2.8,2.8C114.2,143.6,111.6,150.2,111.6,157.4z"/>
			<polygon class="st65" points="112,183.2 111.6,183.7 111.6,183.2 			"/>
			<path class="st66" d="M256.3,183.2c-4.7,21.7-15.5,41.2-30.4,56.7c-0.9,1-1.8,1.9-2.8,2.8c-21.1,20.7-49.9,33.2-81.6,33.5l0-29.9
				c23.6-0.2,44.9-9.6,60.6-24.5c0.9-1,1.8-1.8,2.8-2.8c9.5-9.9,16.7-22.1,20.9-35.6l-34.7,0l0-25.8l68.2,0"/>
		</g>
		<rect x="190.9" y="157.4" class="st66" width="101.3" height="25.7"/>
	</g>
	<g>
		<g>
			<path class="st67" d="M223.4,71.6l-21.2,21.2c-15.9-15.1-37.2-24.5-60.9-24.7h-0.8c-10.3,0-20,1.7-29.2,4.9
				c-11.3,4-21.4,10-30.1,17.6c-0.9,0.8-1.6,1.5-2.4,2.2c-0.9,1-1.8,1.9-2.8,2.8c-15.3,16.1-24.7,37.8-24.7,61.8l0,79.1
				c-13.2-14.9-22.7-33.1-27.2-53.2c-1.8-8.3-2.8-17-2.8-25.9c0-30.4,11.4-58,30-79c1.2-1.3,2.4-2.6,3.6-3.9c1-1,1.8-1.9,2.8-2.8
				c7-6.8,15-12.8,23.6-17.6c9.3-5.5,19.4-9.6,30.1-12.2c9.4-2.4,19.2-3.7,29.2-3.7h0.8C173.2,38.4,202.2,51.1,223.4,71.6z"/>
			<polygon class="st67" points="111.7,183.3 111.3,183.8 111.3,183.3 			"/>
			<polygon class="st67" points="111.7,183.3 111.3,183.8 111.3,183.3 			"/>
			<polygon class="st67" points="111.7,183.3 111.3,183.8 111.3,183.3 			"/>
			<path class="st67" d="M111.3,157.4l58.4,0v25.9l-58.4,0l0,89.8c-10.7-2.6-20.9-6.7-30.1-12.2l0-103.4c0-15.7,6.1-29.9,16.1-40.4
				c0.8-1,1.7-1.9,2.8-2.8c3.4-3.4,7-6.1,11.1-8.2c8.5-5,18.6-7.7,29.2-7.7h0.8c15.3,0.2,29.2,6.2,39.6,16l-21.3,21.3
				c-5-4.4-11.3-7-18.3-7.2h-0.8c-7.2,0-14,2.7-19,7.2c-1.1,0.8-2.1,1.7-2.8,2.8C114,143.5,111.3,150.2,111.3,157.4z"/>
			<polygon class="st67" points="111.7,183.3 111.3,183.8 111.3,183.3 			"/>
			<path class="st68" d="M256.9,183.3c-4.8,21.9-15.6,41.4-30.6,57c-0.9,1-1.8,1.9-2.8,2.8c-21.2,20.8-50.2,33.4-82.1,33.7l0-30.1
				c23.7-0.2,45.1-9.6,60.9-24.7c0.9-1,1.8-1.8,2.8-2.8c9.5-10,16.8-22.2,21-35.8l-34.9,0v-26l68.6,0"/>
		</g>
		<rect x="191.1" y="157.4" class="st68" width="101.9" height="25.9"/>
	</g>
	<g>
		<g>
			<path class="st69" d="M223.8,71.1l-21.3,21.3c-16-15.2-37.4-24.6-61.3-24.8h-0.8c-10.3,0-20.1,1.7-29.4,4.9
				c-11.3,4-21.5,10-30.3,17.7c-0.9,0.8-1.6,1.5-2.4,2.2c-0.9,1-1.9,2-2.8,2.8c-15.3,16.2-24.8,38-24.8,62.1l0,79.6
				c-13.3-15-22.9-33.3-27.3-53.5c-1.9-8.4-2.8-17.1-2.8-26c0-30.6,11.4-58.3,30.1-79.5c1.2-1.3,2.4-2.6,3.6-3.9c1-1,1.9-2,2.8-2.8
				c7.1-6.9,15.1-12.8,23.7-17.7c9.4-5.6,19.5-9.7,30.3-12.3c9.5-2.4,19.3-3.7,29.4-3.7l0.8,0C173.3,37.7,202.4,50.5,223.8,71.1z"/>
			<polygon class="st69" points="111.4,183.5 111,184 111,183.5 			"/>
			<polygon class="st69" points="111.4,183.5 111,184 111,183.5 			"/>
			<polygon class="st69" points="111.4,183.5 111,184 111,183.5 			"/>
			<path class="st69" d="M111,157.4l58.8,0l0,26l-58.8,0l0,90.3c-10.8-2.6-21-6.7-30.3-12.3l0-104c0-15.8,6.1-30,16.2-40.6
				c0.8-1,1.7-2,2.8-2.8c3.4-3.4,7.1-6.1,11.2-8.3c8.6-5,18.7-7.7,29.4-7.7h0.8c15.3,0.2,29.4,6.2,39.8,16.1l-21.4,21.4
				c-5-4.5-11.3-7.1-18.4-7.3h-0.8c-7.3,0-14,2.7-19.2,7.3c-1.1,0.8-2.1,1.7-2.8,2.8C113.7,143.4,111,150.2,111,157.4z"/>
			<polygon class="st69" points="111.4,183.5 111,184 111,183.5 			"/>
			<path class="st70" d="M257.5,183.5c-4.8,22-15.7,41.7-30.8,57.4c-0.9,1-1.9,2-2.8,2.8c-21.3,20.9-50.5,33.6-82.6,33.8v-30.3
				c23.8-0.2,45.4-9.7,61.3-24.8c0.9-1,1.9-1.9,2.8-2.8c9.6-10,16.9-22.3,21.1-36l-35.2,0v-26.1l69,0"/>
		</g>
		<rect x="191.3" y="157.4" class="st70" width="102.5" height="26"/>
	</g>
	<g>
		<g>
			<path class="st71" d="M224.2,70.6l-21.5,21.5c-16.1-15.3-37.7-24.7-61.6-25h-0.8c-10.4,0-20.3,1.8-29.6,4.9
				c-11.4,4.1-21.7,10.1-30.4,17.8c-0.9,0.8-1.6,1.5-2.4,2.2c-0.9,1-1.9,2-2.8,2.8c-15.4,16.3-25,38.2-25,62.5l0,80
				c-13.4-15.1-23-33.5-27.5-53.9c-1.9-8.4-2.8-17.2-2.8-26.2c0-30.8,11.5-58.7,30.3-79.9c1.2-1.3,2.4-2.6,3.6-3.9
				c1-1,1.9-2,2.8-2.8c7.1-6.9,15.2-12.9,23.9-17.8c9.4-5.6,19.6-9.7,30.4-12.4c9.5-2.4,19.4-3.7,29.6-3.7h0.8
				C173.4,37,202.7,49.8,224.2,70.6z"/>
			<polygon class="st71" points="111.2,183.6 110.7,184.2 110.7,183.6 			"/>
			<polygon class="st71" points="111.2,183.6 110.7,184.2 110.7,183.6 			"/>
			<polygon class="st71" points="111.2,183.6 110.7,184.2 110.7,183.6 			"/>
			<path class="st71" d="M110.7,157.4l59.1,0v26.2l-59.1,0l0,90.9c-10.8-2.6-21.1-6.8-30.4-12.4l0-104.7c0-15.9,6.1-30.2,16.3-40.8
				c0.8-1,1.8-2,2.8-2.8c3.4-3.4,7.1-6.1,11.3-8.3c8.6-5,18.8-7.8,29.6-7.8h0.8c15.4,0.2,29.6,6.2,40.1,16.2l-21.6,21.6
				c-5-4.5-11.4-7.1-18.5-7.3h-0.8c-7.3,0-14.1,2.7-19.3,7.3c-1.1,0.8-2.1,1.8-2.8,2.8C113.5,143.3,110.7,150.1,110.7,157.4z"/>
			<polygon class="st71" points="111.2,183.6 110.7,184.2 110.7,183.6 			"/>
			<path class="st72" d="M258.1,183.6c-4.8,22.1-15.8,41.9-31,57.7c-0.9,1-1.9,2-2.8,2.8c-21.5,21-50.8,33.8-83.1,34v-30.4
				c24-0.2,45.6-9.7,61.6-25c0.9-1,1.9-1.9,2.8-2.8c9.6-10.1,17-22.4,21.2-36.2l-35.4,0v-26.3l69.4,0"/>
		</g>
		<rect x="191.5" y="157.4" class="st72" width="103.1" height="26.2"/>
	</g>
	<g>
		<g>
			<path class="st73" d="M224.5,70.1L203,91.7c-16.2-15.4-37.9-24.9-62-25.1l-0.8,0c-10.5,0-20.4,1.8-29.7,5
				C99,75.6,88.7,81.7,79.9,89.5c-0.9,0.8-1.7,1.5-2.4,2.2c-0.9,1-1.9,2-2.9,2.9C59.1,111,49.5,133,49.5,157.4l0,80.5
				c-13.4-15.2-23.1-33.7-27.6-54.2c-1.9-8.5-2.9-17.3-2.9-26.3c0-30.9,11.6-59,30.5-80.4c1.2-1.3,2.4-2.6,3.6-4c1-1,1.9-2,2.9-2.9
				c7.2-6.9,15.3-13,24-17.9c9.5-5.6,19.7-9.8,30.6-12.4c9.6-2.4,19.5-3.7,29.7-3.7h0.8C173.5,36.3,203,49.2,224.5,70.1z"/>
			<polygon class="st73" points="110.9,183.8 110.5,184.3 110.5,183.8 			"/>
			<polygon class="st73" points="110.9,183.8 110.5,184.3 110.5,183.8 			"/>
			<polygon class="st73" points="110.9,183.8 110.5,184.3 110.5,183.8 			"/>
			<path class="st73" d="M110.5,157.4l59.5,0v26.3l-59.5,0l0,91.4c-10.9-2.6-21.3-6.8-30.6-12.4l0-105.3c0-16,6.2-30.4,16.4-41.1
				c0.8-1,1.8-2,2.9-2.9c3.4-3.4,7.2-6.2,11.3-8.4c8.7-5.1,18.9-7.8,29.7-7.8h0.8c15.5,0.2,29.7,6.3,40.3,16.3l-21.7,21.7
				c-5.1-4.5-11.5-7.2-18.6-7.4h-0.8c-7.4,0-14.2,2.8-19.4,7.4c-1.1,0.8-2.1,1.8-2.9,2.9C113.2,143.2,110.5,150.1,110.5,157.4z"/>
			<polygon class="st73" points="110.9,183.8 110.5,184.3 110.5,183.8 			"/>
			<path class="st74" d="M258.7,183.8c-4.8,22.2-15.9,42.2-31.2,58c-0.9,1-1.9,2-2.9,2.9c-21.6,21.1-51.1,34-83.6,34.2v-30.6
				c24.1-0.2,45.9-9.8,62-25.1c0.9-1,1.9-1.9,2.9-2.9c9.7-10.1,17.1-22.6,21.4-36.4l-35.6,0l0-26.4l69.8,0"/>
		</g>
		<rect x="191.7" y="157.4" class="st74" width="103.7" height="26.3"/>
	</g>
	<g>
		<g>
			<path class="st75" d="M224.9,69.6l-21.7,21.7c-16.3-15.5-38.1-25-62.3-25.2h-0.8c-10.5,0-20.5,1.8-29.9,5
				c-11.5,4.1-21.9,10.2-30.8,18.1c-0.9,0.8-1.7,1.6-2.4,2.2c-0.9,1-1.9,2-2.9,2.9c-15.6,16.5-25.2,38.6-25.2,63.2l0,81
				c-13.5-15.3-23.3-33.9-27.8-54.5c-1.9-8.5-2.9-17.4-2.9-26.5c0-31.1,11.6-59.4,30.7-80.8c1.2-1.3,2.4-2.7,3.7-4
				c1-1,1.9-2,2.9-2.9c7.2-7,15.4-13.1,24.1-18.1c9.5-5.6,19.8-9.9,30.8-12.5c9.6-2.4,19.6-3.8,29.9-3.8h0.8
				C173.5,35.6,203.2,48.6,224.9,69.6z"/>
			<polygon class="st75" points="110.6,183.9 110.2,184.5 110.2,183.9 			"/>
			<polygon class="st75" points="110.6,183.9 110.2,184.5 110.2,183.9 			"/>
			<polygon class="st75" points="110.6,183.9 110.2,184.5 110.2,183.9 			"/>
			<path class="st75" d="M110.2,157.4l59.8,0v26.5l-59.8,0l0,91.9c-11-2.7-21.4-6.9-30.8-12.5l0-105.9c0-16.1,6.2-30.6,16.5-41.3
				c0.8-1,1.8-2,2.9-2.9c3.4-3.4,7.2-6.2,11.4-8.4c8.7-5.1,19-7.9,29.9-7.9h0.8c15.6,0.2,29.9,6.3,40.5,16.4l-21.8,21.8
				c-5.1-4.5-11.5-7.2-18.7-7.4h-0.8c-7.4,0-14.3,2.8-19.5,7.4c-1.1,0.8-2.1,1.8-2.9,2.9C113,143.2,110.2,150,110.2,157.4z"/>
			<polygon class="st75" points="110.6,183.9 110.2,184.5 110.2,183.9 			"/>
			<path class="st76" d="M259.3,183.9c-4.9,22.4-15.9,42.4-31.3,58.4c-0.9,1-1.9,2-2.9,2.9c-21.7,21.3-51.4,34.2-84.1,34.4v-30.8
				c24.3-0.2,46.2-9.9,62.3-25.2c0.9-1,1.9-1.9,2.9-2.9c9.7-10.2,17.2-22.7,21.5-36.7l-35.8,0v-26.6l70.2,0"/>
		</g>
		<rect x="191.9" y="157.4" class="st76" width="104.3" height="26.5"/>
	</g>
	<g>
		<g>
			<path class="st77" d="M225.3,69.1L203.5,91c-16.4-15.6-38.3-25.2-62.7-25.4H140c-10.6,0-20.6,1.8-30.1,5
				c-11.6,4.1-22.1,10.2-31,18.2c-0.9,0.8-1.7,1.6-2.5,2.2c-0.9,1-1.9,2-2.9,2.9c-15.7,16.6-25.4,38.9-25.4,63.6l0,81.4
				c-13.6-15.4-23.4-34.1-28-54.8c-1.9-8.6-2.9-17.5-2.9-26.6c0-31.3,11.7-59.7,30.9-81.3c1.2-1.3,2.5-2.7,3.7-4c1-1,1.9-2,2.9-2.9
				c7.2-7,15.5-13.1,24.3-18.2c9.6-5.7,19.9-9.9,31-12.6c9.7-2.5,19.7-3.8,30.1-3.8h0.8C173.6,34.9,203.5,48,225.3,69.1z"/>
			<polygon class="st77" points="110.4,184.1 109.9,184.6 109.9,184.1 			"/>
			<polygon class="st77" points="110.4,184.1 109.9,184.6 109.9,184.1 			"/>
			<polygon class="st77" points="110.4,184.1 109.9,184.6 109.9,184.1 			"/>
			<path class="st77" d="M109.9,157.4l60.1,0v26.6l-60.1,0l0,92.4c-11-2.7-21.5-6.9-31-12.6l0-106.5c0-16.1,6.2-30.7,16.6-41.5
				c0.8-1,1.8-2,2.9-2.9c3.5-3.5,7.2-6.2,11.5-8.5c8.8-5.1,19.2-7.9,30.1-7.9h0.8c15.7,0.2,30.1,6.3,40.8,16.5l-21.9,21.9
				c-5.1-4.6-11.6-7.2-18.8-7.5H140c-7.5,0-14.4,2.8-19.6,7.5c-1.1,0.8-2.1,1.8-2.9,2.9C112.7,143.1,109.9,150,109.9,157.4z"/>
			<polygon class="st77" points="110.4,184.1 109.9,184.6 109.9,184.1 			"/>
			<path class="st78" d="M259.8,184.1c-4.9,22.5-16,42.7-31.5,58.7c-0.9,1-1.9,2-2.9,2.9c-21.8,21.4-51.7,34.4-84.5,34.6v-31
				c24.4-0.2,46.4-9.9,62.7-25.4c0.9-1,1.9-1.9,2.9-2.9c9.8-10.2,17.3-22.8,21.6-36.9l-36,0v-26.7l70.6,0"/>
		</g>
		<rect x="192.1" y="157.4" class="st78" width="104.9" height="26.6"/>
	</g>
	<g>
		<g>
			<path class="st79" d="M225.7,68.6l-22,22c-16.5-15.7-38.5-25.3-63.1-25.5h-0.8c-10.6,0-20.7,1.8-30.2,5
				C98,74.2,87.5,80.4,78.5,88.3c-0.9,0.8-1.7,1.6-2.5,2.2c-0.9,1-1.9,2-2.9,2.9c-15.8,16.7-25.5,39.1-25.5,64l0,81.9
				c-13.7-15.5-23.5-34.3-28.1-55.1c-1.9-8.6-2.9-17.6-2.9-26.8c0-31.5,11.8-60,31-81.8c1.2-1.3,2.5-2.7,3.7-4c1-1,1.9-2,2.9-2.9
				c7.3-7.1,15.6-13.2,24.4-18.3c9.6-5.7,20.1-10,31.1-12.7c9.7-2.5,19.8-3.8,30.2-3.8l0.8,0C173.7,34.2,203.8,47.3,225.7,68.6z"/>
			<polygon class="st79" points="110.1,184.2 109.7,184.8 109.7,184.2 			"/>
			<polygon class="st79" points="110.1,184.2 109.7,184.8 109.7,184.2 			"/>
			<polygon class="st79" points="110.1,184.2 109.7,184.8 109.7,184.2 			"/>
			<path class="st79" d="M109.7,157.4l60.5,0l0,26.8l-60.5,0l0,93c-11.1-2.7-21.6-6.9-31.1-12.7l0-107.1c0-16.2,6.3-30.9,16.7-41.8
				c0.8-1,1.8-2,2.9-2.9c3.5-3.5,7.3-6.3,11.5-8.5c8.8-5.2,19.3-8,30.2-8l0.8,0c15.8,0.2,30.2,6.4,41,16.6l-22.1,22.1
				c-5.2-4.6-11.6-7.3-18.9-7.5h-0.8c-7.5,0-14.4,2.8-19.7,7.5c-1.1,0.8-2.1,1.8-2.9,2.9C112.5,143,109.7,149.9,109.7,157.4z"/>
			<polygon class="st79" points="110.1,184.2 109.7,184.8 109.7,184.2 			"/>
			<path class="st80" d="M260.4,184.2c-4.9,22.6-16.1,42.9-31.7,59c-0.9,1-1.9,2-2.9,2.9c-22,21.5-52,34.6-85,34.8l0-31.1
				c24.5-0.2,46.7-10,63.1-25.5c0.9-1,1.9-1.9,2.9-2.9c9.9-10.3,17.4-23,21.7-37.1l-36.2,0v-26.9l71,0"/>
		</g>
		<rect x="192.3" y="157.4" class="st80" width="105.5" height="26.8"/>
	</g>
	<g>
		<g>
			<path class="st81" d="M226.1,68.1L204,90.2c-16.6-15.8-38.8-25.5-63.4-25.7h-0.8c-10.7,0-20.8,1.8-30.4,5.1
				c-11.7,4.2-22.3,10.4-31.3,18.4c-0.9,0.8-1.7,1.6-2.5,2.3c-0.9,1-1.9,2-2.9,2.9C56.8,109.9,47,132.4,47,157.4l0,82.3
				c-13.7-15.5-23.7-34.5-28.3-55.4c-1.9-8.7-2.9-17.7-2.9-26.9c0-31.7,11.8-60.4,31.2-82.2c1.2-1.4,2.5-2.7,3.7-4.1
				c1-1,1.9-2,2.9-2.9c7.3-7.1,15.7-13.3,24.6-18.4c9.7-5.7,20.2-10,31.3-12.7c9.8-2.5,19.9-3.8,30.4-3.8h0.8
				C173.8,33.5,204,46.7,226.1,68.1z"/>
			<polygon class="st81" points="109.8,184.4 109.4,184.9 109.4,184.4 			"/>
			<polygon class="st81" points="109.8,184.4 109.4,184.9 109.4,184.4 			"/>
			<polygon class="st81" points="109.8,184.4 109.4,184.9 109.4,184.4 			"/>
			<path class="st81" d="M109.4,157.4l60.8,0v26.9l-60.8,0l0,93.5c-11.2-2.7-21.7-7-31.3-12.7l0-107.7c0-16.3,6.3-31.1,16.8-42
				c0.8-1,1.8-2,2.9-2.9c3.5-3.5,7.3-6.3,11.6-8.6c8.9-5.2,19.4-8,30.4-8h0.8c15.9,0.2,30.4,6.4,41.2,16.7l-22.2,22.2
				c-5.2-4.6-11.7-7.3-19-7.5h-0.8c-7.5,0-14.5,2.8-19.8,7.5c-1.1,0.8-2.1,1.8-2.9,2.9C112.2,142.9,109.4,149.9,109.4,157.4z"/>
			<polygon class="st81" points="109.8,184.4 109.4,184.9 109.4,184.4 			"/>
			<path class="st82" d="M261,184.4c-5,22.8-16.2,43.1-31.9,59.4c-0.9,1-1.9,2-2.9,2.9c-22.1,21.6-52.3,34.8-85.5,35l0-31.3
				c24.7-0.2,47-10,63.4-25.7c0.9-1,1.9-1.9,2.9-2.9c9.9-10.4,17.5-23.1,21.9-37.3l-36.4,0l0-27l71.4,0"/>
		</g>
		<rect x="192.5" y="157.4" class="st82" width="106.1" height="26.9"/>
	</g>
	<g>
		<g>
			<path class="st83" d="M226.5,67.6l-22.2,22.2c-16.7-15.9-39-25.6-63.8-25.8h-0.8c-10.8,0-21,1.8-30.6,5.1
				c-11.8,4.2-22.4,10.4-31.5,18.5c-0.9,0.8-1.7,1.6-2.5,2.3c-0.9,1-1.9,2-2.9,2.9c-16,16.9-25.8,39.5-25.8,64.7l0,82.8
				c-13.8-15.6-23.8-34.7-28.4-55.7c-1.9-8.7-2.9-17.8-2.9-27.1c0-31.8,11.9-60.7,31.4-82.7c1.2-1.4,2.5-2.7,3.7-4.1
				c1-1,1.9-2,2.9-2.9c7.4-7.1,15.7-13.4,24.7-18.5c9.7-5.8,20.3-10.1,31.5-12.8c9.9-2.5,20.1-3.9,30.6-3.9h0.8
				C173.9,32.8,204.3,46.1,226.5,67.6z"/>
			<polygon class="st83" points="109.6,184.5 109.1,185.1 109.1,184.5 			"/>
			<polygon class="st83" points="109.6,184.5 109.1,185.1 109.1,184.5 			"/>
			<polygon class="st83" points="109.6,184.5 109.1,185.1 109.1,184.5 			"/>
			<path class="st83" d="M109.1,157.4l61.2,0v27.1l-61.2,0l0,94c-11.2-2.7-21.9-7-31.5-12.8l0-108.3c0-16.4,6.3-31.3,16.9-42.3
				c0.8-1,1.8-2,2.9-2.9c3.5-3.5,7.4-6.3,11.7-8.6c8.9-5.2,19.5-8,30.6-8h0.8c16,0.2,30.6,6.5,41.5,16.8l-22.3,22.3
				c-5.2-4.6-11.8-7.4-19.1-7.6h-0.8c-7.6,0-14.6,2.8-19.9,7.6c-1.1,0.8-2.2,1.8-2.9,2.9C112,142.8,109.1,149.9,109.1,157.4z"/>
			<polygon class="st83" points="109.6,184.5 109.1,185.1 109.1,184.5 			"/>
			<path class="st84" d="M261.6,184.5c-5,22.9-16.3,43.4-32.1,59.7c-0.9,1-1.9,2-2.9,2.9c-22.2,21.7-52.6,35-86,35.2v-31.5
				c24.8-0.2,47.2-10.1,63.8-25.8c0.9-1,1.9-1.9,2.9-2.9c10-10.4,17.6-23.2,22-37.5l-36.6,0l0-27.2l71.8,0"/>
		</g>
		<rect x="192.7" y="157.4" class="st84" width="106.7" height="27.1"/>
	</g>
	<g>
		<g>
			<path class="st85" d="M226.9,67.1l-22.3,22.3c-16.7-15.9-39.2-25.7-64.1-26h-0.8c-10.8,0-21.1,1.8-30.8,5.1
				C97,72.8,86.3,79.1,77.2,87.2c-0.9,0.8-1.7,1.6-2.5,2.3c-0.9,1-1.9,2.1-3,3c-16.1,17-26,39.8-26,65l0,83.3
				c-13.9-15.7-23.9-34.9-28.6-56c-1.9-8.8-3-17.9-3-27.2c0-32,12-61.1,31.6-83.2c1.3-1.4,2.5-2.7,3.8-4.1c1-1,1.9-2.1,3-3
				c7.4-7.2,15.8-13.4,24.8-18.6c9.8-5.8,20.4-10.1,31.7-12.9c9.9-2.5,20.2-3.9,30.8-3.9h0.8C174,32.1,204.5,45.5,226.9,67.1z"/>
			<polygon class="st85" points="109.3,184.7 108.9,185.2 108.9,184.7 			"/>
			<polygon class="st85" points="109.3,184.7 108.9,185.2 108.9,184.7 			"/>
			<polygon class="st85" points="109.3,184.7 108.9,185.2 108.9,184.7 			"/>
			<path class="st85" d="M108.9,157.4l61.5,0v27.2l-61.5,0l0,94.6c-11.3-2.7-22-7.1-31.7-12.9l0-108.9c0-16.5,6.4-31.4,17-42.5
				c0.8-1,1.8-2.1,3-3c3.5-3.5,7.4-6.4,11.7-8.7c9-5.2,19.6-8.1,30.8-8.1h0.8c16.1,0.2,30.8,6.5,41.7,16.9l-22.4,22.4
				c-5.2-4.7-11.8-7.4-19.3-7.6h-0.8c-7.6,0-14.7,2.8-20,7.6c-1.1,0.8-2.2,1.8-3,3C111.7,142.7,108.9,149.8,108.9,157.4z"/>
			<polygon class="st85" points="109.3,184.7 108.9,185.2 108.9,184.7 			"/>
			<path class="st86" d="M262.2,184.7c-5,23-16.4,43.6-32.2,60c-0.9,1-1.9,2.1-3,3c-22.3,21.9-52.9,35.2-86.5,35.4v-31.7
				c24.9-0.2,47.5-10.1,64.1-26c0.9-1,1.9-1.9,3-3c10-10.5,17.7-23.4,22.1-37.7l-36.8,0v-27.3l72.2,0"/>
		</g>
		<rect x="192.9" y="157.4" class="st86" width="107.3" height="27.3"/>
	</g>
	<g>
		<g>
			<path class="st87" d="M227.3,66.6l-22.5,22.5c-16.8-16-39.4-25.9-64.5-26.1h-0.8c-10.9,0-21.2,1.8-30.9,5.2
				c-11.9,4.2-22.7,10.5-31.8,18.7c-0.9,0.8-1.7,1.6-2.5,2.3c-0.9,1-1.9,2.1-3,3c-16.2,17.1-26.1,40-26.1,65.4l0,83.7
				c-14-15.8-24.1-35.1-28.8-56.4c-1.9-8.8-3-18-3-27.4c0-32.2,12-61.4,31.7-83.6c1.3-1.4,2.5-2.7,3.8-4.1c1-1,1.9-2.1,3-3
				c7.4-7.2,15.9-13.5,25-18.7c9.9-5.8,20.5-10.2,31.8-12.9c10-2.5,20.3-3.9,30.9-3.9h0.8C174.1,31.4,204.8,44.8,227.3,66.6z"/>
			<polygon class="st87" points="109,184.8 108.6,185.4 108.6,184.8 			"/>
			<polygon class="st87" points="109,184.8 108.6,185.4 108.6,184.8 			"/>
			<polygon class="st87" points="109,184.8 108.6,185.4 108.6,184.8 			"/>
			<path class="st87" d="M108.6,157.4l61.9,0v27.4l-61.9,0l0,95.1c-11.3-2.7-22.1-7.1-31.8-12.9l0-109.5c0-16.6,6.4-31.6,17.1-42.7
				c0.8-1,1.8-2.1,3-3c3.6-3.6,7.4-6.4,11.8-8.7c9-5.3,19.7-8.1,30.9-8.1h0.8c16.2,0.2,30.9,6.5,41.9,17l-22.6,22.6
				c-5.3-4.7-11.9-7.4-19.4-7.7h-0.8c-7.7,0-14.8,2.9-20.2,7.7c-1.1,0.8-2.2,1.8-3,3C111.5,142.7,108.6,149.8,108.6,157.4z"/>
			<polygon class="st87" points="109,184.8 108.6,185.4 108.6,184.8 			"/>
			<path class="st88" d="M262.8,184.8c-5,23.1-16.5,43.9-32.4,60.4c-0.9,1-1.9,2.1-3,3c-22.5,22-53.2,35.4-86.9,35.6v-31.8
				c25.1-0.2,47.8-10.2,64.5-26.1c0.9-1,1.9-1.9,3-3c10.1-10.5,17.8-23.5,22.2-37.9l-37,0v-27.5l72.6,0"/>
		</g>
		<rect x="193.1" y="157.4" class="st88" width="107.9" height="27.4"/>
	</g>
	<g>
		<g>
			<path class="st89" d="M227.7,66.1l-22.6,22.6c-16.9-16.1-39.6-26-64.8-26.3l-0.8,0c-10.9,0-21.3,1.8-31.1,5.2
				c-12,4.3-22.8,10.6-32,18.8c-0.9,0.8-1.7,1.6-2.5,2.3c-0.9,1-2,2.1-3,3c-16.2,17.2-26.3,40.2-26.3,65.8l0,84.2
				c-14.1-15.9-24.2-35.2-28.9-56.7c-2-8.9-3-18.1-3-27.5c0-32.4,12.1-61.7,31.9-84.1c1.3-1.4,2.5-2.8,3.8-4.1c1-1,2-2.1,3-3
				c7.5-7.3,16-13.6,25.1-18.8c9.9-5.9,20.6-10.3,32-13c10-2.5,20.4-3.9,31.1-3.9h0.8C174.2,30.7,205.1,44.2,227.7,66.1z"/>
			<polygon class="st89" points="108.8,185 108.3,185.5 108.3,185 			"/>
			<polygon class="st89" points="108.8,185 108.3,185.5 108.3,185 			"/>
			<polygon class="st89" points="108.8,185 108.3,185.5 108.3,185 			"/>
			<path class="st89" d="M108.3,157.4l62.2,0l0,27.5l-62.2,0l0,95.6c-11.4-2.8-22.2-7.1-32-13l0-110.1c0-16.7,6.5-31.8,17.2-43
				c0.8-1,1.8-2.1,3-3c3.6-3.6,7.5-6.5,11.9-8.8c9.1-5.3,19.8-8.2,31.1-8.2h0.8c16.2,0.2,31.1,6.6,42.2,17l-22.7,22.7
				c-5.3-4.7-12-7.5-19.5-7.7h-0.8c-7.7,0-14.9,2.9-20.3,7.7c-1.2,0.8-2.2,1.8-3,3C111.2,142.6,108.3,149.7,108.3,157.4z"/>
			<polygon class="st89" points="108.8,185 108.3,185.5 108.3,185 			"/>
			<path class="st90" d="M263.4,185c-5.1,23.3-16.6,44.1-32.6,60.7c-0.9,1-2,2.1-3,3c-22.6,22.1-53.4,35.6-87.4,35.8v-32
				c25.2-0.2,48-10.3,64.8-26.3c0.9-1,2-2,3-3c10.1-10.6,17.9-23.6,22.3-38.1l-37.2,0v-27.6l73,0"/>
		</g>
		<rect x="193.3" y="157.4" class="st90" width="108.5" height="27.6"/>
	</g>
	<g>
		<g>
			<path class="st91" d="M228,65.6l-22.7,22.7c-17-16.2-39.8-26.2-65.2-26.4h-0.8c-11,0-21.4,1.9-31.3,5.2
				C96,71.4,85.1,77.8,75.9,86c-0.9,0.8-1.7,1.6-2.5,2.3c-0.9,1-2,2.1-3,3c-16.3,17.3-26.4,40.4-26.4,66.1l0,84.7
				c-14.1-16-24.3-35.4-29.1-57c-2-8.9-3-18.2-3-27.7c0-32.5,12.2-62.1,32.1-84.5c1.3-1.4,2.5-2.8,3.8-4.2c1-1,2-2.1,3-3
				C58.2,58.4,66.8,52,76,46.8c10-5.9,20.7-10.3,32.2-13.1c10.1-2.5,20.5-3.9,31.3-3.9h0.8C174.3,30,205.3,43.6,228,65.6z"/>
			<polygon class="st91" points="108.5,185.1 108,185.7 108,185.1 			"/>
			<polygon class="st91" points="108.5,185.1 108,185.7 108,185.1 			"/>
			<polygon class="st91" points="108.5,185.1 108,185.7 108,185.1 			"/>
			<path class="st91" d="M108,157.4l62.5,0v27.7l-62.5,0l0,96.1c-11.5-2.8-22.4-7.2-32.2-13.1l0-110.7c0-16.8,6.5-32,17.3-43.2
				c0.8-1,1.9-2.1,3-3c3.6-3.6,7.5-6.5,11.9-8.8c9.1-5.3,19.9-8.2,31.3-8.2h0.8c16.3,0.2,31.3,6.6,42.4,17.1l-22.8,22.8
				c-5.3-4.7-12-7.5-19.6-7.8h-0.8c-7.8,0-14.9,2.9-20.4,7.8c-1.2,0.8-2.2,1.9-3,3C110.9,142.5,108,149.7,108,157.4z"/>
			<polygon class="st91" points="108.5,185.1 108,185.7 108,185.1 			"/>
			<path class="st92" d="M263.9,185.1c-5.1,23.4-16.7,44.4-32.8,61c-0.9,1-2,2.1-3,3c-22.7,22.2-53.7,35.8-87.9,36l0-32.2
				c25.4-0.2,48.3-10.3,65.2-26.4c0.9-1,2-2,3-3c10.2-10.7,18-23.7,22.5-38.3l-37.4,0l0-27.8l73.4,0"/>
		</g>
		<rect x="193.5" y="157.4" class="st92" width="109.1" height="27.7"/>
	</g>
	<g>
		<g>
			<path class="st93" d="M228.4,65.1l-22.8,22.8c-17.1-16.3-40.1-26.3-65.6-26.6h-0.8c-11.1,0-21.5,1.9-31.4,5.2
				c-12.1,4.3-23.1,10.7-32.4,19c-0.9,0.8-1.7,1.6-2.6,2.3c-0.9,1-2,2.1-3,3c-16.4,17.4-26.6,40.6-26.6,66.5l0,85.1
				c-14.2-16.1-24.5-35.6-29.2-57.3c-2-9-3-18.3-3-27.8c0-32.7,12.2-62.4,32.3-85c1.3-1.4,2.6-2.8,3.8-4.2c1-1,2-2.1,3-3
				c7.6-7.3,16.2-13.7,25.4-19c10-5.9,20.8-10.4,32.4-13.2c10.1-2.6,20.6-4,31.4-4l0.8,0C174.4,29.3,205.6,43,228.4,65.1z"/>
			<polygon class="st93" points="108.2,185.3 107.8,185.9 107.8,185.3 			"/>
			<polygon class="st93" points="108.2,185.3 107.8,185.9 107.8,185.3 			"/>
			<polygon class="st93" points="108.2,185.3 107.8,185.9 107.8,185.3 			"/>
			<path class="st93" d="M107.8,157.4l62.9,0v27.8l-62.9,0l0,96.7c-11.5-2.8-22.5-7.2-32.4-13.2l0-111.3c0-16.9,6.5-32.1,17.4-43.4
				c0.8-1,1.9-2.1,3-3c3.6-3.6,7.6-6.5,12-8.9c9.2-5.4,20-8.3,31.4-8.3h0.8c16.4,0.2,31.4,6.6,42.6,17.2L159.7,134
				c-5.4-4.8-12.1-7.6-19.7-7.8h-0.8c-7.8,0-15,2.9-20.5,7.8c-1.2,0.8-2.2,1.9-3,3C110.7,142.4,107.8,149.6,107.8,157.4z"/>
			<polygon class="st93" points="108.2,185.3 107.8,185.9 107.8,185.3 			"/>
			<path class="st94" d="M264.5,185.3c-5.1,23.5-16.8,44.6-33,61.4c-0.9,1-2,2.1-3,3c-22.8,22.4-54,36-88.4,36.2l0-32.4
				c25.5-0.2,48.6-10.4,65.6-26.6c0.9-1,2-2,3-3c10.2-10.7,18.1-23.9,22.6-38.5l-37.6,0v-27.9l73.8,0"/>
		</g>
		<rect x="193.7" y="157.4" class="st94" width="109.7" height="27.9"/>
	</g>
	<g>
		<g>
			<path class="st95" d="M228.8,64.6l-22.9,22.9c-17.2-16.4-40.3-26.5-65.9-26.7h-0.8c-11.1,0-21.7,1.9-31.6,5.3
				C95.3,70.4,84.3,76.9,75,85.2c-0.9,0.8-1.8,1.6-2.6,2.3c-0.9,1.1-2,2.1-3,3c-16.5,17.4-26.7,40.9-26.7,66.9l0,85.6
				c-14.3-16.2-24.6-35.8-29.4-57.6c-2-9-3-18.4-3-28c0-32.9,12.3-62.8,32.4-85.5c1.3-1.4,2.6-2.8,3.9-4.2c1.1-1.1,2-2.1,3-3
				c7.6-7.4,16.3-13.8,25.5-19.1c10.1-6,21-10.4,32.6-13.2c10.2-2.6,20.7-4,31.6-4h0.8C174.5,28.6,205.9,42.3,228.8,64.6z"/>
			<polygon class="st95" points="108,185.4 107.5,186 107.5,185.4 			"/>
			<polygon class="st95" points="108,185.4 107.5,186 107.5,185.4 			"/>
			<polygon class="st95" points="108,185.4 107.5,186 107.5,185.4 			"/>
			<path class="st95" d="M107.5,157.4l63.2,0l0,28l-63.2,0l0,97.2c-11.6-2.8-22.6-7.3-32.6-13.2l0-111.9c0-17,6.6-32.3,17.4-43.7
				c0.8-1.1,1.9-2.1,3-3c3.6-3.6,7.6-6.6,12.1-8.9c9.3-5.4,20.1-8.3,31.6-8.3h0.8c16.5,0.2,31.6,6.7,42.9,17.3l-23.1,23.1
				c-5.4-4.8-12.2-7.6-19.8-7.8h-0.8c-7.8,0-15.1,2.9-20.6,7.8c-1.2,0.8-2.2,1.9-3,3C110.4,142.3,107.5,149.6,107.5,157.4z"/>
			<polygon class="st95" points="108,185.4 107.5,186 107.5,185.4 			"/>
			<path class="st96" d="M265.1,185.4c-5.2,23.7-16.9,44.8-33.1,61.7c-0.9,1.1-2,2.1-3,3c-22.9,22.5-54.3,36.2-88.9,36.4V254
				c25.6-0.2,48.8-10.4,65.9-26.7c0.9-1.1,2-2,3-3c10.3-10.8,18.1-24,22.7-38.8l-37.8,0v-28.1l74.2,0"/>
		</g>
		<rect x="193.9" y="157.4" class="st96" width="110.3" height="28"/>
	</g>
	<g>
		<g>
			<path class="st97" d="M229.2,64.1l-23.1,23.1c-17.3-16.5-40.5-26.6-66.3-26.8H139c-11.2,0-21.8,1.9-31.8,5.3
				C95,70,83.9,76.4,74.5,84.8c-0.9,0.8-1.8,1.6-2.6,2.4c-0.9,1.1-2,2.1-3.1,3.1C52.3,107.8,42,131.3,42,157.4l0,86.1
				c-14.4-16.2-24.7-36-29.5-57.9c-2-9.1-3.1-18.5-3.1-28.1c0-33.1,12.4-63.1,32.6-85.9c1.3-1.4,2.6-2.8,3.9-4.2
				c1.1-1.1,2-2.1,3.1-3.1c7.7-7.4,16.4-13.9,25.7-19.2c10.1-6,21.1-10.5,32.7-13.3c10.2-2.6,20.8-4,31.8-4h0.8
				C174.6,27.9,206.1,41.7,229.2,64.1z"/>
			<polygon class="st97" points="107.7,185.6 107.2,186.2 107.2,185.6 			"/>
			<polygon class="st97" points="107.7,185.6 107.2,186.2 107.2,185.6 			"/>
			<polygon class="st97" points="107.7,185.6 107.2,186.2 107.2,185.6 			"/>
			<path class="st97" d="M107.2,157.4l63.6,0v28.1l-63.6,0l0,97.7c-11.7-2.8-22.7-7.3-32.7-13.3l0-112.5c0-17.1,6.6-32.5,17.5-43.9
				c0.8-1.1,1.9-2.1,3.1-3.1c3.6-3.6,7.7-6.6,12.1-8.9c9.3-5.4,20.2-8.4,31.8-8.4h0.8c16.6,0.2,31.8,6.7,43.1,17.4l-23.2,23.2
				c-5.4-4.8-12.2-7.7-19.9-7.9l-0.8,0c-7.9,0-15.2,2.9-20.7,7.9c-1.2,0.8-2.2,1.9-3.1,3.1C110.2,142.3,107.2,149.6,107.2,157.4z"/>
			<polygon class="st97" points="107.7,185.6 107.2,186.2 107.2,185.6 			"/>
			<path class="st98" d="M265.7,185.6c-5.2,23.8-17,45.1-33.3,62c-0.9,1.1-2,2.1-3.1,3.1c-23.1,22.6-54.6,36.4-89.4,36.6v-32.7
				c25.8-0.2,49.1-10.5,66.3-26.8c0.9-1.1,2-2,3.1-3.1c10.4-10.8,18.2-24.1,22.8-39l-38,0v-28.3l74.6,0"/>
		</g>
		<rect x="194.1" y="157.4" class="st98" width="110.9" height="28.2"/>
	</g>
	<g>
		<g>
			<path class="st99" d="M229.6,63.6l-23.2,23.2c-17.4-16.6-40.7-26.7-66.6-27h-0.8c-11.2,0-21.9,1.9-32,5.3
				C94.7,69.5,83.5,76,74.1,84.4c-0.9,0.8-1.8,1.7-2.6,2.4c-0.9,1.1-2,2.1-3.1,3.1c-16.7,17.6-27,41.3-27,67.6l0,86.5
				c-14.4-16.3-24.9-36.2-29.7-58.2c-2-9.1-3.1-18.6-3.1-28.3C8.6,124.2,21,94,41.4,71c1.3-1.4,2.6-2.8,3.9-4.3
				c1.1-1.1,2-2.1,3.1-3.1c7.7-7.5,16.5-14,25.8-19.3c10.2-6,21.2-10.5,32.9-13.4c10.3-2.6,20.9-4,32-4h0.8
				C174.7,27.2,206.4,41.1,229.6,63.6z"/>
			<polygon class="st99" points="107.4,185.7 107,186.3 107,185.7 			"/>
			<polygon class="st99" points="107.4,185.7 107,186.3 107,185.7 			"/>
			<polygon class="st99" points="107.4,185.7 107,186.3 107,185.7 			"/>
			<path class="st99" d="M107,157.4l63.9,0l0,28.3l-63.9,0l0,98.2c-11.7-2.8-22.8-7.3-32.9-13.4l0-113.2c0-17.2,6.6-32.7,17.6-44.1
				c0.8-1.1,1.9-2.1,3.1-3.1c3.7-3.7,7.7-6.6,12.2-9c9.4-5.4,20.4-8.4,32-8.4h0.8c16.7,0.2,32,6.7,43.3,17.5l-23.3,23.3
				c-5.4-4.9-12.3-7.7-20-7.9h-0.8c-7.9,0-15.3,3-20.8,7.9c-1.2,0.8-2.2,1.9-3.1,3.1C109.9,142.2,107,149.5,107,157.4z"/>
			<polygon class="st99" points="107.4,185.7 107,186.3 107,185.7 			"/>
			<path class="st100" d="M266.3,185.7c-5.2,23.9-17,45.3-33.5,62.4c-0.9,1.1-2,2.1-3.1,3.1c-23.2,22.7-54.9,36.6-89.8,36.8v-32.9
				c25.9-0.2,49.4-10.5,66.6-27c0.9-1.1,2-2,3.1-3.1c10.4-10.9,18.3-24.3,23-39.2l-38.2,0l0-28.4l75,0"/>
		</g>
		<rect x="194.3" y="157.4" class="st100" width="111.5" height="28.3"/>
	</g>
	<g>
		<g>
			<g>
				<path class="st101" d="M230,63.1l-23.3,23.3c-17.5-16.7-40.9-26.9-67-27.1h-0.8c-11.3,0-22,1.9-32.1,5.4
					C94.3,69,83.1,75.6,73.6,84c-1,0.8-1.8,1.7-2.6,2.4c-1,1.1-2,2.1-3.1,3.1c-16.8,17.7-27.1,41.5-27.1,67.9l0,87
					c-14.5-16.4-25-36.4-29.9-58.5c-2-9.2-3.1-18.7-3.1-28.4c0-33.4,12.5-63.8,33-86.9c1.3-1.4,2.6-2.9,3.9-4.3
					c1.1-1.1,2-2.1,3.1-3.1c7.7-7.5,16.5-14,25.9-19.4C84,37.7,95,33.2,106.8,30.4c10.4-2.6,21.1-4,32.1-4h0.8
					C174.8,26.5,206.7,40.5,230,63.1z"/>
				<polygon class="st101" points="107.2,185.9 106.7,186.5 106.7,185.9 				"/>
				<polygon class="st101" points="107.2,185.9 106.7,186.5 106.7,185.9 				"/>
				<polygon class="st101" points="107.2,185.9 106.7,186.5 106.7,185.9 				"/>
				<path class="st101" d="M106.7,157.4l64.3,0v28.4l-64.3,0l0,98.8c-11.8-2.9-23-7.4-33.1-13.4l0-113.8c0-17.3,6.7-32.8,17.7-44.4
					c0.8-1.1,1.9-2.1,3.1-3.1c3.7-3.7,7.7-6.7,12.3-9c9.4-5.5,20.5-8.4,32.1-8.4h0.8c16.8,0.2,32.1,6.8,43.6,17.6l-23.4,23.4
					c-5.5-4.9-12.4-7.7-20.1-8h-0.8c-8,0-15.4,3-20.9,8c-1.2,0.8-2.3,1.9-3.1,3.1C109.7,142.1,106.7,149.5,106.7,157.4z"/>
				<polygon class="st101" points="107.2,185.9 106.7,186.5 106.7,185.9 				"/>
				<path class="st102" d="M266.9,185.9c-5.2,24-17.1,45.6-33.7,62.7c-1,1.1-2,2.1-3.1,3.1c-23.3,22.8-55.2,36.8-90.3,37v-33.1
					c26.1-0.2,49.6-10.6,67-27.1c1-1.1,2-2,3.1-3.1c10.5-10.9,18.4-24.4,23.1-39.4l-38.4,0v-28.6l75.4,0"/>
			</g>
		</g>
		<rect x="194.5" y="157.4" class="st102" width="112.1" height="28.5"/>
	</g>
</g>
</svg>
